<mxfile host="Electron" modified="2023-11-05T23:39:48.771Z" agent="Mozilla/5.0 (X11; Linux x86_64) AppleWebKit/537.36 (KHTML, like Gecko) draw.io/22.0.3 Chrome/114.0.5735.289 Electron/25.8.4 Safari/537.36" etag="cx3TZCDBRnUg1xspSDOJ" version="22.0.3" type="device" pages="9">
  <diagram name="UML_Classes_Planned" id="c4acf3e9-155e-7222-9cf6-157b1a14988f">
    <mxGraphModel dx="1222" dy="718" grid="1" gridSize="10" guides="1" tooltips="1" connect="1" arrows="1" fold="1" page="1" pageScale="1" pageWidth="650" pageHeight="600" background="none" math="0" shadow="0">
      <root>
        <mxCell id="0" />
        <mxCell id="1" parent="0" />
        <mxCell id="8vVyC6vUNvX2GDnf0Xso-52" style="edgeStyle=orthogonalEdgeStyle;rounded=0;orthogonalLoop=1;jettySize=auto;html=1;exitX=0.25;exitY=1;exitDx=0;exitDy=0;exitPerimeter=0;entryX=0.25;entryY=0;entryDx=0;entryDy=0;endSize=7;startSize=0;" parent="1" source="8vVyC6vUNvX2GDnf0Xso-1" target="8vVyC6vUNvX2GDnf0Xso-2" edge="1">
          <mxGeometry relative="1" as="geometry" />
        </mxCell>
        <mxCell id="8vVyC6vUNvX2GDnf0Xso-1" value="Godot Editor" style="shape=folder;fontStyle=1;spacingTop=10;tabWidth=40;tabHeight=14;tabPosition=left;html=1;whiteSpace=wrap;" parent="1" vertex="1">
          <mxGeometry x="103" y="10" width="110" height="50" as="geometry" />
        </mxCell>
        <mxCell id="8vVyC6vUNvX2GDnf0Xso-48" style="edgeStyle=orthogonalEdgeStyle;rounded=0;orthogonalLoop=1;jettySize=auto;html=1;exitX=1;exitY=0.5;exitDx=0;exitDy=0;entryX=0.5;entryY=0;entryDx=0;entryDy=0;endSize=7;startSize=0;" parent="1" source="8vVyC6vUNvX2GDnf0Xso-2" target="8vVyC6vUNvX2GDnf0Xso-4" edge="1">
          <mxGeometry relative="1" as="geometry" />
        </mxCell>
        <mxCell id="8vVyC6vUNvX2GDnf0Xso-49" style="edgeStyle=orthogonalEdgeStyle;rounded=0;orthogonalLoop=1;jettySize=auto;html=1;exitX=0;exitY=0.25;exitDx=0;exitDy=0;entryX=0.25;entryY=0;entryDx=0;entryDy=0;endSize=7;" parent="1" source="8vVyC6vUNvX2GDnf0Xso-2" target="8vVyC6vUNvX2GDnf0Xso-3" edge="1">
          <mxGeometry relative="1" as="geometry" />
        </mxCell>
        <mxCell id="8vVyC6vUNvX2GDnf0Xso-2" value="EditorPlugin" style="html=1;whiteSpace=wrap;" parent="1" vertex="1">
          <mxGeometry x="103" y="80" width="110" height="50" as="geometry" />
        </mxCell>
        <mxCell id="8vVyC6vUNvX2GDnf0Xso-50" style="edgeStyle=orthogonalEdgeStyle;rounded=0;orthogonalLoop=1;jettySize=auto;html=1;exitX=0.5;exitY=0;exitDx=0;exitDy=0;entryX=0;entryY=0.75;entryDx=0;entryDy=0;endSize=7;" parent="1" source="8vVyC6vUNvX2GDnf0Xso-3" target="8vVyC6vUNvX2GDnf0Xso-2" edge="1">
          <mxGeometry relative="1" as="geometry" />
        </mxCell>
        <mxCell id="8vVyC6vUNvX2GDnf0Xso-3" value="GUI" style="html=1;whiteSpace=wrap;" parent="1" vertex="1">
          <mxGeometry x="13" y="140" width="110" height="50" as="geometry" />
        </mxCell>
        <mxCell id="8vVyC6vUNvX2GDnf0Xso-6" style="edgeStyle=orthogonalEdgeStyle;rounded=0;orthogonalLoop=1;jettySize=auto;html=1;exitX=1;exitY=0.5;exitDx=0;exitDy=0;entryX=0;entryY=0.5;entryDx=0;entryDy=0;endArrow=none;endFill=0;startArrow=diamond;startFill=0;endSize=0;startSize=20;" parent="1" source="8vVyC6vUNvX2GDnf0Xso-4" target="8vVyC6vUNvX2GDnf0Xso-5" edge="1">
          <mxGeometry relative="1" as="geometry" />
        </mxCell>
        <mxCell id="8vVyC6vUNvX2GDnf0Xso-68" value="1&lt;br&gt;" style="edgeLabel;html=1;align=center;verticalAlign=middle;resizable=0;points=[];" parent="8vVyC6vUNvX2GDnf0Xso-6" vertex="1" connectable="0">
          <mxGeometry x="0.7212" y="8" relative="1" as="geometry">
            <mxPoint as="offset" />
          </mxGeometry>
        </mxCell>
        <mxCell id="8vVyC6vUNvX2GDnf0Xso-17" style="edgeStyle=orthogonalEdgeStyle;rounded=0;orthogonalLoop=1;jettySize=auto;html=1;exitX=0.5;exitY=1;exitDx=0;exitDy=0;entryX=0.5;entryY=0;entryDx=0;entryDy=0;endArrow=none;endFill=0;startArrow=diamond;startFill=0;endSize=0;startSize=20;" parent="1" source="8vVyC6vUNvX2GDnf0Xso-4" target="8vVyC6vUNvX2GDnf0Xso-16" edge="1">
          <mxGeometry relative="1" as="geometry" />
        </mxCell>
        <mxCell id="8vVyC6vUNvX2GDnf0Xso-4" value="RuleBasedSystem" style="html=1;whiteSpace=wrap;" parent="1" vertex="1">
          <mxGeometry x="178" y="140" width="110" height="50" as="geometry" />
        </mxCell>
        <mxCell id="8vVyC6vUNvX2GDnf0Xso-9" style="edgeStyle=orthogonalEdgeStyle;rounded=0;orthogonalLoop=1;jettySize=auto;html=1;exitX=1;exitY=0.5;exitDx=0;exitDy=0;entryX=0;entryY=0.5;entryDx=0;entryDy=0;endArrow=none;endFill=0;startArrow=block;startFill=0;endSize=0;startSize=15;strokeWidth=1;" parent="1" source="8vVyC6vUNvX2GDnf0Xso-5" target="8vVyC6vUNvX2GDnf0Xso-7" edge="1">
          <mxGeometry relative="1" as="geometry" />
        </mxCell>
        <mxCell id="8vVyC6vUNvX2GDnf0Xso-10" style="edgeStyle=orthogonalEdgeStyle;rounded=0;orthogonalLoop=1;jettySize=auto;html=1;exitX=1;exitY=0.5;exitDx=0;exitDy=0;entryX=0;entryY=0.5;entryDx=0;entryDy=0;endArrow=none;endFill=0;startArrow=block;startFill=0;endSize=0;startSize=15;" parent="1" source="8vVyC6vUNvX2GDnf0Xso-5" target="8vVyC6vUNvX2GDnf0Xso-8" edge="1">
          <mxGeometry relative="1" as="geometry" />
        </mxCell>
        <mxCell id="8vVyC6vUNvX2GDnf0Xso-56" style="edgeStyle=orthogonalEdgeStyle;rounded=0;orthogonalLoop=1;jettySize=auto;html=1;exitX=1;exitY=0.5;exitDx=0;exitDy=0;entryX=0;entryY=0.5;entryDx=0;entryDy=0;endArrow=none;endFill=0;startArrow=block;startFill=0;endSize=0;startSize=15;" parent="1" source="8vVyC6vUNvX2GDnf0Xso-5" target="8vVyC6vUNvX2GDnf0Xso-12" edge="1">
          <mxGeometry relative="1" as="geometry" />
        </mxCell>
        <mxCell id="8vVyC6vUNvX2GDnf0Xso-5" value="&lt;i&gt;«abstract»&lt;br&gt;Arbiter&lt;/i&gt;" style="html=1;whiteSpace=wrap;" parent="1" vertex="1">
          <mxGeometry x="343" y="140" width="110" height="50" as="geometry" />
        </mxCell>
        <mxCell id="8vVyC6vUNvX2GDnf0Xso-7" value="Arbiter1" style="html=1;whiteSpace=wrap;" parent="1" vertex="1">
          <mxGeometry x="512.5" y="110" width="110" height="50" as="geometry" />
        </mxCell>
        <mxCell id="8vVyC6vUNvX2GDnf0Xso-8" value="Arbiter2" style="html=1;whiteSpace=wrap;" parent="1" vertex="1">
          <mxGeometry x="512.5" y="170" width="110" height="50" as="geometry" />
        </mxCell>
        <mxCell id="8vVyC6vUNvX2GDnf0Xso-12" value="..." style="text;html=1;strokeColor=none;fillColor=none;align=center;verticalAlign=middle;whiteSpace=wrap;rounded=0;fontStyle=1" parent="1" vertex="1">
          <mxGeometry x="512.5" y="230" width="35" height="30" as="geometry" />
        </mxCell>
        <mxCell id="8vVyC6vUNvX2GDnf0Xso-14" value="MVC architecture:&lt;br&gt;RuleBasedSystem = Model&lt;br&gt;GUI = View&lt;br&gt;EditorPlugin = Controller" style="shape=note;whiteSpace=wrap;html=1;backgroundOutline=1;darkOpacity=0.05;size=17;" parent="1" vertex="1">
          <mxGeometry x="248" y="30" width="155" height="100" as="geometry" />
        </mxCell>
        <mxCell id="8vVyC6vUNvX2GDnf0Xso-15" value="Strategy Pattern:&lt;br&gt;Arbiter defines a strategy for RuleBasedSystem" style="shape=note;whiteSpace=wrap;html=1;backgroundOutline=1;darkOpacity=0.05;size=23;" parent="1" vertex="1">
          <mxGeometry x="313" y="200" width="150" height="80" as="geometry" />
        </mxCell>
        <mxCell id="8vVyC6vUNvX2GDnf0Xso-22" style="edgeStyle=orthogonalEdgeStyle;rounded=0;orthogonalLoop=1;jettySize=auto;html=1;exitX=0.5;exitY=1;exitDx=0;exitDy=0;entryX=0.5;entryY=0;entryDx=0;entryDy=0;endArrow=none;endFill=0;startArrow=diamond;startFill=0;endSize=0;startSize=20;" parent="1" source="8vVyC6vUNvX2GDnf0Xso-16" target="8vVyC6vUNvX2GDnf0Xso-21" edge="1">
          <mxGeometry relative="1" as="geometry" />
        </mxCell>
        <mxCell id="8vVyC6vUNvX2GDnf0Xso-57" value="0..*" style="edgeLabel;html=1;align=center;verticalAlign=middle;resizable=0;points=[];" parent="8vVyC6vUNvX2GDnf0Xso-22" vertex="1" connectable="0">
          <mxGeometry x="0.5963" relative="1" as="geometry">
            <mxPoint x="13" as="offset" />
          </mxGeometry>
        </mxCell>
        <mxCell id="8vVyC6vUNvX2GDnf0Xso-16" value="RuleList" style="rounded=0;whiteSpace=wrap;html=1;" parent="1" vertex="1">
          <mxGeometry x="179.5" y="235" width="107" height="50" as="geometry" />
        </mxCell>
        <mxCell id="8vVyC6vUNvX2GDnf0Xso-19" style="edgeStyle=orthogonalEdgeStyle;rounded=0;orthogonalLoop=1;jettySize=auto;html=1;entryX=0;entryY=0.5;entryDx=0;entryDy=0;endSize=5;" parent="1" source="8vVyC6vUNvX2GDnf0Xso-18" target="8vVyC6vUNvX2GDnf0Xso-16" edge="1">
          <mxGeometry relative="1" as="geometry" />
        </mxCell>
        <mxCell id="8vVyC6vUNvX2GDnf0Xso-20" value="" style="edgeStyle=orthogonalEdgeStyle;rounded=0;orthogonalLoop=1;jettySize=auto;html=1;endSize=7;startSize=0;" parent="1" source="8vVyC6vUNvX2GDnf0Xso-18" target="8vVyC6vUNvX2GDnf0Xso-16" edge="1">
          <mxGeometry relative="1" as="geometry" />
        </mxCell>
        <mxCell id="8vVyC6vUNvX2GDnf0Xso-18" value="RuleSaverAndLoader" style="rounded=0;whiteSpace=wrap;html=1;" parent="1" vertex="1">
          <mxGeometry x="13" y="230" width="120" height="60" as="geometry" />
        </mxCell>
        <mxCell id="8vVyC6vUNvX2GDnf0Xso-44" style="edgeStyle=orthogonalEdgeStyle;rounded=0;orthogonalLoop=1;jettySize=auto;html=1;exitX=0;exitY=0.5;exitDx=0;exitDy=0;entryX=0.5;entryY=0;entryDx=0;entryDy=0;endArrow=none;endFill=0;startArrow=diamond;startFill=1;endSize=0;startSize=20;" parent="1" source="8vVyC6vUNvX2GDnf0Xso-21" target="8vVyC6vUNvX2GDnf0Xso-23" edge="1">
          <mxGeometry relative="1" as="geometry" />
        </mxCell>
        <mxCell id="8vVyC6vUNvX2GDnf0Xso-73" value="1&lt;br&gt;" style="edgeLabel;html=1;align=center;verticalAlign=middle;resizable=0;points=[];" parent="8vVyC6vUNvX2GDnf0Xso-44" vertex="1" connectable="0">
          <mxGeometry x="0.1695" y="2" relative="1" as="geometry">
            <mxPoint x="-21" y="8" as="offset" />
          </mxGeometry>
        </mxCell>
        <mxCell id="8vVyC6vUNvX2GDnf0Xso-72" style="edgeStyle=orthogonalEdgeStyle;rounded=0;orthogonalLoop=1;jettySize=auto;html=1;exitX=1;exitY=0.5;exitDx=0;exitDy=0;entryX=0;entryY=0.5;entryDx=0;entryDy=0;endArrow=none;endFill=0;startArrow=diamond;startFill=1;endSize=0;startSize=20;" parent="1" source="8vVyC6vUNvX2GDnf0Xso-21" target="8vVyC6vUNvX2GDnf0Xso-40" edge="1">
          <mxGeometry relative="1" as="geometry" />
        </mxCell>
        <mxCell id="8vVyC6vUNvX2GDnf0Xso-75" value="1..*" style="edgeLabel;html=1;align=center;verticalAlign=middle;resizable=0;points=[];" parent="8vVyC6vUNvX2GDnf0Xso-72" vertex="1" connectable="0">
          <mxGeometry x="0.164" y="-1" relative="1" as="geometry">
            <mxPoint x="29" y="-11" as="offset" />
          </mxGeometry>
        </mxCell>
        <mxCell id="8vVyC6vUNvX2GDnf0Xso-21" value="Rule" style="rounded=0;whiteSpace=wrap;html=1;" parent="1" vertex="1">
          <mxGeometry x="195.5" y="330" width="75" height="40" as="geometry" />
        </mxCell>
        <mxCell id="8vVyC6vUNvX2GDnf0Xso-34" style="edgeStyle=orthogonalEdgeStyle;rounded=0;orthogonalLoop=1;jettySize=auto;html=1;exitX=0.5;exitY=1;exitDx=0;exitDy=0;entryX=0.5;entryY=0;entryDx=0;entryDy=0;endArrow=none;endFill=0;startArrow=block;startFill=0;endSize=0;startSize=15;" parent="1" source="8vVyC6vUNvX2GDnf0Xso-23" target="8vVyC6vUNvX2GDnf0Xso-27" edge="1">
          <mxGeometry relative="1" as="geometry" />
        </mxCell>
        <mxCell id="8vVyC6vUNvX2GDnf0Xso-35" style="edgeStyle=orthogonalEdgeStyle;rounded=0;orthogonalLoop=1;jettySize=auto;html=1;exitX=0.5;exitY=1;exitDx=0;exitDy=0;entryX=0.5;entryY=0;entryDx=0;entryDy=0;endArrow=none;endFill=0;startArrow=block;startFill=0;endSize=0;startSize=15;" parent="1" source="8vVyC6vUNvX2GDnf0Xso-23" target="8vVyC6vUNvX2GDnf0Xso-28" edge="1">
          <mxGeometry relative="1" as="geometry" />
        </mxCell>
        <mxCell id="8vVyC6vUNvX2GDnf0Xso-23" value="&lt;i&gt;«abstract»&lt;br&gt;Match&lt;/i&gt;" style="html=1;whiteSpace=wrap;" parent="1" vertex="1">
          <mxGeometry x="73" y="370" width="110" height="50" as="geometry" />
        </mxCell>
        <mxCell id="8vVyC6vUNvX2GDnf0Xso-38" style="edgeStyle=orthogonalEdgeStyle;rounded=0;orthogonalLoop=1;jettySize=auto;html=1;exitX=0.75;exitY=0;exitDx=0;exitDy=0;entryX=1;entryY=0.5;entryDx=0;entryDy=0;endArrow=none;endFill=0;startArrow=diamond;startFill=0;endSize=0;startSize=20;" parent="1" source="8vVyC6vUNvX2GDnf0Xso-28" target="8vVyC6vUNvX2GDnf0Xso-23" edge="1">
          <mxGeometry relative="1" as="geometry" />
        </mxCell>
        <mxCell id="8vVyC6vUNvX2GDnf0Xso-39" value="Composite Pattern:&lt;br&gt;BooleanMatches are composed of Matches" style="shape=note;whiteSpace=wrap;html=1;backgroundOutline=1;darkOpacity=0.05;size=18;" parent="1" vertex="1">
          <mxGeometry x="233" y="380" width="150" height="80" as="geometry" />
        </mxCell>
        <mxCell id="8vVyC6vUNvX2GDnf0Xso-46" style="edgeStyle=orthogonalEdgeStyle;rounded=0;orthogonalLoop=1;jettySize=auto;html=1;exitX=0.5;exitY=1;exitDx=0;exitDy=0;entryX=0;entryY=0.5;entryDx=0;entryDy=0;endArrow=none;endFill=0;startArrow=block;startFill=0;endSize=0;startSize=15;" parent="1" source="8vVyC6vUNvX2GDnf0Xso-40" target="8vVyC6vUNvX2GDnf0Xso-42" edge="1">
          <mxGeometry relative="1" as="geometry" />
        </mxCell>
        <mxCell id="8vVyC6vUNvX2GDnf0Xso-47" style="edgeStyle=orthogonalEdgeStyle;rounded=0;orthogonalLoop=1;jettySize=auto;html=1;exitX=0.5;exitY=1;exitDx=0;exitDy=0;entryX=0;entryY=0.5;entryDx=0;entryDy=0;endArrow=none;endFill=0;startArrow=block;startFill=0;startSize=15;endSize=0;" parent="1" source="8vVyC6vUNvX2GDnf0Xso-40" target="8vVyC6vUNvX2GDnf0Xso-43" edge="1">
          <mxGeometry relative="1" as="geometry" />
        </mxCell>
        <mxCell id="8vVyC6vUNvX2GDnf0Xso-71" style="edgeStyle=orthogonalEdgeStyle;rounded=0;orthogonalLoop=1;jettySize=auto;html=1;exitX=0.5;exitY=1;exitDx=0;exitDy=0;entryX=0;entryY=0.5;entryDx=0;entryDy=0;endArrow=none;endFill=0;startArrow=block;startFill=0;endSize=0;startSize=15;" parent="1" source="8vVyC6vUNvX2GDnf0Xso-40" target="8vVyC6vUNvX2GDnf0Xso-70" edge="1">
          <mxGeometry relative="1" as="geometry" />
        </mxCell>
        <mxCell id="8vVyC6vUNvX2GDnf0Xso-40" value="&lt;i&gt;«abstract»&lt;br&gt;Ação&lt;/i&gt;" style="html=1;whiteSpace=wrap;" parent="1" vertex="1">
          <mxGeometry x="363" y="325" width="110" height="50" as="geometry" />
        </mxCell>
        <mxCell id="8vVyC6vUNvX2GDnf0Xso-41" value="Action is similar to Command Pattern" style="shape=note;whiteSpace=wrap;html=1;backgroundOutline=1;darkOpacity=0.05;size=23;" parent="1" vertex="1">
          <mxGeometry x="488" y="290" width="150" height="80" as="geometry" />
        </mxCell>
        <mxCell id="8vVyC6vUNvX2GDnf0Xso-42" value="Action1" style="html=1;whiteSpace=wrap;" parent="1" vertex="1">
          <mxGeometry x="438" y="400" width="110" height="50" as="geometry" />
        </mxCell>
        <mxCell id="8vVyC6vUNvX2GDnf0Xso-43" value="Action2" style="html=1;whiteSpace=wrap;" parent="1" vertex="1">
          <mxGeometry x="438" y="460" width="110" height="50" as="geometry" />
        </mxCell>
        <mxCell id="8vVyC6vUNvX2GDnf0Xso-51" style="edgeStyle=orthogonalEdgeStyle;rounded=0;orthogonalLoop=1;jettySize=auto;html=1;exitX=0.75;exitY=0;exitDx=0;exitDy=0;entryX=0.75;entryY=1;entryDx=0;entryDy=0;entryPerimeter=0;endSize=7;startSize=0;" parent="1" source="8vVyC6vUNvX2GDnf0Xso-2" target="8vVyC6vUNvX2GDnf0Xso-1" edge="1">
          <mxGeometry relative="1" as="geometry" />
        </mxCell>
        <mxCell id="8vVyC6vUNvX2GDnf0Xso-55" value="1&lt;br&gt;" style="text;html=1;align=center;verticalAlign=middle;resizable=0;points=[];autosize=1;strokeColor=none;fillColor=none;" parent="1" vertex="1">
          <mxGeometry x="223" y="210" width="30" height="30" as="geometry" />
        </mxCell>
        <mxCell id="8vVyC6vUNvX2GDnf0Xso-62" value="" style="group" parent="1" vertex="1" connectable="0">
          <mxGeometry x="133" y="470" width="110" height="115" as="geometry" />
        </mxCell>
        <mxCell id="8vVyC6vUNvX2GDnf0Xso-28" value="&lt;i&gt;«abstract»&lt;br&gt;BooleanMatch&lt;/i&gt;" style="html=1;whiteSpace=wrap;" parent="8vVyC6vUNvX2GDnf0Xso-62" vertex="1">
          <mxGeometry width="110" height="50" as="geometry" />
        </mxCell>
        <mxCell id="8vVyC6vUNvX2GDnf0Xso-32" value="..." style="text;html=1;strokeColor=none;fillColor=none;align=center;verticalAlign=middle;whiteSpace=wrap;rounded=0;fontStyle=1" parent="8vVyC6vUNvX2GDnf0Xso-62" vertex="1">
          <mxGeometry x="37.5" y="85" width="35" height="30" as="geometry" />
        </mxCell>
        <mxCell id="8vVyC6vUNvX2GDnf0Xso-33" style="edgeStyle=orthogonalEdgeStyle;rounded=0;orthogonalLoop=1;jettySize=auto;html=1;exitX=0.5;exitY=1;exitDx=0;exitDy=0;entryX=0.5;entryY=0;entryDx=0;entryDy=0;endArrow=none;endFill=0;startArrow=block;startFill=0;endSize=0;startSize=15;" parent="8vVyC6vUNvX2GDnf0Xso-62" source="8vVyC6vUNvX2GDnf0Xso-28" target="8vVyC6vUNvX2GDnf0Xso-32" edge="1">
          <mxGeometry relative="1" as="geometry" />
        </mxCell>
        <mxCell id="8vVyC6vUNvX2GDnf0Xso-69" value="" style="group" parent="1" vertex="1" connectable="0">
          <mxGeometry x="13" y="470" width="110" height="120" as="geometry" />
        </mxCell>
        <mxCell id="8vVyC6vUNvX2GDnf0Xso-27" value="&lt;i&gt;«abstract»&lt;br&gt;AtomicMatch&lt;/i&gt;" style="html=1;whiteSpace=wrap;" parent="8vVyC6vUNvX2GDnf0Xso-69" vertex="1">
          <mxGeometry width="110" height="50" as="geometry" />
        </mxCell>
        <mxCell id="8vVyC6vUNvX2GDnf0Xso-29" value="..." style="text;html=1;strokeColor=none;fillColor=none;align=center;verticalAlign=middle;whiteSpace=wrap;rounded=0;fontStyle=1" parent="8vVyC6vUNvX2GDnf0Xso-69" vertex="1">
          <mxGeometry x="37.5" y="90" width="35" height="30" as="geometry" />
        </mxCell>
        <mxCell id="8vVyC6vUNvX2GDnf0Xso-30" style="edgeStyle=orthogonalEdgeStyle;rounded=0;orthogonalLoop=1;jettySize=auto;html=1;exitX=0.5;exitY=1;exitDx=0;exitDy=0;endArrow=none;endFill=0;startArrow=block;startFill=0;startSize=15;endSize=0;" parent="8vVyC6vUNvX2GDnf0Xso-69" source="8vVyC6vUNvX2GDnf0Xso-27" target="8vVyC6vUNvX2GDnf0Xso-29" edge="1">
          <mxGeometry relative="1" as="geometry" />
        </mxCell>
        <mxCell id="8vVyC6vUNvX2GDnf0Xso-70" value="..." style="text;html=1;strokeColor=none;fillColor=none;align=center;verticalAlign=middle;whiteSpace=wrap;rounded=0;fontStyle=1" parent="1" vertex="1">
          <mxGeometry x="443" y="520" width="35" height="30" as="geometry" />
        </mxCell>
        <mxCell id="Pt83FY8GmYFkX7C_mq-5-1" value="&lt;h1&gt;Rule-Based Godot&lt;/h1&gt;&lt;p&gt;&lt;b&gt;&lt;font style=&quot;font-size: 14px;&quot;&gt;Simplified UML class diagram&lt;/font&gt;&lt;/b&gt;&lt;/p&gt;" style="text;html=1;strokeColor=none;fillColor=none;spacing=5;spacingTop=-20;whiteSpace=wrap;overflow=hidden;rounded=0;" parent="1" vertex="1">
          <mxGeometry x="420" y="10" width="220" height="70" as="geometry" />
        </mxCell>
      </root>
    </mxGraphModel>
  </diagram>
  <diagram name="UML_Classes_Complete" id="E1E7pc4UjZlJ9SQszIJn">
    <mxGraphModel dx="3222" dy="1718" grid="1" gridSize="10" guides="1" tooltips="1" connect="1" arrows="1" fold="1" page="1" pageScale="1" pageWidth="1000" pageHeight="1000" background="none" math="0" shadow="0">
      <root>
        <mxCell id="4DiZkXDaVToiSss9tpTr-0" />
        <mxCell id="4DiZkXDaVToiSss9tpTr-1" parent="4DiZkXDaVToiSss9tpTr-0" />
        <mxCell id="4DiZkXDaVToiSss9tpTr-2" style="edgeStyle=orthogonalEdgeStyle;rounded=0;orthogonalLoop=1;jettySize=auto;html=1;endSize=7;startSize=0;" parent="4DiZkXDaVToiSss9tpTr-1" source="4DiZkXDaVToiSss9tpTr-3" target="4DiZkXDaVToiSss9tpTr-6" edge="1">
          <mxGeometry relative="1" as="geometry">
            <Array as="points">
              <mxPoint x="-1630" y="-940" />
              <mxPoint x="-1630" y="-940" />
            </Array>
          </mxGeometry>
        </mxCell>
        <mxCell id="4DiZkXDaVToiSss9tpTr-3" value="Godot Editor" style="shape=folder;fontStyle=1;spacingTop=10;tabWidth=40;tabHeight=14;tabPosition=left;html=1;whiteSpace=wrap;" parent="4DiZkXDaVToiSss9tpTr-1" vertex="1">
          <mxGeometry x="-1660" y="-1000" width="110" height="50" as="geometry" />
        </mxCell>
        <mxCell id="WHeFWwxsDB-Jv_gfA51f-91" style="edgeStyle=orthogonalEdgeStyle;rounded=0;orthogonalLoop=1;jettySize=auto;html=1;endSize=7;" parent="4DiZkXDaVToiSss9tpTr-1" source="4DiZkXDaVToiSss9tpTr-6" target="YPQFNZs_0j9PVaxwOVgs-10" edge="1">
          <mxGeometry relative="1" as="geometry" />
        </mxCell>
        <mxCell id="WHeFWwxsDB-Jv_gfA51f-92" style="edgeStyle=orthogonalEdgeStyle;rounded=0;orthogonalLoop=1;jettySize=auto;html=1;endSize=7;" parent="4DiZkXDaVToiSss9tpTr-1" source="4DiZkXDaVToiSss9tpTr-6" target="YPQFNZs_0j9PVaxwOVgs-6" edge="1">
          <mxGeometry relative="1" as="geometry">
            <mxPoint x="-1840" y="-930" as="targetPoint" />
          </mxGeometry>
        </mxCell>
        <mxCell id="WHeFWwxsDB-Jv_gfA51f-93" style="edgeStyle=orthogonalEdgeStyle;rounded=0;orthogonalLoop=1;jettySize=auto;html=1;endSize=7;" parent="4DiZkXDaVToiSss9tpTr-1" source="4DiZkXDaVToiSss9tpTr-6" target="YPQFNZs_0j9PVaxwOVgs-2" edge="1">
          <mxGeometry relative="1" as="geometry" />
        </mxCell>
        <mxCell id="4DiZkXDaVToiSss9tpTr-6" value="EditorPlugin" style="html=1;whiteSpace=wrap;" parent="4DiZkXDaVToiSss9tpTr-1" vertex="1">
          <mxGeometry x="-1660" y="-930" width="110" height="50" as="geometry" />
        </mxCell>
        <mxCell id="4DiZkXDaVToiSss9tpTr-45" style="edgeStyle=orthogonalEdgeStyle;rounded=0;orthogonalLoop=1;jettySize=auto;html=1;endSize=7;startSize=0;" parent="4DiZkXDaVToiSss9tpTr-1" source="4DiZkXDaVToiSss9tpTr-6" target="4DiZkXDaVToiSss9tpTr-3" edge="1">
          <mxGeometry relative="1" as="geometry">
            <Array as="points">
              <mxPoint x="-1580" y="-940" />
              <mxPoint x="-1580" y="-940" />
            </Array>
          </mxGeometry>
        </mxCell>
        <mxCell id="4DiZkXDaVToiSss9tpTr-56" value="&lt;h1&gt;Rule-Based Godot&lt;/h1&gt;&lt;p&gt;&lt;b&gt;&lt;font style=&quot;font-size: 14px;&quot;&gt;Complete&lt;/font&gt;&lt;/b&gt;&lt;b style=&quot;background-color: initial;&quot;&gt;&lt;font style=&quot;font-size: 14px;&quot;&gt;&amp;nbsp;UML class diagram&lt;/font&gt;&lt;/b&gt;&lt;/p&gt;" style="text;html=1;strokeColor=none;fillColor=none;spacing=5;spacingTop=-20;whiteSpace=wrap;overflow=hidden;rounded=0;" parent="4DiZkXDaVToiSss9tpTr-1" vertex="1">
          <mxGeometry x="-1300" y="-980" width="220" height="70" as="geometry" />
        </mxCell>
        <mxCell id="WHeFWwxsDB-Jv_gfA51f-95" style="edgeStyle=orthogonalEdgeStyle;rounded=0;orthogonalLoop=1;jettySize=auto;html=1;endSize=7;" parent="4DiZkXDaVToiSss9tpTr-1" source="YPQFNZs_0j9PVaxwOVgs-2" target="YPQFNZs_0j9PVaxwOVgs-10" edge="1">
          <mxGeometry relative="1" as="geometry">
            <Array as="points">
              <mxPoint x="-1470" y="-820" />
              <mxPoint x="-1470" y="-820" />
            </Array>
          </mxGeometry>
        </mxCell>
        <mxCell id="YPQFNZs_0j9PVaxwOVgs-2" value="&lt;span style=&quot;font-weight: normal;&quot;&gt;EditorInspectorPlugin&lt;/span&gt;" style="swimlane;fontStyle=1;align=center;verticalAlign=top;childLayout=stackLayout;horizontal=1;startSize=26;horizontalStack=0;resizeParent=1;resizeParentMax=0;resizeLast=0;collapsible=1;marginBottom=0;whiteSpace=wrap;html=1;" parent="4DiZkXDaVToiSss9tpTr-1" vertex="1">
          <mxGeometry x="-1710" y="-860" width="210" height="110" as="geometry">
            <mxRectangle x="-120" y="240" width="150" height="30" as="alternateBounds" />
          </mxGeometry>
        </mxCell>
        <mxCell id="YPQFNZs_0j9PVaxwOVgs-3" value="- rules_editor_panel&lt;br&gt;- current_system_node" style="text;strokeColor=none;fillColor=none;align=left;verticalAlign=top;spacingLeft=4;spacingRight=4;overflow=hidden;rotatable=0;points=[[0,0.5],[1,0.5]];portConstraint=eastwest;whiteSpace=wrap;html=1;" parent="YPQFNZs_0j9PVaxwOVgs-2" vertex="1">
          <mxGeometry y="26" width="210" height="34" as="geometry" />
        </mxCell>
        <mxCell id="YPQFNZs_0j9PVaxwOVgs-4" value="" style="line;strokeWidth=1;fillColor=none;align=left;verticalAlign=middle;spacingTop=-1;spacingLeft=3;spacingRight=3;rotatable=0;labelPosition=right;points=[];portConstraint=eastwest;strokeColor=inherit;" parent="YPQFNZs_0j9PVaxwOVgs-2" vertex="1">
          <mxGeometry y="60" width="210" height="8" as="geometry" />
        </mxCell>
        <mxCell id="YPQFNZs_0j9PVaxwOVgs-5" value="+ set_rules_editor(panel, button)&lt;br&gt;- apply_current_rules(rules_string)" style="text;strokeColor=none;fillColor=none;align=left;verticalAlign=top;spacingLeft=4;spacingRight=4;overflow=hidden;rotatable=0;points=[[0,0.5],[1,0.5]];portConstraint=eastwest;whiteSpace=wrap;html=1;" parent="YPQFNZs_0j9PVaxwOVgs-2" vertex="1">
          <mxGeometry y="68" width="210" height="42" as="geometry" />
        </mxCell>
        <mxCell id="WHeFWwxsDB-Jv_gfA51f-96" style="edgeStyle=orthogonalEdgeStyle;rounded=0;orthogonalLoop=1;jettySize=auto;html=1;entryX=0.5;entryY=0;entryDx=0;entryDy=0;endSize=7;" parent="4DiZkXDaVToiSss9tpTr-1" source="YPQFNZs_0j9PVaxwOVgs-6" target="YPQFNZs_0j9PVaxwOVgs-14" edge="1">
          <mxGeometry relative="1" as="geometry" />
        </mxCell>
        <mxCell id="WHeFWwxsDB-Jv_gfA51f-171" style="edgeStyle=orthogonalEdgeStyle;rounded=0;orthogonalLoop=1;jettySize=auto;html=1;endSize=7;" parent="4DiZkXDaVToiSss9tpTr-1" source="YPQFNZs_0j9PVaxwOVgs-6" target="YPQFNZs_0j9PVaxwOVgs-2" edge="1">
          <mxGeometry relative="1" as="geometry">
            <Array as="points">
              <mxPoint x="-1730" y="-840" />
              <mxPoint x="-1730" y="-840" />
            </Array>
          </mxGeometry>
        </mxCell>
        <mxCell id="YPQFNZs_0j9PVaxwOVgs-6" value="&lt;span style=&quot;font-weight: normal;&quot;&gt;RulesEditorPanel&lt;/span&gt;" style="swimlane;fontStyle=1;align=center;verticalAlign=top;childLayout=stackLayout;horizontal=1;startSize=26;horizontalStack=0;resizeParent=1;resizeParentMax=0;resizeLast=0;collapsible=1;marginBottom=0;whiteSpace=wrap;html=1;" parent="4DiZkXDaVToiSss9tpTr-1" vertex="1">
          <mxGeometry x="-1920" y="-860" width="160" height="86" as="geometry" />
        </mxCell>
        <mxCell id="YPQFNZs_0j9PVaxwOVgs-7" value="- rule_db" style="text;strokeColor=none;fillColor=none;align=left;verticalAlign=top;spacingLeft=4;spacingRight=4;overflow=hidden;rotatable=0;points=[[0,0.5],[1,0.5]];portConstraint=eastwest;whiteSpace=wrap;html=1;" parent="YPQFNZs_0j9PVaxwOVgs-6" vertex="1">
          <mxGeometry y="26" width="160" height="26" as="geometry" />
        </mxCell>
        <mxCell id="YPQFNZs_0j9PVaxwOVgs-8" value="" style="line;strokeWidth=1;fillColor=none;align=left;verticalAlign=middle;spacingTop=-1;spacingLeft=3;spacingRight=3;rotatable=0;labelPosition=right;points=[];portConstraint=eastwest;strokeColor=inherit;" parent="YPQFNZs_0j9PVaxwOVgs-6" vertex="1">
          <mxGeometry y="52" width="160" height="8" as="geometry" />
        </mxCell>
        <mxCell id="YPQFNZs_0j9PVaxwOVgs-9" value="- apply_rules_string()" style="text;strokeColor=none;fillColor=none;align=left;verticalAlign=top;spacingLeft=4;spacingRight=4;overflow=hidden;rotatable=0;points=[[0,0.5],[1,0.5]];portConstraint=eastwest;whiteSpace=wrap;html=1;" parent="YPQFNZs_0j9PVaxwOVgs-6" vertex="1">
          <mxGeometry y="60" width="160" height="26" as="geometry" />
        </mxCell>
        <mxCell id="WHeFWwxsDB-Jv_gfA51f-97" style="edgeStyle=orthogonalEdgeStyle;rounded=0;orthogonalLoop=1;jettySize=auto;html=1;endArrow=none;endFill=0;startArrow=diamond;startFill=0;endSize=0;startSize=20;" parent="4DiZkXDaVToiSss9tpTr-1" source="YPQFNZs_0j9PVaxwOVgs-10" target="WHeFWwxsDB-Jv_gfA51f-81" edge="1">
          <mxGeometry relative="1" as="geometry">
            <Array as="points">
              <mxPoint x="-1320" y="-700" />
            </Array>
          </mxGeometry>
        </mxCell>
        <mxCell id="WHeFWwxsDB-Jv_gfA51f-99" style="edgeStyle=orthogonalEdgeStyle;rounded=0;orthogonalLoop=1;jettySize=auto;html=1;endArrow=none;endFill=0;startArrow=diamond;startFill=0;endSize=0;startSize=20;" parent="4DiZkXDaVToiSss9tpTr-1" source="YPQFNZs_0j9PVaxwOVgs-10" target="YPQFNZs_0j9PVaxwOVgs-23" edge="1">
          <mxGeometry relative="1" as="geometry">
            <Array as="points">
              <mxPoint x="-1320" y="-700" />
              <mxPoint x="-1320" y="-700" />
            </Array>
          </mxGeometry>
        </mxCell>
        <mxCell id="YPQFNZs_0j9PVaxwOVgs-10" value="RuleBasedSystem" style="swimlane;fontStyle=1;align=center;verticalAlign=top;childLayout=stackLayout;horizontal=1;startSize=26;horizontalStack=0;resizeParent=1;resizeParentMax=0;resizeLast=0;collapsible=1;marginBottom=0;whiteSpace=wrap;html=1;" parent="4DiZkXDaVToiSss9tpTr-1" vertex="1">
          <mxGeometry x="-1450" y="-860" width="210" height="130" as="geometry" />
        </mxCell>
        <mxCell id="YPQFNZs_0j9PVaxwOVgs-11" value="+ iteration_update: enum(EveryFrame, OnTimer, OnCall)&lt;br&gt;+ arbiter&lt;br&gt;+ rule_list" style="text;strokeColor=none;fillColor=none;align=left;verticalAlign=top;spacingLeft=4;spacingRight=4;overflow=hidden;rotatable=0;points=[[0,0.5],[1,0.5]];portConstraint=eastwest;whiteSpace=wrap;html=1;" parent="YPQFNZs_0j9PVaxwOVgs-10" vertex="1">
          <mxGeometry y="26" width="210" height="66" as="geometry" />
        </mxCell>
        <mxCell id="YPQFNZs_0j9PVaxwOVgs-12" value="" style="line;strokeWidth=1;fillColor=none;align=left;verticalAlign=middle;spacingTop=-1;spacingLeft=3;spacingRight=3;rotatable=0;labelPosition=right;points=[];portConstraint=eastwest;strokeColor=inherit;" parent="YPQFNZs_0j9PVaxwOVgs-10" vertex="1">
          <mxGeometry y="92" width="210" height="8" as="geometry" />
        </mxCell>
        <mxCell id="YPQFNZs_0j9PVaxwOVgs-13" value="+ iterate() -&amp;gt; Array" style="text;strokeColor=none;fillColor=none;align=left;verticalAlign=top;spacingLeft=4;spacingRight=4;overflow=hidden;rotatable=0;points=[[0,0.5],[1,0.5]];portConstraint=eastwest;whiteSpace=wrap;html=1;" parent="YPQFNZs_0j9PVaxwOVgs-10" vertex="1">
          <mxGeometry y="100" width="210" height="30" as="geometry" />
        </mxCell>
        <mxCell id="WHeFWwxsDB-Jv_gfA51f-160" style="edgeStyle=orthogonalEdgeStyle;rounded=0;orthogonalLoop=1;jettySize=auto;html=1;endSize=7;" parent="4DiZkXDaVToiSss9tpTr-1" source="YPQFNZs_0j9PVaxwOVgs-14" target="WHeFWwxsDB-Jv_gfA51f-62" edge="1">
          <mxGeometry relative="1" as="geometry">
            <Array as="points">
              <mxPoint x="-1840" y="-540" />
              <mxPoint x="-1160" y="-540" />
            </Array>
          </mxGeometry>
        </mxCell>
        <mxCell id="WHeFWwxsDB-Jv_gfA51f-161" style="edgeStyle=orthogonalEdgeStyle;rounded=0;orthogonalLoop=1;jettySize=auto;html=1;endSize=7;" parent="4DiZkXDaVToiSss9tpTr-1" source="YPQFNZs_0j9PVaxwOVgs-14" target="WHeFWwxsDB-Jv_gfA51f-2" edge="1">
          <mxGeometry relative="1" as="geometry">
            <Array as="points">
              <mxPoint x="-1840" y="-540" />
              <mxPoint x="-1360" y="-540" />
            </Array>
          </mxGeometry>
        </mxCell>
        <mxCell id="WHeFWwxsDB-Jv_gfA51f-165" style="edgeStyle=orthogonalEdgeStyle;rounded=0;orthogonalLoop=1;jettySize=auto;html=1;endSize=7;" parent="4DiZkXDaVToiSss9tpTr-1" source="YPQFNZs_0j9PVaxwOVgs-14" target="WHeFWwxsDB-Jv_gfA51f-11" edge="1">
          <mxGeometry relative="1" as="geometry">
            <Array as="points">
              <mxPoint x="-1840" y="-540" />
              <mxPoint x="-1610" y="-540" />
            </Array>
          </mxGeometry>
        </mxCell>
        <mxCell id="YPQFNZs_0j9PVaxwOVgs-14" value="RuleDB" style="swimlane;fontStyle=1;align=center;verticalAlign=top;childLayout=stackLayout;horizontal=1;startSize=26;horizontalStack=0;resizeParent=1;resizeParentMax=0;resizeLast=0;collapsible=1;marginBottom=0;whiteSpace=wrap;html=1;" parent="4DiZkXDaVToiSss9tpTr-1" vertex="1">
          <mxGeometry x="-1960" y="-712" width="240" height="150" as="geometry" />
        </mxCell>
        <mxCell id="YPQFNZs_0j9PVaxwOVgs-15" value="+ actions: Dictionary&lt;br&gt;+ matches: Dictionary" style="text;strokeColor=none;fillColor=none;align=left;verticalAlign=top;spacingLeft=4;spacingRight=4;overflow=hidden;rotatable=0;points=[[0,0.5],[1,0.5]];portConstraint=eastwest;whiteSpace=wrap;html=1;" parent="YPQFNZs_0j9PVaxwOVgs-14" vertex="1">
          <mxGeometry y="26" width="240" height="34" as="geometry" />
        </mxCell>
        <mxCell id="YPQFNZs_0j9PVaxwOVgs-16" value="" style="line;strokeWidth=1;fillColor=none;align=left;verticalAlign=middle;spacingTop=-1;spacingLeft=3;spacingRight=3;rotatable=0;labelPosition=right;points=[];portConstraint=eastwest;strokeColor=inherit;" parent="YPQFNZs_0j9PVaxwOVgs-14" vertex="1">
          <mxGeometry y="60" width="240" height="8" as="geometry" />
        </mxCell>
        <mxCell id="YPQFNZs_0j9PVaxwOVgs-17" value="+ match_from_json(json_repr) -&amp;gt; AbstractMatch&lt;br&gt;+ action_from_json(json_repr) -&amp;gt; AbstractAction&lt;br&gt;+ rule_from_json(json_repr) -&amp;gt; Rule" style="text;strokeColor=none;fillColor=none;align=left;verticalAlign=top;spacingLeft=4;spacingRight=4;overflow=hidden;rotatable=0;points=[[0,0.5],[1,0.5]];portConstraint=eastwest;whiteSpace=wrap;html=1;" parent="YPQFNZs_0j9PVaxwOVgs-14" vertex="1">
          <mxGeometry y="68" width="240" height="82" as="geometry" />
        </mxCell>
        <mxCell id="WHeFWwxsDB-Jv_gfA51f-104" style="edgeStyle=orthogonalEdgeStyle;rounded=0;orthogonalLoop=1;jettySize=auto;html=1;endArrow=none;endFill=0;startArrow=diamond;startFill=0;startSize=20;endSize=0;" parent="4DiZkXDaVToiSss9tpTr-1" source="YPQFNZs_0j9PVaxwOVgs-23" target="WHeFWwxsDB-Jv_gfA51f-2" edge="1">
          <mxGeometry relative="1" as="geometry">
            <Array as="points">
              <mxPoint x="-1325" y="-540" />
              <mxPoint x="-1325" y="-540" />
            </Array>
          </mxGeometry>
        </mxCell>
        <mxCell id="YPQFNZs_0j9PVaxwOVgs-23" value="RuleList" style="swimlane;fontStyle=1;align=center;verticalAlign=top;childLayout=stackLayout;horizontal=1;startSize=26;horizontalStack=0;resizeParent=1;resizeParentMax=0;resizeLast=0;collapsible=1;marginBottom=0;whiteSpace=wrap;html=1;" parent="4DiZkXDaVToiSss9tpTr-1" vertex="1">
          <mxGeometry x="-1420" y="-670" width="190" height="84" as="geometry" />
        </mxCell>
        <mxCell id="YPQFNZs_0j9PVaxwOVgs-24" value="+ rules: Array[Rule]" style="text;strokeColor=none;fillColor=none;align=left;verticalAlign=top;spacingLeft=4;spacingRight=4;overflow=hidden;rotatable=0;points=[[0,0.5],[1,0.5]];portConstraint=eastwest;whiteSpace=wrap;html=1;" parent="YPQFNZs_0j9PVaxwOVgs-23" vertex="1">
          <mxGeometry y="26" width="190" height="24" as="geometry" />
        </mxCell>
        <mxCell id="YPQFNZs_0j9PVaxwOVgs-25" value="" style="line;strokeWidth=1;fillColor=none;align=left;verticalAlign=middle;spacingTop=-1;spacingLeft=3;spacingRight=3;rotatable=0;labelPosition=right;points=[];portConstraint=eastwest;strokeColor=inherit;" parent="YPQFNZs_0j9PVaxwOVgs-23" vertex="1">
          <mxGeometry y="50" width="190" height="8" as="geometry" />
        </mxCell>
        <mxCell id="YPQFNZs_0j9PVaxwOVgs-26" value="+ satisfied_rules() -&amp;gt; Array[Rule]" style="text;strokeColor=none;fillColor=none;align=left;verticalAlign=top;spacingLeft=4;spacingRight=4;overflow=hidden;rotatable=0;points=[[0,0.5],[1,0.5]];portConstraint=eastwest;whiteSpace=wrap;html=1;" parent="YPQFNZs_0j9PVaxwOVgs-23" vertex="1">
          <mxGeometry y="58" width="190" height="26" as="geometry" />
        </mxCell>
        <mxCell id="WHeFWwxsDB-Jv_gfA51f-0" value="RulesFormatSaver" style="html=1;whiteSpace=wrap;fontStyle=1" parent="4DiZkXDaVToiSss9tpTr-1" vertex="1">
          <mxGeometry x="-1200" y="-660" width="120" height="33" as="geometry" />
        </mxCell>
        <mxCell id="WHeFWwxsDB-Jv_gfA51f-1" value="RulesFormatLoader" style="html=1;whiteSpace=wrap;fontStyle=1" parent="4DiZkXDaVToiSss9tpTr-1" vertex="1">
          <mxGeometry x="-1200" y="-610" width="120" height="30" as="geometry" />
        </mxCell>
        <mxCell id="WHeFWwxsDB-Jv_gfA51f-2" value="Rule" style="swimlane;fontStyle=1;align=center;verticalAlign=top;childLayout=stackLayout;horizontal=1;startSize=26;horizontalStack=0;resizeParent=1;resizeParentMax=0;resizeLast=0;collapsible=1;marginBottom=0;whiteSpace=wrap;html=1;" parent="4DiZkXDaVToiSss9tpTr-1" vertex="1">
          <mxGeometry x="-1410" y="-520" width="170" height="130" as="geometry">
            <mxRectangle x="290" y="380" width="70" height="30" as="alternateBounds" />
          </mxGeometry>
        </mxCell>
        <mxCell id="WHeFWwxsDB-Jv_gfA51f-3" value="+ condition&lt;br&gt;+ actions&lt;br&gt;- bindings: Dictionary" style="text;strokeColor=none;fillColor=none;align=left;verticalAlign=top;spacingLeft=4;spacingRight=4;overflow=hidden;rotatable=0;points=[[0,0.5],[1,0.5]];portConstraint=eastwest;whiteSpace=wrap;html=1;" parent="WHeFWwxsDB-Jv_gfA51f-2" vertex="1">
          <mxGeometry y="26" width="170" height="54" as="geometry" />
        </mxCell>
        <mxCell id="WHeFWwxsDB-Jv_gfA51f-4" value="" style="line;strokeWidth=1;fillColor=none;align=left;verticalAlign=middle;spacingTop=-1;spacingLeft=3;spacingRight=3;rotatable=0;labelPosition=right;points=[];portConstraint=eastwest;strokeColor=inherit;" parent="WHeFWwxsDB-Jv_gfA51f-2" vertex="1">
          <mxGeometry y="80" width="170" height="8" as="geometry" />
        </mxCell>
        <mxCell id="WHeFWwxsDB-Jv_gfA51f-5" value="+ condition_satisfied() -&amp;gt; bool&lt;br&gt;+ trigger_actions() -&amp;gt; Array" style="text;strokeColor=none;fillColor=none;align=left;verticalAlign=top;spacingLeft=4;spacingRight=4;overflow=hidden;rotatable=0;points=[[0,0.5],[1,0.5]];portConstraint=eastwest;whiteSpace=wrap;html=1;" parent="WHeFWwxsDB-Jv_gfA51f-2" vertex="1">
          <mxGeometry y="88" width="170" height="42" as="geometry" />
        </mxCell>
        <mxCell id="WHeFWwxsDB-Jv_gfA51f-122" style="edgeStyle=orthogonalEdgeStyle;rounded=0;orthogonalLoop=1;jettySize=auto;html=1;endArrow=none;endFill=0;startArrow=block;startFill=0;startSize=15;" parent="4DiZkXDaVToiSss9tpTr-1" source="WHeFWwxsDB-Jv_gfA51f-11" target="WHeFWwxsDB-Jv_gfA51f-19" edge="1">
          <mxGeometry relative="1" as="geometry">
            <Array as="points">
              <mxPoint x="-1565" y="-430" />
            </Array>
          </mxGeometry>
        </mxCell>
        <mxCell id="WHeFWwxsDB-Jv_gfA51f-125" style="edgeStyle=orthogonalEdgeStyle;rounded=0;orthogonalLoop=1;jettySize=auto;html=1;entryX=0.5;entryY=0;entryDx=0;entryDy=0;endArrow=none;endFill=0;startArrow=block;startFill=0;startSize=15;" parent="4DiZkXDaVToiSss9tpTr-1" source="WHeFWwxsDB-Jv_gfA51f-11" target="WHeFWwxsDB-Jv_gfA51f-15" edge="1">
          <mxGeometry relative="1" as="geometry" />
        </mxCell>
        <mxCell id="WHeFWwxsDB-Jv_gfA51f-126" style="edgeStyle=orthogonalEdgeStyle;rounded=0;orthogonalLoop=1;jettySize=auto;html=1;elbow=vertical;endArrow=none;endFill=0;startArrow=block;startFill=0;startSize=15;" parent="4DiZkXDaVToiSss9tpTr-1" source="WHeFWwxsDB-Jv_gfA51f-11" target="WHeFWwxsDB-Jv_gfA51f-33" edge="1">
          <mxGeometry relative="1" as="geometry">
            <Array as="points">
              <mxPoint x="-1565" y="-430" />
              <mxPoint x="-1670" y="-430" />
              <mxPoint x="-1670" y="-380" />
              <mxPoint x="-1810" y="-380" />
              <mxPoint x="-1810" y="-420" />
            </Array>
          </mxGeometry>
        </mxCell>
        <mxCell id="WHeFWwxsDB-Jv_gfA51f-11" value="&lt;i&gt;&lt;span style=&quot;font-weight: normal;&quot;&gt;«abstract»&lt;/span&gt;&lt;span style=&quot;font-weight: normal;&quot;&gt;&lt;br&gt;AbstractMatch&lt;/span&gt;&lt;/i&gt;" style="swimlane;fontStyle=1;align=center;verticalAlign=top;childLayout=stackLayout;horizontal=1;startSize=40;horizontalStack=0;resizeParent=1;resizeParentMax=0;resizeLast=0;collapsible=1;marginBottom=0;whiteSpace=wrap;html=1;" parent="4DiZkXDaVToiSss9tpTr-1" vertex="1">
          <mxGeometry x="-1655" y="-520" width="180" height="66" as="geometry" />
        </mxCell>
        <mxCell id="WHeFWwxsDB-Jv_gfA51f-14" value="+ is_satisfied(bindings) -&amp;gt; bool" style="text;strokeColor=none;fillColor=none;align=left;verticalAlign=top;spacingLeft=4;spacingRight=4;overflow=hidden;rotatable=0;points=[[0,0.5],[1,0.5]];portConstraint=eastwest;whiteSpace=wrap;html=1;" parent="WHeFWwxsDB-Jv_gfA51f-11" vertex="1">
          <mxGeometry y="40" width="180" height="26" as="geometry" />
        </mxCell>
        <mxCell id="WHeFWwxsDB-Jv_gfA51f-145" style="edgeStyle=orthogonalEdgeStyle;rounded=0;orthogonalLoop=1;jettySize=auto;html=1;endArrow=none;endFill=0;startArrow=block;startFill=0;startSize=15;" parent="4DiZkXDaVToiSss9tpTr-1" source="WHeFWwxsDB-Jv_gfA51f-15" target="WHeFWwxsDB-Jv_gfA51f-47" edge="1">
          <mxGeometry relative="1" as="geometry">
            <Array as="points">
              <mxPoint x="-1440" y="-220" />
              <mxPoint x="-1440" y="-305" />
            </Array>
          </mxGeometry>
        </mxCell>
        <mxCell id="WHeFWwxsDB-Jv_gfA51f-146" style="edgeStyle=orthogonalEdgeStyle;rounded=0;orthogonalLoop=1;jettySize=auto;html=1;endArrow=none;endFill=0;startArrow=block;startFill=0;startSize=15;" parent="4DiZkXDaVToiSss9tpTr-1" source="WHeFWwxsDB-Jv_gfA51f-15" target="WHeFWwxsDB-Jv_gfA51f-39" edge="1">
          <mxGeometry relative="1" as="geometry">
            <Array as="points">
              <mxPoint x="-1450" y="-220" />
              <mxPoint x="-1450" y="-220" />
            </Array>
          </mxGeometry>
        </mxCell>
        <mxCell id="WHeFWwxsDB-Jv_gfA51f-147" style="edgeStyle=orthogonalEdgeStyle;rounded=0;orthogonalLoop=1;jettySize=auto;html=1;endArrow=none;endFill=0;startArrow=block;startFill=0;endSize=11;startSize=15;" parent="4DiZkXDaVToiSss9tpTr-1" source="WHeFWwxsDB-Jv_gfA51f-15" target="WHeFWwxsDB-Jv_gfA51f-43" edge="1">
          <mxGeometry relative="1" as="geometry">
            <Array as="points">
              <mxPoint x="-1440" y="-220" />
              <mxPoint x="-1440" y="-118" />
            </Array>
          </mxGeometry>
        </mxCell>
        <mxCell id="WHeFWwxsDB-Jv_gfA51f-148" style="edgeStyle=orthogonalEdgeStyle;rounded=0;orthogonalLoop=1;jettySize=auto;html=1;endArrow=none;endFill=0;startArrow=block;startFill=0;endSize=10;startSize=15;" parent="4DiZkXDaVToiSss9tpTr-1" source="WHeFWwxsDB-Jv_gfA51f-15" target="WHeFWwxsDB-Jv_gfA51f-56" edge="1">
          <mxGeometry relative="1" as="geometry">
            <Array as="points">
              <mxPoint x="-1690" y="-225" />
              <mxPoint x="-1690" y="-290" />
            </Array>
          </mxGeometry>
        </mxCell>
        <mxCell id="WHeFWwxsDB-Jv_gfA51f-149" style="edgeStyle=orthogonalEdgeStyle;rounded=0;orthogonalLoop=1;jettySize=auto;html=1;endArrow=none;endFill=0;startArrow=block;startFill=0;startSize=15;" parent="4DiZkXDaVToiSss9tpTr-1" source="WHeFWwxsDB-Jv_gfA51f-15" target="WHeFWwxsDB-Jv_gfA51f-52" edge="1">
          <mxGeometry relative="1" as="geometry">
            <Array as="points">
              <mxPoint x="-1690" y="-225" />
              <mxPoint x="-1690" y="-170" />
            </Array>
          </mxGeometry>
        </mxCell>
        <mxCell id="WHeFWwxsDB-Jv_gfA51f-15" value="&lt;i&gt;&lt;span style=&quot;font-weight: normal;&quot;&gt;«abstract&lt;/span&gt;&lt;span style=&quot;font-weight: 400;&quot;&gt;»&lt;/span&gt;&lt;/i&gt;&lt;span style=&quot;font-weight: normal;&quot;&gt;&lt;i&gt;&lt;br&gt;AbstractAtomicMatch&lt;br&gt;&lt;/i&gt;&lt;/span&gt;" style="swimlane;fontStyle=1;align=center;verticalAlign=top;childLayout=stackLayout;horizontal=1;startSize=35;horizontalStack=0;resizeParent=1;resizeParentMax=0;resizeLast=0;collapsible=1;marginBottom=0;whiteSpace=wrap;html=1;swimlaneLine=1;" parent="4DiZkXDaVToiSss9tpTr-1" vertex="1">
          <mxGeometry x="-1660" y="-390" width="190" height="190" as="geometry">
            <mxRectangle x="-40" y="650" width="150" height="40" as="alternateBounds" />
          </mxGeometry>
        </mxCell>
        <mxCell id="WHeFWwxsDB-Jv_gfA51f-16" value="+ tester_node&lt;br&gt;+ data_variable&lt;br&gt;+ data_extraction" style="text;strokeColor=none;fillColor=none;align=left;verticalAlign=top;spacingLeft=4;spacingRight=4;overflow=hidden;rotatable=0;points=[[0,0.5],[1,0.5]];portConstraint=eastwest;whiteSpace=wrap;html=1;" parent="WHeFWwxsDB-Jv_gfA51f-15" vertex="1">
          <mxGeometry y="35" width="190" height="55" as="geometry" />
        </mxCell>
        <mxCell id="WHeFWwxsDB-Jv_gfA51f-17" value="" style="line;strokeWidth=1;fillColor=none;align=left;verticalAlign=middle;spacingTop=-1;spacingLeft=3;spacingRight=3;rotatable=0;labelPosition=right;points=[];portConstraint=eastwest;strokeColor=inherit;" parent="WHeFWwxsDB-Jv_gfA51f-15" vertex="1">
          <mxGeometry y="90" width="190" height="8" as="geometry" />
        </mxCell>
        <mxCell id="WHeFWwxsDB-Jv_gfA51f-18" value="- get_candidates() -&amp;gt; Array[Node]&lt;br&gt;- node_satisfies_match(node, bindings) -&amp;gt; bool&lt;br&gt;- get_data(node) -&amp;gt; Variant&lt;br&gt;- data_satisfies_match(data) -&amp;gt; bool" style="text;strokeColor=none;fillColor=none;align=left;verticalAlign=top;spacingLeft=4;spacingRight=4;overflow=hidden;rotatable=0;points=[[0,0.5],[1,0.5]];portConstraint=eastwest;whiteSpace=wrap;html=1;" parent="WHeFWwxsDB-Jv_gfA51f-15" vertex="1">
          <mxGeometry y="98" width="190" height="92" as="geometry" />
        </mxCell>
        <mxCell id="WHeFWwxsDB-Jv_gfA51f-123" style="edgeStyle=orthogonalEdgeStyle;rounded=0;orthogonalLoop=1;jettySize=auto;html=1;endArrow=none;endFill=0;startArrow=diamond;startFill=0;startSize=20;" parent="4DiZkXDaVToiSss9tpTr-1" source="WHeFWwxsDB-Jv_gfA51f-19" edge="1">
          <mxGeometry relative="1" as="geometry">
            <mxPoint x="-1655" y="-472" as="targetPoint" />
            <Array as="points">
              <mxPoint x="-1710" y="-472" />
            </Array>
          </mxGeometry>
        </mxCell>
        <mxCell id="WHeFWwxsDB-Jv_gfA51f-19" value="NOTMatch" style="swimlane;fontStyle=1;align=center;verticalAlign=top;childLayout=stackLayout;horizontal=1;startSize=26;horizontalStack=0;resizeParent=1;resizeParentMax=0;resizeLast=0;collapsible=1;marginBottom=0;whiteSpace=wrap;html=1;" parent="4DiZkXDaVToiSss9tpTr-1" vertex="1">
          <mxGeometry x="-1800" y="-442" width="120" height="52" as="geometry" />
        </mxCell>
        <mxCell id="WHeFWwxsDB-Jv_gfA51f-20" value="+ negated_condition" style="text;strokeColor=none;fillColor=none;align=left;verticalAlign=top;spacingLeft=4;spacingRight=4;overflow=hidden;rotatable=0;points=[[0,0.5],[1,0.5]];portConstraint=eastwest;whiteSpace=wrap;html=1;" parent="WHeFWwxsDB-Jv_gfA51f-19" vertex="1">
          <mxGeometry y="26" width="120" height="26" as="geometry" />
        </mxCell>
        <mxCell id="WHeFWwxsDB-Jv_gfA51f-124" style="edgeStyle=orthogonalEdgeStyle;rounded=0;orthogonalLoop=1;jettySize=auto;html=1;endArrow=none;endFill=0;startArrow=diamond;startFill=0;startSize=20;" parent="4DiZkXDaVToiSss9tpTr-1" source="WHeFWwxsDB-Jv_gfA51f-33" target="WHeFWwxsDB-Jv_gfA51f-11" edge="1">
          <mxGeometry relative="1" as="geometry">
            <Array as="points">
              <mxPoint x="-1850" y="-490" />
            </Array>
          </mxGeometry>
        </mxCell>
        <mxCell id="WHeFWwxsDB-Jv_gfA51f-151" style="edgeStyle=orthogonalEdgeStyle;rounded=0;orthogonalLoop=1;jettySize=auto;html=1;endArrow=none;endFill=0;startArrow=block;startFill=0;startSize=15;" parent="4DiZkXDaVToiSss9tpTr-1" source="WHeFWwxsDB-Jv_gfA51f-33" target="WHeFWwxsDB-Jv_gfA51f-37" edge="1">
          <mxGeometry relative="1" as="geometry">
            <Array as="points">
              <mxPoint x="-1950" y="-355" />
            </Array>
          </mxGeometry>
        </mxCell>
        <mxCell id="WHeFWwxsDB-Jv_gfA51f-153" style="edgeStyle=orthogonalEdgeStyle;rounded=0;orthogonalLoop=1;jettySize=auto;html=1;endArrow=none;endFill=0;startArrow=block;startFill=0;startSize=15;" parent="4DiZkXDaVToiSss9tpTr-1" source="WHeFWwxsDB-Jv_gfA51f-33" target="WHeFWwxsDB-Jv_gfA51f-38" edge="1">
          <mxGeometry relative="1" as="geometry">
            <Array as="points">
              <mxPoint x="-1950" y="-315" />
            </Array>
          </mxGeometry>
        </mxCell>
        <mxCell id="WHeFWwxsDB-Jv_gfA51f-33" value="&lt;span style=&quot;font-weight: normal;&quot;&gt;&lt;i&gt;«abstract»&lt;/i&gt;&lt;br&gt;&lt;i&gt;AbstractBooleanMatch&lt;/i&gt;&lt;br&gt;&lt;/span&gt;" style="swimlane;fontStyle=1;align=center;verticalAlign=top;childLayout=stackLayout;horizontal=1;startSize=35;horizontalStack=0;resizeParent=1;resizeParentMax=0;resizeLast=0;collapsible=1;marginBottom=0;whiteSpace=wrap;html=1;swimlaneLine=1;" parent="4DiZkXDaVToiSss9tpTr-1" vertex="1">
          <mxGeometry x="-1960" y="-442" width="140" height="60" as="geometry">
            <mxRectangle x="-40" y="650" width="150" height="40" as="alternateBounds" />
          </mxGeometry>
        </mxCell>
        <mxCell id="WHeFWwxsDB-Jv_gfA51f-34" value="+ subconditions" style="text;strokeColor=none;fillColor=none;align=left;verticalAlign=top;spacingLeft=4;spacingRight=4;overflow=hidden;rotatable=0;points=[[0,0.5],[1,0.5]];portConstraint=eastwest;whiteSpace=wrap;html=1;" parent="WHeFWwxsDB-Jv_gfA51f-33" vertex="1">
          <mxGeometry y="35" width="140" height="25" as="geometry" />
        </mxCell>
        <mxCell id="WHeFWwxsDB-Jv_gfA51f-37" value="&lt;b&gt;ANDMatch&lt;/b&gt;" style="html=1;whiteSpace=wrap;" parent="4DiZkXDaVToiSss9tpTr-1" vertex="1">
          <mxGeometry x="-1930" y="-370" width="80" height="30" as="geometry" />
        </mxCell>
        <mxCell id="WHeFWwxsDB-Jv_gfA51f-38" value="&lt;b&gt;ORMatch&lt;/b&gt;" style="html=1;whiteSpace=wrap;" parent="4DiZkXDaVToiSss9tpTr-1" vertex="1">
          <mxGeometry x="-1930" y="-330" width="80" height="30" as="geometry" />
        </mxCell>
        <mxCell id="WHeFWwxsDB-Jv_gfA51f-39" value="&lt;b&gt;AreaDetectionMatch&lt;/b&gt;" style="swimlane;fontStyle=0;childLayout=stackLayout;horizontal=1;startSize=26;fillColor=none;horizontalStack=0;resizeParent=1;resizeParentMax=0;resizeLast=0;collapsible=1;marginBottom=0;whiteSpace=wrap;html=1;" parent="4DiZkXDaVToiSss9tpTr-1" vertex="1">
          <mxGeometry x="-1430" y="-240" width="140" height="52" as="geometry" />
        </mxCell>
        <mxCell id="WHeFWwxsDB-Jv_gfA51f-40" value="+ area_path" style="text;strokeColor=none;fillColor=none;align=left;verticalAlign=top;spacingLeft=4;spacingRight=4;overflow=hidden;rotatable=0;points=[[0,0.5],[1,0.5]];portConstraint=eastwest;whiteSpace=wrap;html=1;" parent="WHeFWwxsDB-Jv_gfA51f-39" vertex="1">
          <mxGeometry y="26" width="140" height="26" as="geometry" />
        </mxCell>
        <mxCell id="WHeFWwxsDB-Jv_gfA51f-43" value="&lt;b&gt;DistanceMatch&lt;br&gt;&lt;/b&gt;" style="swimlane;fontStyle=0;childLayout=stackLayout;horizontal=1;startSize=26;fillColor=none;horizontalStack=0;resizeParent=1;resizeParentMax=0;resizeLast=0;collapsible=1;marginBottom=0;whiteSpace=wrap;html=1;" parent="4DiZkXDaVToiSss9tpTr-1" vertex="1">
          <mxGeometry x="-1430" y="-170" width="140" height="104" as="geometry" />
        </mxCell>
        <mxCell id="WHeFWwxsDB-Jv_gfA51f-44" value="+ source_path" style="text;strokeColor=none;fillColor=none;align=left;verticalAlign=top;spacingLeft=4;spacingRight=4;overflow=hidden;rotatable=0;points=[[0,0.5],[1,0.5]];portConstraint=eastwest;whiteSpace=wrap;html=1;" parent="WHeFWwxsDB-Jv_gfA51f-43" vertex="1">
          <mxGeometry y="26" width="140" height="26" as="geometry" />
        </mxCell>
        <mxCell id="WHeFWwxsDB-Jv_gfA51f-45" value="+ min_distance" style="text;strokeColor=none;fillColor=none;align=left;verticalAlign=top;spacingLeft=4;spacingRight=4;overflow=hidden;rotatable=0;points=[[0,0.5],[1,0.5]];portConstraint=eastwest;whiteSpace=wrap;html=1;" parent="WHeFWwxsDB-Jv_gfA51f-43" vertex="1">
          <mxGeometry y="52" width="140" height="26" as="geometry" />
        </mxCell>
        <mxCell id="WHeFWwxsDB-Jv_gfA51f-46" value="+ max_distance" style="text;strokeColor=none;fillColor=none;align=left;verticalAlign=top;spacingLeft=4;spacingRight=4;overflow=hidden;rotatable=0;points=[[0,0.5],[1,0.5]];portConstraint=eastwest;whiteSpace=wrap;html=1;" parent="WHeFWwxsDB-Jv_gfA51f-43" vertex="1">
          <mxGeometry y="78" width="140" height="26" as="geometry" />
        </mxCell>
        <mxCell id="WHeFWwxsDB-Jv_gfA51f-47" value="&lt;b&gt;HierarchyMatch&lt;/b&gt;" style="swimlane;fontStyle=0;childLayout=stackLayout;horizontal=1;startSize=26;fillColor=none;horizontalStack=0;resizeParent=1;resizeParentMax=0;resizeLast=0;collapsible=1;marginBottom=0;whiteSpace=wrap;html=1;" parent="4DiZkXDaVToiSss9tpTr-1" vertex="1">
          <mxGeometry x="-1430" y="-350" width="140" height="90" as="geometry" />
        </mxCell>
        <mxCell id="WHeFWwxsDB-Jv_gfA51f-48" value="+ source_path" style="text;strokeColor=none;fillColor=none;align=left;verticalAlign=top;spacingLeft=4;spacingRight=4;overflow=hidden;rotatable=0;points=[[0,0.5],[1,0.5]];portConstraint=eastwest;whiteSpace=wrap;html=1;" parent="WHeFWwxsDB-Jv_gfA51f-47" vertex="1">
          <mxGeometry y="26" width="140" height="26" as="geometry" />
        </mxCell>
        <mxCell id="WHeFWwxsDB-Jv_gfA51f-49" value="+ relation: enum(Parent of, Sibling of, Child of)" style="text;strokeColor=none;fillColor=none;align=left;verticalAlign=top;spacingLeft=4;spacingRight=4;overflow=hidden;rotatable=0;points=[[0,0.5],[1,0.5]];portConstraint=eastwest;whiteSpace=wrap;html=1;" parent="WHeFWwxsDB-Jv_gfA51f-47" vertex="1">
          <mxGeometry y="52" width="140" height="38" as="geometry" />
        </mxCell>
        <mxCell id="WHeFWwxsDB-Jv_gfA51f-52" value="&lt;b&gt;NumericMatch&lt;/b&gt;" style="swimlane;fontStyle=0;childLayout=stackLayout;horizontal=1;startSize=26;fillColor=none;horizontalStack=0;resizeParent=1;resizeParentMax=0;resizeLast=0;collapsible=1;marginBottom=0;whiteSpace=wrap;html=1;" parent="4DiZkXDaVToiSss9tpTr-1" vertex="1">
          <mxGeometry x="-1800" y="-210" width="100" height="78" as="geometry" />
        </mxCell>
        <mxCell id="WHeFWwxsDB-Jv_gfA51f-53" value="+ min_value" style="text;strokeColor=none;fillColor=none;align=left;verticalAlign=top;spacingLeft=4;spacingRight=4;overflow=hidden;rotatable=0;points=[[0,0.5],[1,0.5]];portConstraint=eastwest;whiteSpace=wrap;html=1;" parent="WHeFWwxsDB-Jv_gfA51f-52" vertex="1">
          <mxGeometry y="26" width="100" height="26" as="geometry" />
        </mxCell>
        <mxCell id="WHeFWwxsDB-Jv_gfA51f-54" value="+ max_value&lt;br&gt;" style="text;strokeColor=none;fillColor=none;align=left;verticalAlign=top;spacingLeft=4;spacingRight=4;overflow=hidden;rotatable=0;points=[[0,0.5],[1,0.5]];portConstraint=eastwest;whiteSpace=wrap;html=1;" parent="WHeFWwxsDB-Jv_gfA51f-52" vertex="1">
          <mxGeometry y="52" width="100" height="26" as="geometry" />
        </mxCell>
        <mxCell id="WHeFWwxsDB-Jv_gfA51f-56" value="&lt;b&gt;StringMatch&lt;/b&gt;" style="swimlane;fontStyle=0;childLayout=stackLayout;horizontal=1;startSize=26;fillColor=none;horizontalStack=0;resizeParent=1;resizeParentMax=0;resizeLast=0;collapsible=1;marginBottom=0;whiteSpace=wrap;html=1;" parent="4DiZkXDaVToiSss9tpTr-1" vertex="1">
          <mxGeometry x="-1800" y="-303" width="100" height="52" as="geometry" />
        </mxCell>
        <mxCell id="WHeFWwxsDB-Jv_gfA51f-57" value="+ string_value" style="text;strokeColor=none;fillColor=none;align=left;verticalAlign=top;spacingLeft=4;spacingRight=4;overflow=hidden;rotatable=0;points=[[0,0.5],[1,0.5]];portConstraint=eastwest;whiteSpace=wrap;html=1;" parent="WHeFWwxsDB-Jv_gfA51f-56" vertex="1">
          <mxGeometry y="26" width="100" height="26" as="geometry" />
        </mxCell>
        <mxCell id="WHeFWwxsDB-Jv_gfA51f-142" style="edgeStyle=orthogonalEdgeStyle;rounded=0;orthogonalLoop=1;jettySize=auto;html=1;startArrow=block;startFill=0;startSize=15;endArrow=none;endFill=0;" parent="4DiZkXDaVToiSss9tpTr-1" source="WHeFWwxsDB-Jv_gfA51f-62" target="WHeFWwxsDB-Jv_gfA51f-70" edge="1">
          <mxGeometry relative="1" as="geometry">
            <Array as="points">
              <mxPoint x="-1070" y="-320" />
            </Array>
          </mxGeometry>
        </mxCell>
        <mxCell id="WHeFWwxsDB-Jv_gfA51f-143" style="edgeStyle=orthogonalEdgeStyle;rounded=0;orthogonalLoop=1;jettySize=auto;html=1;endArrow=none;endFill=0;startArrow=block;startFill=0;startSize=15;" parent="4DiZkXDaVToiSss9tpTr-1" source="WHeFWwxsDB-Jv_gfA51f-62" target="WHeFWwxsDB-Jv_gfA51f-66" edge="1">
          <mxGeometry relative="1" as="geometry">
            <Array as="points">
              <mxPoint x="-1070" y="-250" />
            </Array>
          </mxGeometry>
        </mxCell>
        <mxCell id="WHeFWwxsDB-Jv_gfA51f-144" style="edgeStyle=orthogonalEdgeStyle;rounded=0;orthogonalLoop=1;jettySize=auto;html=1;endArrow=none;endFill=0;startArrow=block;startFill=0;endSize=15;startSize=15;" parent="4DiZkXDaVToiSss9tpTr-1" source="WHeFWwxsDB-Jv_gfA51f-62" target="WHeFWwxsDB-Jv_gfA51f-77" edge="1">
          <mxGeometry relative="1" as="geometry">
            <Array as="points">
              <mxPoint x="-1070" y="-170" />
            </Array>
          </mxGeometry>
        </mxCell>
        <mxCell id="WHeFWwxsDB-Jv_gfA51f-62" value="&lt;i&gt;&lt;span style=&quot;font-weight: normal;&quot;&gt;«abstract»&lt;/span&gt;&lt;span style=&quot;font-weight: normal;&quot;&gt;&lt;br&gt;AbstractAction&lt;/span&gt;&lt;/i&gt;" style="swimlane;fontStyle=1;align=center;verticalAlign=top;childLayout=stackLayout;horizontal=1;startSize=35;horizontalStack=0;resizeParent=1;resizeParentMax=0;resizeLast=0;collapsible=1;marginBottom=0;whiteSpace=wrap;html=1;swimlaneLine=1;" parent="4DiZkXDaVToiSss9tpTr-1" vertex="1">
          <mxGeometry x="-1200" y="-520" width="170" height="160" as="geometry">
            <mxRectangle x="-40" y="650" width="150" height="40" as="alternateBounds" />
          </mxGeometry>
        </mxCell>
        <mxCell id="WHeFWwxsDB-Jv_gfA51f-63" value="&lt;p style=&quot;border-color: var(--border-color); margin: 0px 0px 0px 4px;&quot;&gt;+ agent_nodes&lt;/p&gt;" style="text;strokeColor=none;fillColor=none;align=left;verticalAlign=top;spacingLeft=4;spacingRight=4;overflow=hidden;rotatable=0;points=[[0,0.5],[1,0.5]];portConstraint=eastwest;whiteSpace=wrap;html=1;" parent="WHeFWwxsDB-Jv_gfA51f-62" vertex="1">
          <mxGeometry y="35" width="170" height="25" as="geometry" />
        </mxCell>
        <mxCell id="WHeFWwxsDB-Jv_gfA51f-64" value="" style="line;strokeWidth=1;fillColor=none;align=left;verticalAlign=middle;spacingTop=-1;spacingLeft=3;spacingRight=3;rotatable=0;labelPosition=right;points=[];portConstraint=eastwest;strokeColor=inherit;" parent="WHeFWwxsDB-Jv_gfA51f-62" vertex="1">
          <mxGeometry y="60" width="170" height="8" as="geometry" />
        </mxCell>
        <mxCell id="WHeFWwxsDB-Jv_gfA51f-65" value="+ trigger() -&amp;gt; Array&lt;br&gt;- get_agent_nodes(bindings) -&amp;gt; Array[Node]&lt;br&gt;- trigger_node(node, bindings) -&amp;gt; Variant" style="text;strokeColor=none;fillColor=none;align=left;verticalAlign=top;spacingLeft=4;spacingRight=4;overflow=hidden;rotatable=0;points=[[0,0.5],[1,0.5]];portConstraint=eastwest;whiteSpace=wrap;html=1;" parent="WHeFWwxsDB-Jv_gfA51f-62" vertex="1">
          <mxGeometry y="68" width="170" height="92" as="geometry" />
        </mxCell>
        <mxCell id="WHeFWwxsDB-Jv_gfA51f-66" value="&lt;b&gt;CallMethodAction&lt;/b&gt;" style="swimlane;fontStyle=0;childLayout=stackLayout;horizontal=1;startSize=26;fillColor=none;horizontalStack=0;resizeParent=1;resizeParentMax=0;resizeLast=0;collapsible=1;marginBottom=0;whiteSpace=wrap;html=1;" parent="4DiZkXDaVToiSss9tpTr-1" vertex="1">
          <mxGeometry x="-1240" y="-268" width="130" height="78" as="geometry" />
        </mxCell>
        <mxCell id="WHeFWwxsDB-Jv_gfA51f-67" value="+ method" style="text;strokeColor=none;fillColor=none;align=left;verticalAlign=top;spacingLeft=4;spacingRight=4;overflow=hidden;rotatable=0;points=[[0,0.5],[1,0.5]];portConstraint=eastwest;whiteSpace=wrap;html=1;" parent="WHeFWwxsDB-Jv_gfA51f-66" vertex="1">
          <mxGeometry y="26" width="130" height="26" as="geometry" />
        </mxCell>
        <mxCell id="WHeFWwxsDB-Jv_gfA51f-68" value="+ arguments" style="text;strokeColor=none;fillColor=none;align=left;verticalAlign=top;spacingLeft=4;spacingRight=4;overflow=hidden;rotatable=0;points=[[0,0.5],[1,0.5]];portConstraint=eastwest;whiteSpace=wrap;html=1;" parent="WHeFWwxsDB-Jv_gfA51f-66" vertex="1">
          <mxGeometry y="52" width="130" height="26" as="geometry" />
        </mxCell>
        <mxCell id="WHeFWwxsDB-Jv_gfA51f-70" value="&lt;b&gt;SetPropertyAction&lt;/b&gt;" style="swimlane;fontStyle=0;childLayout=stackLayout;horizontal=1;startSize=26;fillColor=none;horizontalStack=0;resizeParent=1;resizeParentMax=0;resizeLast=0;collapsible=1;marginBottom=0;whiteSpace=wrap;html=1;" parent="4DiZkXDaVToiSss9tpTr-1" vertex="1">
          <mxGeometry x="-1240" y="-338" width="130" height="60" as="geometry" />
        </mxCell>
        <mxCell id="WHeFWwxsDB-Jv_gfA51f-71" value="+ property_and_value: Dictionary" style="text;strokeColor=none;fillColor=none;align=left;verticalAlign=top;spacingLeft=4;spacingRight=4;overflow=hidden;rotatable=0;points=[[0,0.5],[1,0.5]];portConstraint=eastwest;whiteSpace=wrap;html=1;" parent="WHeFWwxsDB-Jv_gfA51f-70" vertex="1">
          <mxGeometry y="26" width="130" height="34" as="geometry" />
        </mxCell>
        <mxCell id="WHeFWwxsDB-Jv_gfA51f-77" value="&lt;b&gt;EmitSignalAction&lt;/b&gt;" style="swimlane;fontStyle=0;childLayout=stackLayout;horizontal=1;startSize=26;fillColor=none;horizontalStack=0;resizeParent=1;resizeParentMax=0;resizeLast=0;collapsible=1;marginBottom=0;whiteSpace=wrap;html=1;" parent="4DiZkXDaVToiSss9tpTr-1" vertex="1">
          <mxGeometry x="-1240" y="-182" width="130" height="116" as="geometry" />
        </mxCell>
        <mxCell id="WHeFWwxsDB-Jv_gfA51f-78" value="+ signal_name" style="text;strokeColor=none;fillColor=none;align=left;verticalAlign=top;spacingLeft=4;spacingRight=4;overflow=hidden;rotatable=0;points=[[0,0.5],[1,0.5]];portConstraint=eastwest;whiteSpace=wrap;html=1;" parent="WHeFWwxsDB-Jv_gfA51f-77" vertex="1">
          <mxGeometry y="26" width="130" height="26" as="geometry" />
        </mxCell>
        <mxCell id="WHeFWwxsDB-Jv_gfA51f-79" value="+ parameter_to_type: Dictionary" style="text;strokeColor=none;fillColor=none;align=left;verticalAlign=top;spacingLeft=4;spacingRight=4;overflow=hidden;rotatable=0;points=[[0,0.5],[1,0.5]];portConstraint=eastwest;whiteSpace=wrap;html=1;" parent="WHeFWwxsDB-Jv_gfA51f-77" vertex="1">
          <mxGeometry y="52" width="130" height="38" as="geometry" />
        </mxCell>
        <mxCell id="WHeFWwxsDB-Jv_gfA51f-80" value="+ arguments" style="text;strokeColor=none;fillColor=none;align=left;verticalAlign=top;spacingLeft=4;spacingRight=4;overflow=hidden;rotatable=0;points=[[0,0.5],[1,0.5]];portConstraint=eastwest;whiteSpace=wrap;html=1;" parent="WHeFWwxsDB-Jv_gfA51f-77" vertex="1">
          <mxGeometry y="90" width="130" height="26" as="geometry" />
        </mxCell>
        <mxCell id="WHeFWwxsDB-Jv_gfA51f-111" style="edgeStyle=orthogonalEdgeStyle;rounded=0;orthogonalLoop=1;jettySize=auto;html=1;endArrow=none;endFill=0;startArrow=block;startFill=0;endSize=0;startSize=15;" parent="4DiZkXDaVToiSss9tpTr-1" source="WHeFWwxsDB-Jv_gfA51f-81" target="WHeFWwxsDB-Jv_gfA51f-83" edge="1">
          <mxGeometry relative="1" as="geometry">
            <Array as="points">
              <mxPoint x="-1030" y="-830" />
            </Array>
          </mxGeometry>
        </mxCell>
        <mxCell id="WHeFWwxsDB-Jv_gfA51f-112" style="edgeStyle=orthogonalEdgeStyle;rounded=0;orthogonalLoop=1;jettySize=auto;html=1;endArrow=none;endFill=0;startArrow=block;startFill=0;endSize=0;startSize=15;" parent="4DiZkXDaVToiSss9tpTr-1" source="WHeFWwxsDB-Jv_gfA51f-81" target="WHeFWwxsDB-Jv_gfA51f-84" edge="1">
          <mxGeometry relative="1" as="geometry">
            <Array as="points">
              <mxPoint x="-1030" y="-785" />
            </Array>
          </mxGeometry>
        </mxCell>
        <mxCell id="WHeFWwxsDB-Jv_gfA51f-81" value="&lt;i&gt;&lt;span style=&quot;font-weight: normal;&quot;&gt;«abstract»&lt;/span&gt;&lt;span style=&quot;font-weight: normal;&quot;&gt;&lt;br&gt;AbstractArbiter&lt;/span&gt;&lt;/i&gt;" style="swimlane;fontStyle=1;align=center;verticalAlign=top;childLayout=stackLayout;horizontal=1;startSize=35;horizontalStack=0;resizeParent=1;resizeParentMax=0;resizeLast=0;collapsible=1;marginBottom=0;whiteSpace=wrap;html=1;swimlaneLine=1;" parent="4DiZkXDaVToiSss9tpTr-1" vertex="1">
          <mxGeometry x="-1230" y="-750" width="220" height="60" as="geometry">
            <mxRectangle x="-40" y="650" width="150" height="40" as="alternateBounds" />
          </mxGeometry>
        </mxCell>
        <mxCell id="WHeFWwxsDB-Jv_gfA51f-82" value="+ select_rule_to_trigger(rules) -&amp;gt; Rule" style="text;strokeColor=none;fillColor=none;align=left;verticalAlign=top;spacingLeft=4;spacingRight=4;overflow=hidden;rotatable=0;points=[[0,0.5],[1,0.5]];portConstraint=eastwest;whiteSpace=wrap;html=1;" parent="WHeFWwxsDB-Jv_gfA51f-81" vertex="1">
          <mxGeometry y="35" width="220" height="25" as="geometry" />
        </mxCell>
        <mxCell id="WHeFWwxsDB-Jv_gfA51f-83" value="&lt;b&gt;FirstApplicableArbiter&lt;/b&gt;" style="html=1;whiteSpace=wrap;" parent="4DiZkXDaVToiSss9tpTr-1" vertex="1">
          <mxGeometry x="-1230" y="-844" width="140" height="30" as="geometry" />
        </mxCell>
        <mxCell id="WHeFWwxsDB-Jv_gfA51f-84" value="&lt;b&gt;LeastRecentlyUsedArbiter&lt;/b&gt;" style="html=1;whiteSpace=wrap;" parent="4DiZkXDaVToiSss9tpTr-1" vertex="1">
          <mxGeometry x="-1230" y="-800" width="160" height="30" as="geometry" />
        </mxCell>
        <mxCell id="WHeFWwxsDB-Jv_gfA51f-114" style="edgeStyle=orthogonalEdgeStyle;rounded=0;orthogonalLoop=1;jettySize=auto;html=1;endSize=7;" parent="4DiZkXDaVToiSss9tpTr-1" source="WHeFWwxsDB-Jv_gfA51f-86" target="YPQFNZs_0j9PVaxwOVgs-14" edge="1">
          <mxGeometry relative="1" as="geometry">
            <Array as="points">
              <mxPoint x="-1710" y="-640" />
              <mxPoint x="-1710" y="-640" />
            </Array>
          </mxGeometry>
        </mxCell>
        <mxCell id="WHeFWwxsDB-Jv_gfA51f-159" style="edgeStyle=orthogonalEdgeStyle;rounded=0;orthogonalLoop=1;jettySize=auto;html=1;endSize=7;endArrow=none;endFill=0;startArrow=block;startFill=0;startSize=15;" parent="4DiZkXDaVToiSss9tpTr-1" source="WHeFWwxsDB-Jv_gfA51f-86" target="WHeFWwxsDB-Jv_gfA51f-62" edge="1">
          <mxGeometry relative="1" as="geometry">
            <Array as="points">
              <mxPoint x="-1480" y="-652" />
              <mxPoint x="-1480" y="-550" />
              <mxPoint x="-1070" y="-550" />
            </Array>
          </mxGeometry>
        </mxCell>
        <mxCell id="WHeFWwxsDB-Jv_gfA51f-162" style="edgeStyle=orthogonalEdgeStyle;rounded=0;orthogonalLoop=1;jettySize=auto;html=1;endArrow=none;endFill=0;startArrow=block;startFill=0;startSize=15;" parent="4DiZkXDaVToiSss9tpTr-1" source="WHeFWwxsDB-Jv_gfA51f-86" target="WHeFWwxsDB-Jv_gfA51f-2" edge="1">
          <mxGeometry relative="1" as="geometry">
            <Array as="points">
              <mxPoint x="-1480" y="-652" />
              <mxPoint x="-1480" y="-550" />
              <mxPoint x="-1280" y="-550" />
            </Array>
          </mxGeometry>
        </mxCell>
        <mxCell id="WHeFWwxsDB-Jv_gfA51f-163" style="edgeStyle=orthogonalEdgeStyle;rounded=0;orthogonalLoop=1;jettySize=auto;html=1;endArrow=none;endFill=0;startArrow=block;startFill=0;endSize=6;startSize=15;" parent="4DiZkXDaVToiSss9tpTr-1" source="WHeFWwxsDB-Jv_gfA51f-86" target="YPQFNZs_0j9PVaxwOVgs-23" edge="1">
          <mxGeometry relative="1" as="geometry">
            <Array as="points">
              <mxPoint x="-1480" y="-652" />
              <mxPoint x="-1480" y="-628" />
            </Array>
          </mxGeometry>
        </mxCell>
        <mxCell id="WHeFWwxsDB-Jv_gfA51f-164" style="edgeStyle=orthogonalEdgeStyle;rounded=0;orthogonalLoop=1;jettySize=auto;html=1;endArrow=none;endFill=0;startArrow=block;startFill=0;startSize=15;" parent="4DiZkXDaVToiSss9tpTr-1" source="WHeFWwxsDB-Jv_gfA51f-86" target="WHeFWwxsDB-Jv_gfA51f-11" edge="1">
          <mxGeometry relative="1" as="geometry">
            <Array as="points">
              <mxPoint x="-1480" y="-652" />
              <mxPoint x="-1480" y="-550" />
              <mxPoint x="-1510" y="-550" />
            </Array>
          </mxGeometry>
        </mxCell>
        <mxCell id="WHeFWwxsDB-Jv_gfA51f-166" style="edgeStyle=orthogonalEdgeStyle;rounded=0;orthogonalLoop=1;jettySize=auto;html=1;endArrow=none;endFill=0;startArrow=block;startFill=0;startSize=15;" parent="4DiZkXDaVToiSss9tpTr-1" source="WHeFWwxsDB-Jv_gfA51f-86" target="WHeFWwxsDB-Jv_gfA51f-81" edge="1">
          <mxGeometry relative="1" as="geometry">
            <Array as="points">
              <mxPoint x="-1480" y="-652" />
              <mxPoint x="-1480" y="-680" />
              <mxPoint x="-1125" y="-680" />
            </Array>
          </mxGeometry>
        </mxCell>
        <mxCell id="4rcc69b-EtUvBomN6B06-0" style="edgeStyle=orthogonalEdgeStyle;rounded=0;orthogonalLoop=1;jettySize=auto;html=1;endSize=7;" parent="4DiZkXDaVToiSss9tpTr-1" source="WHeFWwxsDB-Jv_gfA51f-86" target="YPQFNZs_0j9PVaxwOVgs-10" edge="1">
          <mxGeometry relative="1" as="geometry">
            <Array as="points">
              <mxPoint x="-1480" y="-710" />
              <mxPoint x="-1480" y="-770" />
            </Array>
          </mxGeometry>
        </mxCell>
        <mxCell id="WHeFWwxsDB-Jv_gfA51f-86" value="&lt;i style=&quot;border-color: var(--border-color); font-weight: 400;&quot;&gt;«abstract&lt;/i&gt;&lt;span style=&quot;font-weight: normal;&quot;&gt;&lt;i&gt;»&lt;/i&gt;&lt;/span&gt;&lt;br style=&quot;border-color: var(--border-color); font-weight: 400;&quot;&gt;&lt;i style=&quot;border-color: var(--border-color); font-weight: 400;&quot;&gt;RuleBasedResource&lt;/i&gt;&lt;span style=&quot;font-weight: normal;&quot;&gt;&lt;i&gt;&lt;br&gt;&lt;/i&gt;&lt;/span&gt;" style="swimlane;fontStyle=1;align=center;verticalAlign=top;childLayout=stackLayout;horizontal=1;startSize=35;horizontalStack=0;resizeParent=1;resizeParentMax=0;resizeLast=0;collapsible=1;marginBottom=0;whiteSpace=wrap;html=1;swimlaneLine=1;" parent="4DiZkXDaVToiSss9tpTr-1" vertex="1">
          <mxGeometry x="-1700" y="-732" width="190" height="160" as="geometry">
            <mxRectangle x="-40" y="650" width="150" height="40" as="alternateBounds" />
          </mxGeometry>
        </mxCell>
        <mxCell id="WHeFWwxsDB-Jv_gfA51f-87" value="&lt;p style=&quot;border-color: var(--border-color); margin: 0px 0px 0px 4px;&quot;&gt;- system_node&lt;br style=&quot;border-color: var(--border-color);&quot;&gt;- rule_db&lt;br&gt;&lt;/p&gt;" style="text;strokeColor=none;fillColor=none;align=left;verticalAlign=top;spacingLeft=4;spacingRight=4;overflow=hidden;rotatable=0;points=[[0,0.5],[1,0.5]];portConstraint=eastwest;whiteSpace=wrap;html=1;" parent="WHeFWwxsDB-Jv_gfA51f-86" vertex="1">
          <mxGeometry y="35" width="190" height="35" as="geometry" />
        </mxCell>
        <mxCell id="WHeFWwxsDB-Jv_gfA51f-88" value="" style="line;strokeWidth=1;fillColor=none;align=left;verticalAlign=middle;spacingTop=-1;spacingLeft=3;spacingRight=3;rotatable=0;labelPosition=right;points=[];portConstraint=eastwest;strokeColor=inherit;" parent="WHeFWwxsDB-Jv_gfA51f-86" vertex="1">
          <mxGeometry y="70" width="190" height="8" as="geometry" />
        </mxCell>
        <mxCell id="WHeFWwxsDB-Jv_gfA51f-89" value="&lt;p style=&quot;border-color: var(--border-color); margin: 0px 0px 0px 4px;&quot;&gt;+ json_format() -&amp;gt; String&lt;br style=&quot;border-color: var(--border-color);&quot;&gt;&lt;/p&gt;&lt;p style=&quot;border-color: var(--border-color); margin: 0px 0px 0px 4px;&quot;&gt;+ to_json_repr() -&amp;gt; Variant&lt;/p&gt;&lt;p style=&quot;border-color: var(--border-color); margin: 0px 0px 0px 4px;&quot;&gt;+ build_from_repr(json_repr)&lt;/p&gt;&lt;p style=&quot;border-color: var(--border-color); margin: 0px 0px 0px 4px;&quot;&gt;- setup(system_node)&lt;/p&gt;&lt;p style=&quot;border-color: var(--border-color); margin: 0px 0px 0px 4px;&quot;&gt;- set_rule_db(rule_db)&lt;/p&gt;" style="text;strokeColor=none;fillColor=none;align=left;verticalAlign=top;spacingLeft=4;spacingRight=4;overflow=hidden;rotatable=0;points=[[0,0.5],[1,0.5]];portConstraint=eastwest;whiteSpace=wrap;html=1;" parent="WHeFWwxsDB-Jv_gfA51f-86" vertex="1">
          <mxGeometry y="78" width="190" height="82" as="geometry" />
        </mxCell>
        <mxCell id="WHeFWwxsDB-Jv_gfA51f-94" style="edgeStyle=orthogonalEdgeStyle;rounded=0;orthogonalLoop=1;jettySize=auto;html=1;endSize=7;" parent="4DiZkXDaVToiSss9tpTr-1" source="YPQFNZs_0j9PVaxwOVgs-2" target="YPQFNZs_0j9PVaxwOVgs-6" edge="1">
          <mxGeometry relative="1" as="geometry">
            <Array as="points">
              <mxPoint x="-1680" y="-820" />
              <mxPoint x="-1680" y="-820" />
            </Array>
          </mxGeometry>
        </mxCell>
        <mxCell id="WHeFWwxsDB-Jv_gfA51f-105" style="edgeStyle=orthogonalEdgeStyle;rounded=0;orthogonalLoop=1;jettySize=auto;html=1;endArrow=none;endFill=0;startArrow=classic;startFill=1;endSize=7;startSize=7;" parent="4DiZkXDaVToiSss9tpTr-1" source="YPQFNZs_0j9PVaxwOVgs-23" target="WHeFWwxsDB-Jv_gfA51f-0" edge="1">
          <mxGeometry relative="1" as="geometry">
            <Array as="points">
              <mxPoint x="-1210" y="-630" />
              <mxPoint x="-1210" y="-650" />
            </Array>
          </mxGeometry>
        </mxCell>
        <mxCell id="WHeFWwxsDB-Jv_gfA51f-106" style="edgeStyle=orthogonalEdgeStyle;rounded=0;orthogonalLoop=1;jettySize=auto;html=1;endArrow=none;endFill=0;startArrow=classic;startFill=1;endSize=7;startSize=7;" parent="4DiZkXDaVToiSss9tpTr-1" source="YPQFNZs_0j9PVaxwOVgs-23" target="WHeFWwxsDB-Jv_gfA51f-1" edge="1">
          <mxGeometry relative="1" as="geometry">
            <Array as="points">
              <mxPoint x="-1210" y="-630" />
              <mxPoint x="-1210" y="-600" />
            </Array>
          </mxGeometry>
        </mxCell>
        <mxCell id="WHeFWwxsDB-Jv_gfA51f-120" style="edgeStyle=orthogonalEdgeStyle;rounded=0;orthogonalLoop=1;jettySize=auto;html=1;endArrow=none;endFill=0;startArrow=diamond;startFill=1;startSize=20;" parent="4DiZkXDaVToiSss9tpTr-1" source="WHeFWwxsDB-Jv_gfA51f-2" target="WHeFWwxsDB-Jv_gfA51f-11" edge="1">
          <mxGeometry relative="1" as="geometry">
            <Array as="points">
              <mxPoint x="-1430" y="-487" />
              <mxPoint x="-1430" y="-487" />
            </Array>
          </mxGeometry>
        </mxCell>
        <mxCell id="WHeFWwxsDB-Jv_gfA51f-121" style="edgeStyle=orthogonalEdgeStyle;rounded=0;orthogonalLoop=1;jettySize=auto;html=1;startArrow=diamond;startFill=1;endArrow=none;endFill=0;startSize=20;" parent="4DiZkXDaVToiSss9tpTr-1" source="WHeFWwxsDB-Jv_gfA51f-2" target="WHeFWwxsDB-Jv_gfA51f-62" edge="1">
          <mxGeometry relative="1" as="geometry">
            <Array as="points">
              <mxPoint x="-1160" y="-455" />
              <mxPoint x="-1160" y="-455" />
            </Array>
          </mxGeometry>
        </mxCell>
      </root>
    </mxGraphModel>
  </diagram>
  <diagram id="ESjXvtkEPwYtd7UF8Y2l" name="ConditionTreeExample">
    <mxGraphModel dx="1222" dy="718" grid="1" gridSize="10" guides="1" tooltips="1" connect="1" arrows="1" fold="1" page="1" pageScale="1" pageWidth="500" pageHeight="350" math="0" shadow="0">
      <root>
        <mxCell id="0" />
        <mxCell id="1" parent="0" />
        <mxCell id="SQFm-ZqzfWQ2WbcepyV5-15" style="edgeStyle=orthogonalEdgeStyle;rounded=0;orthogonalLoop=1;jettySize=auto;html=1;endArrow=none;endFill=0;startArrow=diamond;startFill=1;startSize=20;endSize=0;" parent="1" source="SQFm-ZqzfWQ2WbcepyV5-1" target="SQFm-ZqzfWQ2WbcepyV5-2" edge="1">
          <mxGeometry relative="1" as="geometry" />
        </mxCell>
        <mxCell id="SQFm-ZqzfWQ2WbcepyV5-16" value="Condition" style="edgeLabel;html=1;align=center;verticalAlign=middle;resizable=0;points=[];fontStyle=1" parent="SQFm-ZqzfWQ2WbcepyV5-15" vertex="1" connectable="0">
          <mxGeometry x="0.1556" y="-3" relative="1" as="geometry">
            <mxPoint x="3" y="1" as="offset" />
          </mxGeometry>
        </mxCell>
        <mxCell id="SQFm-ZqzfWQ2WbcepyV5-1" value="Rule" style="html=1;whiteSpace=wrap;" parent="1" vertex="1">
          <mxGeometry x="135" y="10" width="110" height="50" as="geometry" />
        </mxCell>
        <mxCell id="SQFm-ZqzfWQ2WbcepyV5-13" style="edgeStyle=orthogonalEdgeStyle;rounded=0;orthogonalLoop=1;jettySize=auto;html=1;endArrow=none;endFill=0;startArrow=diamond;startFill=0;startSize=20;endSize=0;" parent="1" source="SQFm-ZqzfWQ2WbcepyV5-2" target="SQFm-ZqzfWQ2WbcepyV5-3" edge="1">
          <mxGeometry relative="1" as="geometry">
            <Array as="points">
              <mxPoint x="190" y="190" />
              <mxPoint x="70" y="190" />
            </Array>
          </mxGeometry>
        </mxCell>
        <mxCell id="SQFm-ZqzfWQ2WbcepyV5-14" style="edgeStyle=orthogonalEdgeStyle;rounded=0;orthogonalLoop=1;jettySize=auto;html=1;endArrow=none;endFill=0;startArrow=diamond;startFill=0;startSize=20;endSize=0;" parent="1" source="SQFm-ZqzfWQ2WbcepyV5-2" target="SQFm-ZqzfWQ2WbcepyV5-4" edge="1">
          <mxGeometry relative="1" as="geometry">
            <Array as="points">
              <mxPoint x="190" y="190" />
              <mxPoint x="310" y="190" />
            </Array>
          </mxGeometry>
        </mxCell>
        <mxCell id="SQFm-ZqzfWQ2WbcepyV5-2" value="ANDMatch" style="html=1;whiteSpace=wrap;" parent="1" vertex="1">
          <mxGeometry x="135" y="110" width="110" height="50" as="geometry" />
        </mxCell>
        <mxCell id="SQFm-ZqzfWQ2WbcepyV5-12" style="edgeStyle=orthogonalEdgeStyle;rounded=0;orthogonalLoop=1;jettySize=auto;html=1;endArrow=none;endFill=0;startArrow=diamond;startFill=0;startSize=20;endSize=0;" parent="1" source="SQFm-ZqzfWQ2WbcepyV5-3" target="SQFm-ZqzfWQ2WbcepyV5-5" edge="1">
          <mxGeometry relative="1" as="geometry" />
        </mxCell>
        <mxCell id="SQFm-ZqzfWQ2WbcepyV5-3" value="NOTMatch" style="html=1;whiteSpace=wrap;" parent="1" vertex="1">
          <mxGeometry x="15" y="200" width="110" height="50" as="geometry" />
        </mxCell>
        <mxCell id="SQFm-ZqzfWQ2WbcepyV5-9" style="edgeStyle=orthogonalEdgeStyle;rounded=0;orthogonalLoop=1;jettySize=auto;html=1;endSize=0;endArrow=none;endFill=0;startArrow=diamond;startFill=0;startSize=20;" parent="1" source="SQFm-ZqzfWQ2WbcepyV5-4" target="SQFm-ZqzfWQ2WbcepyV5-7" edge="1">
          <mxGeometry relative="1" as="geometry" />
        </mxCell>
        <mxCell id="SQFm-ZqzfWQ2WbcepyV5-10" style="edgeStyle=orthogonalEdgeStyle;rounded=0;orthogonalLoop=1;jettySize=auto;html=1;endSize=0;endArrow=none;endFill=0;startArrow=diamond;startFill=0;startSize=20;" parent="1" source="SQFm-ZqzfWQ2WbcepyV5-4" target="SQFm-ZqzfWQ2WbcepyV5-6" edge="1">
          <mxGeometry relative="1" as="geometry">
            <Array as="points">
              <mxPoint x="310" y="280" />
              <mxPoint x="190" y="280" />
            </Array>
          </mxGeometry>
        </mxCell>
        <mxCell id="SQFm-ZqzfWQ2WbcepyV5-11" style="edgeStyle=orthogonalEdgeStyle;rounded=0;orthogonalLoop=1;jettySize=auto;html=1;endSize=0;endArrow=none;endFill=0;startArrow=diamond;startFill=0;startSize=20;" parent="1" source="SQFm-ZqzfWQ2WbcepyV5-4" target="SQFm-ZqzfWQ2WbcepyV5-8" edge="1">
          <mxGeometry relative="1" as="geometry">
            <Array as="points">
              <mxPoint x="310" y="280" />
              <mxPoint x="430" y="280" />
            </Array>
          </mxGeometry>
        </mxCell>
        <mxCell id="SQFm-ZqzfWQ2WbcepyV5-4" value="ORMatch" style="html=1;whiteSpace=wrap;" parent="1" vertex="1">
          <mxGeometry x="255" y="200" width="110" height="50" as="geometry" />
        </mxCell>
        <mxCell id="SQFm-ZqzfWQ2WbcepyV5-5" value="NumericMatch" style="html=1;whiteSpace=wrap;" parent="1" vertex="1">
          <mxGeometry x="15" y="290" width="110" height="50" as="geometry" />
        </mxCell>
        <mxCell id="SQFm-ZqzfWQ2WbcepyV5-6" value="StringMatch" style="html=1;whiteSpace=wrap;" parent="1" vertex="1">
          <mxGeometry x="135" y="290" width="110" height="50" as="geometry" />
        </mxCell>
        <mxCell id="SQFm-ZqzfWQ2WbcepyV5-7" value="DistanceMatch" style="html=1;whiteSpace=wrap;" parent="1" vertex="1">
          <mxGeometry x="255" y="290" width="110" height="50" as="geometry" />
        </mxCell>
        <mxCell id="SQFm-ZqzfWQ2WbcepyV5-8" value="HierarchyMatch" style="html=1;whiteSpace=wrap;" parent="1" vertex="1">
          <mxGeometry x="375" y="290" width="110" height="50" as="geometry" />
        </mxCell>
      </root>
    </mxGraphModel>
  </diagram>
  <diagram id="MM3Bt-7st-JxVSiaml5z" name="Unification_Step0">
    <mxGraphModel dx="1222" dy="-802" grid="1" gridSize="10" guides="1" tooltips="1" connect="1" arrows="1" fold="1" page="1" pageScale="1" pageWidth="550" pageHeight="380" math="0" shadow="0">
      <root>
        <mxCell id="0" />
        <mxCell id="1" parent="0" />
        <mxCell id="z5vATOPW5odWU8WZ0YkT-1" style="edgeStyle=orthogonalEdgeStyle;rounded=0;orthogonalLoop=1;jettySize=auto;html=1;endArrow=none;endFill=0;startArrow=diamond;startFill=0;startSize=20;" parent="1" source="z5vATOPW5odWU8WZ0YkT-10" target="z5vATOPW5odWU8WZ0YkT-16" edge="1">
          <mxGeometry relative="1" as="geometry">
            <Array as="points">
              <mxPoint x="230" y="1732" />
              <mxPoint x="290" y="1732" />
            </Array>
          </mxGeometry>
        </mxCell>
        <mxCell id="z5vATOPW5odWU8WZ0YkT-2" style="edgeStyle=orthogonalEdgeStyle;rounded=0;orthogonalLoop=1;jettySize=auto;html=1;startArrow=diamond;startFill=1;endArrow=none;endFill=0;startSize=20;" parent="1" source="z5vATOPW5odWU8WZ0YkT-6" target="z5vATOPW5odWU8WZ0YkT-10" edge="1">
          <mxGeometry relative="1" as="geometry" />
        </mxCell>
        <mxCell id="z5vATOPW5odWU8WZ0YkT-3" value="Condition" style="edgeLabel;html=1;align=center;verticalAlign=middle;resizable=0;points=[];fontStyle=0" parent="z5vATOPW5odWU8WZ0YkT-2" vertex="1" connectable="0">
          <mxGeometry x="0.1926" y="3" relative="1" as="geometry">
            <mxPoint x="3" y="3" as="offset" />
          </mxGeometry>
        </mxCell>
        <mxCell id="z5vATOPW5odWU8WZ0YkT-4" style="edgeStyle=orthogonalEdgeStyle;rounded=0;orthogonalLoop=1;jettySize=auto;html=1;startArrow=open;startFill=0;dashed=1;endArrow=none;endFill=0;" parent="1" source="z5vATOPW5odWU8WZ0YkT-6" edge="1">
          <mxGeometry relative="1" as="geometry">
            <mxPoint x="20" y="1542" as="targetPoint" />
            <Array as="points">
              <mxPoint x="10" y="1542" />
            </Array>
          </mxGeometry>
        </mxCell>
        <mxCell id="z5vATOPW5odWU8WZ0YkT-5" value="condition_satisfied()" style="edgeLabel;html=1;align=center;verticalAlign=middle;resizable=0;points=[];fontStyle=1" parent="z5vATOPW5odWU8WZ0YkT-4" vertex="1" connectable="0">
          <mxGeometry x="0.0706" y="-3" relative="1" as="geometry">
            <mxPoint x="-5" y="3" as="offset" />
          </mxGeometry>
        </mxCell>
        <mxCell id="z5vATOPW5odWU8WZ0YkT-6" value="Rule" style="swimlane;fontStyle=0;childLayout=stackLayout;horizontal=1;startSize=26;fillColor=none;horizontalStack=0;resizeParent=1;resizeParentMax=0;resizeLast=0;collapsible=1;marginBottom=0;whiteSpace=wrap;html=1;" parent="1" vertex="1">
          <mxGeometry x="140" y="1532" width="180" height="52" as="geometry" />
        </mxCell>
        <mxCell id="z5vATOPW5odWU8WZ0YkT-7" value="bindings = {}" style="text;strokeColor=none;fillColor=none;align=left;verticalAlign=top;spacingLeft=4;spacingRight=4;overflow=hidden;rotatable=0;points=[[0,0.5],[1,0.5]];portConstraint=eastwest;whiteSpace=wrap;html=1;" parent="z5vATOPW5odWU8WZ0YkT-6" vertex="1">
          <mxGeometry y="26" width="180" height="26" as="geometry" />
        </mxCell>
        <mxCell id="z5vATOPW5odWU8WZ0YkT-8" style="edgeStyle=orthogonalEdgeStyle;rounded=0;orthogonalLoop=1;jettySize=auto;html=1;endArrow=none;endFill=0;startArrow=diamond;startFill=0;startSize=20;" parent="1" source="z5vATOPW5odWU8WZ0YkT-10" target="z5vATOPW5odWU8WZ0YkT-11" edge="1">
          <mxGeometry relative="1" as="geometry">
            <Array as="points">
              <mxPoint x="230" y="1732" />
              <mxPoint x="170" y="1732" />
            </Array>
          </mxGeometry>
        </mxCell>
        <mxCell id="z5vATOPW5odWU8WZ0YkT-9" value="Subconditions" style="edgeLabel;html=1;align=center;verticalAlign=middle;resizable=0;points=[];fontStyle=0" parent="z5vATOPW5odWU8WZ0YkT-8" vertex="1" connectable="0">
          <mxGeometry x="-0.2062" y="1" relative="1" as="geometry">
            <mxPoint x="-1" y="8" as="offset" />
          </mxGeometry>
        </mxCell>
        <mxCell id="z5vATOPW5odWU8WZ0YkT-10" value="ANDMatch" style="html=1;whiteSpace=wrap;" parent="1" vertex="1">
          <mxGeometry x="190" y="1632" width="80" height="30" as="geometry" />
        </mxCell>
        <mxCell id="z5vATOPW5odWU8WZ0YkT-11" value="NumericMatch" style="swimlane;fontStyle=0;childLayout=stackLayout;horizontal=1;startSize=26;fillColor=none;horizontalStack=0;resizeParent=1;resizeParentMax=0;resizeLast=0;collapsible=1;marginBottom=0;whiteSpace=wrap;html=1;" parent="1" vertex="1">
          <mxGeometry x="100" y="1758" width="110" height="130" as="geometry" />
        </mxCell>
        <mxCell id="z5vATOPW5odWU8WZ0YkT-12" value="tester = ?var" style="text;strokeColor=none;fillColor=none;align=left;verticalAlign=top;spacingLeft=4;spacingRight=4;overflow=hidden;rotatable=0;points=[[0,0.5],[1,0.5]];portConstraint=eastwest;whiteSpace=wrap;html=1;" parent="z5vATOPW5odWU8WZ0YkT-11" vertex="1">
          <mxGeometry y="26" width="110" height="26" as="geometry" />
        </mxCell>
        <mxCell id="z5vATOPW5odWU8WZ0YkT-13" value="property = &quot;num&quot;" style="text;strokeColor=none;fillColor=none;align=left;verticalAlign=top;spacingLeft=4;spacingRight=4;overflow=hidden;rotatable=0;points=[[0,0.5],[1,0.5]];portConstraint=eastwest;whiteSpace=wrap;html=1;" parent="z5vATOPW5odWU8WZ0YkT-11" vertex="1">
          <mxGeometry y="52" width="110" height="26" as="geometry" />
        </mxCell>
        <mxCell id="z5vATOPW5odWU8WZ0YkT-14" value="min = 5" style="text;strokeColor=none;fillColor=none;align=left;verticalAlign=top;spacingLeft=4;spacingRight=4;overflow=hidden;rotatable=0;points=[[0,0.5],[1,0.5]];portConstraint=eastwest;whiteSpace=wrap;html=1;" parent="z5vATOPW5odWU8WZ0YkT-11" vertex="1">
          <mxGeometry y="78" width="110" height="26" as="geometry" />
        </mxCell>
        <mxCell id="z5vATOPW5odWU8WZ0YkT-15" value="max = 10" style="text;strokeColor=none;fillColor=none;align=left;verticalAlign=top;spacingLeft=4;spacingRight=4;overflow=hidden;rotatable=0;points=[[0,0.5],[1,0.5]];portConstraint=eastwest;whiteSpace=wrap;html=1;" parent="z5vATOPW5odWU8WZ0YkT-11" vertex="1">
          <mxGeometry y="104" width="110" height="26" as="geometry" />
        </mxCell>
        <mxCell id="z5vATOPW5odWU8WZ0YkT-16" value="StringMatch" style="swimlane;fontStyle=0;childLayout=stackLayout;horizontal=1;startSize=26;fillColor=none;horizontalStack=0;resizeParent=1;resizeParentMax=0;resizeLast=0;collapsible=1;marginBottom=0;whiteSpace=wrap;html=1;" parent="1" vertex="1">
          <mxGeometry x="240" y="1758" width="110" height="104" as="geometry" />
        </mxCell>
        <mxCell id="z5vATOPW5odWU8WZ0YkT-17" value="tester = ?var" style="text;strokeColor=none;fillColor=none;align=left;verticalAlign=top;spacingLeft=4;spacingRight=4;overflow=hidden;rotatable=0;points=[[0,0.5],[1,0.5]];portConstraint=eastwest;whiteSpace=wrap;html=1;" parent="z5vATOPW5odWU8WZ0YkT-16" vertex="1">
          <mxGeometry y="26" width="110" height="26" as="geometry" />
        </mxCell>
        <mxCell id="z5vATOPW5odWU8WZ0YkT-18" value="property = &quot;string&quot;" style="text;strokeColor=none;fillColor=none;align=left;verticalAlign=top;spacingLeft=4;spacingRight=4;overflow=hidden;rotatable=0;points=[[0,0.5],[1,0.5]];portConstraint=eastwest;whiteSpace=wrap;html=1;" parent="z5vATOPW5odWU8WZ0YkT-16" vertex="1">
          <mxGeometry y="52" width="110" height="26" as="geometry" />
        </mxCell>
        <mxCell id="z5vATOPW5odWU8WZ0YkT-19" value="value = &quot;yes&quot;" style="text;strokeColor=none;fillColor=none;align=left;verticalAlign=top;spacingLeft=4;spacingRight=4;overflow=hidden;rotatable=0;points=[[0,0.5],[1,0.5]];portConstraint=eastwest;whiteSpace=wrap;html=1;" parent="z5vATOPW5odWU8WZ0YkT-16" vertex="1">
          <mxGeometry y="78" width="110" height="26" as="geometry" />
        </mxCell>
        <mxCell id="z5vATOPW5odWU8WZ0YkT-20" value="Obj1" style="swimlane;fontStyle=0;childLayout=stackLayout;horizontal=1;startSize=26;fillColor=none;horizontalStack=0;resizeParent=1;resizeParentMax=0;resizeLast=0;collapsible=1;marginBottom=0;whiteSpace=wrap;html=1;" parent="1" vertex="1">
          <mxGeometry x="450" y="1532" width="90" height="78" as="geometry" />
        </mxCell>
        <mxCell id="z5vATOPW5odWU8WZ0YkT-21" value="num = 0" style="text;strokeColor=none;fillColor=none;align=left;verticalAlign=top;spacingLeft=4;spacingRight=4;overflow=hidden;rotatable=0;points=[[0,0.5],[1,0.5]];portConstraint=eastwest;whiteSpace=wrap;html=1;" parent="z5vATOPW5odWU8WZ0YkT-20" vertex="1">
          <mxGeometry y="26" width="90" height="26" as="geometry" />
        </mxCell>
        <mxCell id="z5vATOPW5odWU8WZ0YkT-22" value="string = &quot;yes&quot;" style="text;strokeColor=none;fillColor=none;align=left;verticalAlign=top;spacingLeft=4;spacingRight=4;overflow=hidden;rotatable=0;points=[[0,0.5],[1,0.5]];portConstraint=eastwest;whiteSpace=wrap;html=1;" parent="z5vATOPW5odWU8WZ0YkT-20" vertex="1">
          <mxGeometry y="52" width="90" height="26" as="geometry" />
        </mxCell>
        <mxCell id="z5vATOPW5odWU8WZ0YkT-23" value="Obj2" style="swimlane;fontStyle=0;childLayout=stackLayout;horizontal=1;startSize=26;fillColor=none;horizontalStack=0;resizeParent=1;resizeParentMax=0;resizeLast=0;collapsible=1;marginBottom=0;whiteSpace=wrap;html=1;" parent="1" vertex="1">
          <mxGeometry x="450" y="1622" width="90" height="78" as="geometry" />
        </mxCell>
        <mxCell id="z5vATOPW5odWU8WZ0YkT-24" value="num = 7" style="text;strokeColor=none;fillColor=none;align=left;verticalAlign=top;spacingLeft=4;spacingRight=4;overflow=hidden;rotatable=0;points=[[0,0.5],[1,0.5]];portConstraint=eastwest;whiteSpace=wrap;html=1;" parent="z5vATOPW5odWU8WZ0YkT-23" vertex="1">
          <mxGeometry y="26" width="90" height="26" as="geometry" />
        </mxCell>
        <mxCell id="z5vATOPW5odWU8WZ0YkT-25" value="string = &quot;no&quot;" style="text;strokeColor=none;fillColor=none;align=left;verticalAlign=top;spacingLeft=4;spacingRight=4;overflow=hidden;rotatable=0;points=[[0,0.5],[1,0.5]];portConstraint=eastwest;whiteSpace=wrap;html=1;" parent="z5vATOPW5odWU8WZ0YkT-23" vertex="1">
          <mxGeometry y="52" width="90" height="26" as="geometry" />
        </mxCell>
        <mxCell id="z5vATOPW5odWU8WZ0YkT-26" value="Obj3" style="swimlane;fontStyle=0;childLayout=stackLayout;horizontal=1;startSize=26;fillColor=none;horizontalStack=0;resizeParent=1;resizeParentMax=0;resizeLast=0;collapsible=1;marginBottom=0;whiteSpace=wrap;html=1;" parent="1" vertex="1">
          <mxGeometry x="450" y="1712" width="90" height="78" as="geometry" />
        </mxCell>
        <mxCell id="z5vATOPW5odWU8WZ0YkT-27" value="num = 7" style="text;strokeColor=none;fillColor=none;align=left;verticalAlign=top;spacingLeft=4;spacingRight=4;overflow=hidden;rotatable=0;points=[[0,0.5],[1,0.5]];portConstraint=eastwest;whiteSpace=wrap;html=1;" parent="z5vATOPW5odWU8WZ0YkT-26" vertex="1">
          <mxGeometry y="26" width="90" height="26" as="geometry" />
        </mxCell>
        <mxCell id="z5vATOPW5odWU8WZ0YkT-28" value="string = &quot;yes&quot;" style="text;strokeColor=none;fillColor=none;align=left;verticalAlign=top;spacingLeft=4;spacingRight=4;overflow=hidden;rotatable=0;points=[[0,0.5],[1,0.5]];portConstraint=eastwest;whiteSpace=wrap;html=1;" parent="z5vATOPW5odWU8WZ0YkT-26" vertex="1">
          <mxGeometry y="52" width="90" height="26" as="geometry" />
        </mxCell>
      </root>
    </mxGraphModel>
  </diagram>
  <diagram id="prQLZI6wzw8O41azcl7l" name="Unification_Step1">
    <mxGraphModel dx="1222" dy="-3572" grid="1" gridSize="10" guides="1" tooltips="1" connect="1" arrows="1" fold="1" page="1" pageScale="1" pageWidth="590" pageHeight="390" math="0" shadow="0">
      <root>
        <mxCell id="0" />
        <mxCell id="1" parent="0" />
        <mxCell id="zuoORb6AN1eDVm8aNh5b-1" style="edgeStyle=orthogonalEdgeStyle;rounded=0;orthogonalLoop=1;jettySize=auto;html=1;endArrow=none;endFill=0;startArrow=diamond;startFill=0;startSize=20;" parent="1" source="zuoORb6AN1eDVm8aNh5b-10" target="zuoORb6AN1eDVm8aNh5b-16" edge="1">
          <mxGeometry relative="1" as="geometry">
            <Array as="points">
              <mxPoint x="270" y="4507" />
              <mxPoint x="330" y="4507" />
            </Array>
          </mxGeometry>
        </mxCell>
        <mxCell id="zuoORb6AN1eDVm8aNh5b-2" style="edgeStyle=orthogonalEdgeStyle;rounded=0;orthogonalLoop=1;jettySize=auto;html=1;startArrow=diamond;startFill=1;endArrow=none;endFill=0;startSize=20;" parent="1" source="zuoORb6AN1eDVm8aNh5b-6" target="zuoORb6AN1eDVm8aNh5b-10" edge="1">
          <mxGeometry relative="1" as="geometry" />
        </mxCell>
        <mxCell id="zuoORb6AN1eDVm8aNh5b-3" value="Condition" style="edgeLabel;html=1;align=center;verticalAlign=middle;resizable=0;points=[];fontStyle=0" parent="zuoORb6AN1eDVm8aNh5b-2" vertex="1" connectable="0">
          <mxGeometry x="0.1926" y="3" relative="1" as="geometry">
            <mxPoint x="3" y="3" as="offset" />
          </mxGeometry>
        </mxCell>
        <mxCell id="zuoORb6AN1eDVm8aNh5b-4" style="edgeStyle=orthogonalEdgeStyle;rounded=0;orthogonalLoop=1;jettySize=auto;html=1;dashed=1;endArrow=open;endFill=0;" parent="1" source="zuoORb6AN1eDVm8aNh5b-6" target="zuoORb6AN1eDVm8aNh5b-10" edge="1">
          <mxGeometry relative="1" as="geometry">
            <Array as="points">
              <mxPoint x="310" y="4387" />
              <mxPoint x="370" y="4387" />
              <mxPoint x="370" y="4422" />
            </Array>
          </mxGeometry>
        </mxCell>
        <mxCell id="zuoORb6AN1eDVm8aNh5b-5" value="is_satisfied(bindings)" style="edgeLabel;html=1;align=center;verticalAlign=middle;resizable=0;points=[];fontStyle=1" parent="zuoORb6AN1eDVm8aNh5b-4" vertex="1" connectable="0">
          <mxGeometry x="-0.0495" y="2" relative="1" as="geometry">
            <mxPoint x="1" y="15" as="offset" />
          </mxGeometry>
        </mxCell>
        <mxCell id="zuoORb6AN1eDVm8aNh5b-6" value="Rule" style="swimlane;fontStyle=0;childLayout=stackLayout;horizontal=1;startSize=26;fillColor=#fad9d5;horizontalStack=0;resizeParent=1;resizeParentMax=0;resizeLast=0;collapsible=1;marginBottom=0;whiteSpace=wrap;html=1;strokeColor=#ae4132;" parent="1" vertex="1">
          <mxGeometry x="180" y="4307" width="180" height="52" as="geometry" />
        </mxCell>
        <mxCell id="zuoORb6AN1eDVm8aNh5b-7" value="bindings = {}" style="text;strokeColor=#ae4132;fillColor=#fad9d5;align=left;verticalAlign=top;spacingLeft=4;spacingRight=4;overflow=hidden;rotatable=0;points=[[0,0.5],[1,0.5]];portConstraint=eastwest;whiteSpace=wrap;html=1;" parent="zuoORb6AN1eDVm8aNh5b-6" vertex="1">
          <mxGeometry y="26" width="180" height="26" as="geometry" />
        </mxCell>
        <mxCell id="zuoORb6AN1eDVm8aNh5b-8" style="edgeStyle=orthogonalEdgeStyle;rounded=0;orthogonalLoop=1;jettySize=auto;html=1;endArrow=none;endFill=0;startArrow=diamond;startFill=0;startSize=20;" parent="1" source="zuoORb6AN1eDVm8aNh5b-10" target="zuoORb6AN1eDVm8aNh5b-11" edge="1">
          <mxGeometry relative="1" as="geometry">
            <Array as="points">
              <mxPoint x="270" y="4507" />
              <mxPoint x="210" y="4507" />
            </Array>
          </mxGeometry>
        </mxCell>
        <mxCell id="zuoORb6AN1eDVm8aNh5b-9" value="Subconditions" style="edgeLabel;html=1;align=center;verticalAlign=middle;resizable=0;points=[];fontStyle=0" parent="zuoORb6AN1eDVm8aNh5b-8" vertex="1" connectable="0">
          <mxGeometry x="-0.2062" y="1" relative="1" as="geometry">
            <mxPoint x="-1" y="8" as="offset" />
          </mxGeometry>
        </mxCell>
        <mxCell id="zuoORb6AN1eDVm8aNh5b-10" value="ANDMatch" style="html=1;whiteSpace=wrap;fillColor=#fad9d5;strokeColor=#ae4132;" parent="1" vertex="1">
          <mxGeometry x="230" y="4407" width="80" height="30" as="geometry" />
        </mxCell>
        <mxCell id="zuoORb6AN1eDVm8aNh5b-11" value="NumericMatch" style="swimlane;fontStyle=0;childLayout=stackLayout;horizontal=1;startSize=26;fillColor=none;horizontalStack=0;resizeParent=1;resizeParentMax=0;resizeLast=0;collapsible=1;marginBottom=0;whiteSpace=wrap;html=1;" parent="1" vertex="1">
          <mxGeometry x="140" y="4533" width="110" height="130" as="geometry" />
        </mxCell>
        <mxCell id="zuoORb6AN1eDVm8aNh5b-12" value="tester = ?var" style="text;strokeColor=none;fillColor=none;align=left;verticalAlign=top;spacingLeft=4;spacingRight=4;overflow=hidden;rotatable=0;points=[[0,0.5],[1,0.5]];portConstraint=eastwest;whiteSpace=wrap;html=1;" parent="zuoORb6AN1eDVm8aNh5b-11" vertex="1">
          <mxGeometry y="26" width="110" height="26" as="geometry" />
        </mxCell>
        <mxCell id="zuoORb6AN1eDVm8aNh5b-13" value="property = &quot;num&quot;" style="text;strokeColor=none;fillColor=none;align=left;verticalAlign=top;spacingLeft=4;spacingRight=4;overflow=hidden;rotatable=0;points=[[0,0.5],[1,0.5]];portConstraint=eastwest;whiteSpace=wrap;html=1;" parent="zuoORb6AN1eDVm8aNh5b-11" vertex="1">
          <mxGeometry y="52" width="110" height="26" as="geometry" />
        </mxCell>
        <mxCell id="zuoORb6AN1eDVm8aNh5b-14" value="min = 5" style="text;strokeColor=none;fillColor=none;align=left;verticalAlign=top;spacingLeft=4;spacingRight=4;overflow=hidden;rotatable=0;points=[[0,0.5],[1,0.5]];portConstraint=eastwest;whiteSpace=wrap;html=1;" parent="zuoORb6AN1eDVm8aNh5b-11" vertex="1">
          <mxGeometry y="78" width="110" height="26" as="geometry" />
        </mxCell>
        <mxCell id="zuoORb6AN1eDVm8aNh5b-15" value="max = 10" style="text;strokeColor=none;fillColor=none;align=left;verticalAlign=top;spacingLeft=4;spacingRight=4;overflow=hidden;rotatable=0;points=[[0,0.5],[1,0.5]];portConstraint=eastwest;whiteSpace=wrap;html=1;" parent="zuoORb6AN1eDVm8aNh5b-11" vertex="1">
          <mxGeometry y="104" width="110" height="26" as="geometry" />
        </mxCell>
        <mxCell id="zuoORb6AN1eDVm8aNh5b-16" value="StringMatch" style="swimlane;fontStyle=0;childLayout=stackLayout;horizontal=1;startSize=26;fillColor=none;horizontalStack=0;resizeParent=1;resizeParentMax=0;resizeLast=0;collapsible=1;marginBottom=0;whiteSpace=wrap;html=1;" parent="1" vertex="1">
          <mxGeometry x="280" y="4533" width="110" height="104" as="geometry" />
        </mxCell>
        <mxCell id="zuoORb6AN1eDVm8aNh5b-17" value="tester = ?var" style="text;strokeColor=none;fillColor=none;align=left;verticalAlign=top;spacingLeft=4;spacingRight=4;overflow=hidden;rotatable=0;points=[[0,0.5],[1,0.5]];portConstraint=eastwest;whiteSpace=wrap;html=1;" parent="zuoORb6AN1eDVm8aNh5b-16" vertex="1">
          <mxGeometry y="26" width="110" height="26" as="geometry" />
        </mxCell>
        <mxCell id="zuoORb6AN1eDVm8aNh5b-18" value="property = &quot;string&quot;" style="text;strokeColor=none;fillColor=none;align=left;verticalAlign=top;spacingLeft=4;spacingRight=4;overflow=hidden;rotatable=0;points=[[0,0.5],[1,0.5]];portConstraint=eastwest;whiteSpace=wrap;html=1;" parent="zuoORb6AN1eDVm8aNh5b-16" vertex="1">
          <mxGeometry y="52" width="110" height="26" as="geometry" />
        </mxCell>
        <mxCell id="zuoORb6AN1eDVm8aNh5b-19" value="value = &quot;yes&quot;" style="text;strokeColor=none;fillColor=none;align=left;verticalAlign=top;spacingLeft=4;spacingRight=4;overflow=hidden;rotatable=0;points=[[0,0.5],[1,0.5]];portConstraint=eastwest;whiteSpace=wrap;html=1;" parent="zuoORb6AN1eDVm8aNh5b-16" vertex="1">
          <mxGeometry y="78" width="110" height="26" as="geometry" />
        </mxCell>
        <mxCell id="zuoORb6AN1eDVm8aNh5b-20" value="Obj1" style="swimlane;fontStyle=0;childLayout=stackLayout;horizontal=1;startSize=26;fillColor=none;horizontalStack=0;resizeParent=1;resizeParentMax=0;resizeLast=0;collapsible=1;marginBottom=0;whiteSpace=wrap;html=1;" parent="1" vertex="1">
          <mxGeometry x="490" y="4307" width="90" height="78" as="geometry" />
        </mxCell>
        <mxCell id="zuoORb6AN1eDVm8aNh5b-21" value="num = 0" style="text;strokeColor=none;fillColor=none;align=left;verticalAlign=top;spacingLeft=4;spacingRight=4;overflow=hidden;rotatable=0;points=[[0,0.5],[1,0.5]];portConstraint=eastwest;whiteSpace=wrap;html=1;" parent="zuoORb6AN1eDVm8aNh5b-20" vertex="1">
          <mxGeometry y="26" width="90" height="26" as="geometry" />
        </mxCell>
        <mxCell id="zuoORb6AN1eDVm8aNh5b-22" value="string = &quot;yes&quot;" style="text;strokeColor=none;fillColor=none;align=left;verticalAlign=top;spacingLeft=4;spacingRight=4;overflow=hidden;rotatable=0;points=[[0,0.5],[1,0.5]];portConstraint=eastwest;whiteSpace=wrap;html=1;" parent="zuoORb6AN1eDVm8aNh5b-20" vertex="1">
          <mxGeometry y="52" width="90" height="26" as="geometry" />
        </mxCell>
        <mxCell id="zuoORb6AN1eDVm8aNh5b-23" value="Obj2" style="swimlane;fontStyle=0;childLayout=stackLayout;horizontal=1;startSize=26;fillColor=none;horizontalStack=0;resizeParent=1;resizeParentMax=0;resizeLast=0;collapsible=1;marginBottom=0;whiteSpace=wrap;html=1;" parent="1" vertex="1">
          <mxGeometry x="490" y="4397" width="90" height="78" as="geometry" />
        </mxCell>
        <mxCell id="zuoORb6AN1eDVm8aNh5b-24" value="num = 7" style="text;strokeColor=none;fillColor=none;align=left;verticalAlign=top;spacingLeft=4;spacingRight=4;overflow=hidden;rotatable=0;points=[[0,0.5],[1,0.5]];portConstraint=eastwest;whiteSpace=wrap;html=1;" parent="zuoORb6AN1eDVm8aNh5b-23" vertex="1">
          <mxGeometry y="26" width="90" height="26" as="geometry" />
        </mxCell>
        <mxCell id="zuoORb6AN1eDVm8aNh5b-25" value="string = &quot;no&quot;" style="text;strokeColor=none;fillColor=none;align=left;verticalAlign=top;spacingLeft=4;spacingRight=4;overflow=hidden;rotatable=0;points=[[0,0.5],[1,0.5]];portConstraint=eastwest;whiteSpace=wrap;html=1;" parent="zuoORb6AN1eDVm8aNh5b-23" vertex="1">
          <mxGeometry y="52" width="90" height="26" as="geometry" />
        </mxCell>
        <mxCell id="zuoORb6AN1eDVm8aNh5b-26" value="Obj3" style="swimlane;fontStyle=0;childLayout=stackLayout;horizontal=1;startSize=26;fillColor=none;horizontalStack=0;resizeParent=1;resizeParentMax=0;resizeLast=0;collapsible=1;marginBottom=0;whiteSpace=wrap;html=1;" parent="1" vertex="1">
          <mxGeometry x="490" y="4487" width="90" height="78" as="geometry" />
        </mxCell>
        <mxCell id="zuoORb6AN1eDVm8aNh5b-27" value="num = 7" style="text;strokeColor=none;fillColor=none;align=left;verticalAlign=top;spacingLeft=4;spacingRight=4;overflow=hidden;rotatable=0;points=[[0,0.5],[1,0.5]];portConstraint=eastwest;whiteSpace=wrap;html=1;" parent="zuoORb6AN1eDVm8aNh5b-26" vertex="1">
          <mxGeometry y="26" width="90" height="26" as="geometry" />
        </mxCell>
        <mxCell id="zuoORb6AN1eDVm8aNh5b-28" value="string = &quot;yes&quot;" style="text;strokeColor=none;fillColor=none;align=left;verticalAlign=top;spacingLeft=4;spacingRight=4;overflow=hidden;rotatable=0;points=[[0,0.5],[1,0.5]];portConstraint=eastwest;whiteSpace=wrap;html=1;" parent="zuoORb6AN1eDVm8aNh5b-26" vertex="1">
          <mxGeometry y="52" width="90" height="26" as="geometry" />
        </mxCell>
        <mxCell id="zuoORb6AN1eDVm8aNh5b-29" style="edgeStyle=orthogonalEdgeStyle;rounded=0;orthogonalLoop=1;jettySize=auto;html=1;dashed=1;endArrow=open;endFill=0;" parent="1" source="zuoORb6AN1eDVm8aNh5b-31" target="zuoORb6AN1eDVm8aNh5b-6" edge="1">
          <mxGeometry relative="1" as="geometry">
            <Array as="points">
              <mxPoint x="130" y="4347" />
            </Array>
          </mxGeometry>
        </mxCell>
        <mxCell id="zuoORb6AN1eDVm8aNh5b-30" value="bindings" style="edgeLabel;html=1;align=center;verticalAlign=middle;resizable=0;points=[];" parent="zuoORb6AN1eDVm8aNh5b-29" vertex="1" connectable="0">
          <mxGeometry x="-0.2907" y="-1" relative="1" as="geometry">
            <mxPoint x="-1" y="9" as="offset" />
          </mxGeometry>
        </mxCell>
        <mxCell id="zuoORb6AN1eDVm8aNh5b-31" value="&lt;div style=&quot;text-align: center;&quot;&gt;&lt;span style=&quot;background-color: initial;&quot;&gt;&lt;i&gt;Execution&lt;/i&gt;&lt;/span&gt;&lt;/div&gt;&lt;div style=&quot;text-align: center;&quot;&gt;&lt;b style=&quot;background-color: initial;&quot;&gt;&lt;br&gt;&lt;/b&gt;&lt;/div&gt;&lt;div style=&quot;&quot;&gt;&lt;b style=&quot;background-color: initial;&quot;&gt;is_satisfied(bindings):&lt;/b&gt;&lt;/div&gt;&lt;div style=&quot;&quot;&gt;1. return NumericMatch.is_satisfied(bindings)&lt;/div&gt;&lt;div style=&quot;&quot;&gt;and&lt;/div&gt;&lt;div style=&quot;&quot;&gt;StringMatch.is_satisfied(bindings)&lt;/div&gt;" style="text;html=1;align=left;verticalAlign=middle;whiteSpace=wrap;rounded=0;fillColor=none;dashed=1;strokeWidth=1;strokeColor=default;" parent="1" vertex="1">
          <mxGeometry x="10" y="4369.5" width="220" height="107.5" as="geometry" />
        </mxCell>
        <mxCell id="zuoORb6AN1eDVm8aNh5b-32" style="edgeStyle=orthogonalEdgeStyle;rounded=0;orthogonalLoop=1;jettySize=auto;html=1;startArrow=open;startFill=0;dashed=1;endArrow=none;endFill=0;" parent="1" edge="1">
          <mxGeometry relative="1" as="geometry">
            <mxPoint x="60" y="4317" as="targetPoint" />
            <mxPoint x="180" y="4317" as="sourcePoint" />
            <Array as="points">
              <mxPoint x="50" y="4317" />
            </Array>
          </mxGeometry>
        </mxCell>
        <mxCell id="zuoORb6AN1eDVm8aNh5b-33" value="condition_satisfied()" style="edgeLabel;html=1;align=center;verticalAlign=middle;resizable=0;points=[];fontStyle=0" parent="zuoORb6AN1eDVm8aNh5b-32" vertex="1" connectable="0">
          <mxGeometry x="0.0706" y="-3" relative="1" as="geometry">
            <mxPoint x="-5" y="3" as="offset" />
          </mxGeometry>
        </mxCell>
      </root>
    </mxGraphModel>
  </diagram>
  <diagram id="gFCE2-nqXOd3IRjBJYld" name="Unification_Step2">
    <mxGraphModel dx="1222" dy="-2922" grid="1" gridSize="10" guides="1" tooltips="1" connect="1" arrows="1" fold="1" page="1" pageScale="1" pageWidth="590" pageHeight="520" math="0" shadow="0">
      <root>
        <mxCell id="0" />
        <mxCell id="1" parent="0" />
        <mxCell id="z9A2ra9l87U0p7Md_i3L-1" style="edgeStyle=orthogonalEdgeStyle;rounded=0;orthogonalLoop=1;jettySize=auto;html=1;endArrow=none;endFill=0;startArrow=diamond;startFill=0;startSize=20;" parent="1" source="z9A2ra9l87U0p7Md_i3L-12" target="z9A2ra9l87U0p7Md_i3L-18" edge="1">
          <mxGeometry relative="1" as="geometry">
            <Array as="points">
              <mxPoint x="270" y="3850" />
              <mxPoint x="330" y="3850" />
            </Array>
          </mxGeometry>
        </mxCell>
        <mxCell id="z9A2ra9l87U0p7Md_i3L-2" style="edgeStyle=orthogonalEdgeStyle;rounded=0;orthogonalLoop=1;jettySize=auto;html=1;startArrow=diamond;startFill=1;endArrow=none;endFill=0;startSize=20;" parent="1" source="z9A2ra9l87U0p7Md_i3L-6" target="z9A2ra9l87U0p7Md_i3L-12" edge="1">
          <mxGeometry relative="1" as="geometry" />
        </mxCell>
        <mxCell id="z9A2ra9l87U0p7Md_i3L-3" value="Condition" style="edgeLabel;html=1;align=center;verticalAlign=middle;resizable=0;points=[];fontStyle=0" parent="z9A2ra9l87U0p7Md_i3L-2" vertex="1" connectable="0">
          <mxGeometry x="0.1926" y="3" relative="1" as="geometry">
            <mxPoint x="3" y="3" as="offset" />
          </mxGeometry>
        </mxCell>
        <mxCell id="z9A2ra9l87U0p7Md_i3L-4" style="edgeStyle=orthogonalEdgeStyle;rounded=0;orthogonalLoop=1;jettySize=auto;html=1;dashed=1;endArrow=open;endFill=0;" parent="1" source="z9A2ra9l87U0p7Md_i3L-6" target="z9A2ra9l87U0p7Md_i3L-12" edge="1">
          <mxGeometry relative="1" as="geometry">
            <Array as="points">
              <mxPoint x="310" y="3730" />
              <mxPoint x="370" y="3730" />
              <mxPoint x="370" y="3765" />
            </Array>
          </mxGeometry>
        </mxCell>
        <mxCell id="z9A2ra9l87U0p7Md_i3L-5" value="is_satisfied(bindings)" style="edgeLabel;html=1;align=center;verticalAlign=middle;resizable=0;points=[];fontStyle=0" parent="z9A2ra9l87U0p7Md_i3L-4" vertex="1" connectable="0">
          <mxGeometry x="-0.0495" y="2" relative="1" as="geometry">
            <mxPoint x="1" y="15" as="offset" />
          </mxGeometry>
        </mxCell>
        <mxCell id="z9A2ra9l87U0p7Md_i3L-6" value="Rule" style="swimlane;fontStyle=0;childLayout=stackLayout;horizontal=1;startSize=26;fillColor=none;horizontalStack=0;resizeParent=1;resizeParentMax=0;resizeLast=0;collapsible=1;marginBottom=0;whiteSpace=wrap;html=1;" parent="1" vertex="1">
          <mxGeometry x="180" y="3650" width="180" height="52" as="geometry" />
        </mxCell>
        <mxCell id="z9A2ra9l87U0p7Md_i3L-7" value="bindings = {}" style="text;strokeColor=none;fillColor=none;align=left;verticalAlign=top;spacingLeft=4;spacingRight=4;overflow=hidden;rotatable=0;points=[[0,0.5],[1,0.5]];portConstraint=eastwest;whiteSpace=wrap;html=1;" parent="z9A2ra9l87U0p7Md_i3L-6" vertex="1">
          <mxGeometry y="26" width="180" height="26" as="geometry" />
        </mxCell>
        <mxCell id="z9A2ra9l87U0p7Md_i3L-8" style="edgeStyle=orthogonalEdgeStyle;rounded=0;orthogonalLoop=1;jettySize=auto;html=1;endArrow=none;endFill=0;startArrow=diamond;startFill=0;startSize=20;" parent="1" source="z9A2ra9l87U0p7Md_i3L-12" target="z9A2ra9l87U0p7Md_i3L-13" edge="1">
          <mxGeometry relative="1" as="geometry">
            <Array as="points">
              <mxPoint x="270" y="3850" />
              <mxPoint x="210" y="3850" />
            </Array>
          </mxGeometry>
        </mxCell>
        <mxCell id="z9A2ra9l87U0p7Md_i3L-9" value="Subconditions" style="edgeLabel;html=1;align=center;verticalAlign=middle;resizable=0;points=[];fontStyle=0" parent="z9A2ra9l87U0p7Md_i3L-8" vertex="1" connectable="0">
          <mxGeometry x="-0.2062" y="1" relative="1" as="geometry">
            <mxPoint x="-1" y="8" as="offset" />
          </mxGeometry>
        </mxCell>
        <mxCell id="z9A2ra9l87U0p7Md_i3L-10" style="edgeStyle=orthogonalEdgeStyle;rounded=0;orthogonalLoop=1;jettySize=auto;html=1;dashed=1;endArrow=open;endFill=0;" parent="1" source="z9A2ra9l87U0p7Md_i3L-12" target="z9A2ra9l87U0p7Md_i3L-13" edge="1">
          <mxGeometry relative="1" as="geometry">
            <Array as="points">
              <mxPoint x="240" y="3830" />
              <mxPoint x="180" y="3830" />
            </Array>
          </mxGeometry>
        </mxCell>
        <mxCell id="z9A2ra9l87U0p7Md_i3L-11" value="is_satisfied(bindings)" style="edgeLabel;html=1;align=center;verticalAlign=middle;resizable=0;points=[];fontStyle=1" parent="z9A2ra9l87U0p7Md_i3L-10" vertex="1" connectable="0">
          <mxGeometry x="0.6212" relative="1" as="geometry">
            <mxPoint x="-30" y="-7" as="offset" />
          </mxGeometry>
        </mxCell>
        <mxCell id="z9A2ra9l87U0p7Md_i3L-12" value="ANDMatch" style="html=1;whiteSpace=wrap;fillColor=#fad9d5;strokeColor=#ae4132;" parent="1" vertex="1">
          <mxGeometry x="230" y="3750" width="80" height="30" as="geometry" />
        </mxCell>
        <mxCell id="z9A2ra9l87U0p7Md_i3L-13" value="NumericMatch" style="swimlane;fontStyle=0;childLayout=stackLayout;horizontal=1;startSize=26;fillColor=#fad9d5;horizontalStack=0;resizeParent=1;resizeParentMax=0;resizeLast=0;collapsible=1;marginBottom=0;whiteSpace=wrap;html=1;strokeColor=#ae4132;" parent="1" vertex="1">
          <mxGeometry x="140" y="3876" width="110" height="130" as="geometry" />
        </mxCell>
        <mxCell id="z9A2ra9l87U0p7Md_i3L-14" value="tester = ?var" style="text;strokeColor=none;fillColor=#fad9d5;align=left;verticalAlign=top;spacingLeft=4;spacingRight=4;overflow=hidden;rotatable=0;points=[[0,0.5],[1,0.5]];portConstraint=eastwest;whiteSpace=wrap;html=1;" parent="z9A2ra9l87U0p7Md_i3L-13" vertex="1">
          <mxGeometry y="26" width="110" height="26" as="geometry" />
        </mxCell>
        <mxCell id="z9A2ra9l87U0p7Md_i3L-15" value="property = &quot;num&quot;" style="text;strokeColor=none;fillColor=#fad9d5;align=left;verticalAlign=top;spacingLeft=4;spacingRight=4;overflow=hidden;rotatable=0;points=[[0,0.5],[1,0.5]];portConstraint=eastwest;whiteSpace=wrap;html=1;" parent="z9A2ra9l87U0p7Md_i3L-13" vertex="1">
          <mxGeometry y="52" width="110" height="26" as="geometry" />
        </mxCell>
        <mxCell id="z9A2ra9l87U0p7Md_i3L-16" value="min = 5" style="text;strokeColor=none;fillColor=#fad9d5;align=left;verticalAlign=top;spacingLeft=4;spacingRight=4;overflow=hidden;rotatable=0;points=[[0,0.5],[1,0.5]];portConstraint=eastwest;whiteSpace=wrap;html=1;" parent="z9A2ra9l87U0p7Md_i3L-13" vertex="1">
          <mxGeometry y="78" width="110" height="26" as="geometry" />
        </mxCell>
        <mxCell id="z9A2ra9l87U0p7Md_i3L-17" value="max = 10" style="text;strokeColor=none;fillColor=#fad9d5;align=left;verticalAlign=top;spacingLeft=4;spacingRight=4;overflow=hidden;rotatable=0;points=[[0,0.5],[1,0.5]];portConstraint=eastwest;whiteSpace=wrap;html=1;" parent="z9A2ra9l87U0p7Md_i3L-13" vertex="1">
          <mxGeometry y="104" width="110" height="26" as="geometry" />
        </mxCell>
        <mxCell id="z9A2ra9l87U0p7Md_i3L-18" value="StringMatch" style="swimlane;fontStyle=0;childLayout=stackLayout;horizontal=1;startSize=26;fillColor=none;horizontalStack=0;resizeParent=1;resizeParentMax=0;resizeLast=0;collapsible=1;marginBottom=0;whiteSpace=wrap;html=1;" parent="1" vertex="1">
          <mxGeometry x="280" y="3876" width="110" height="104" as="geometry" />
        </mxCell>
        <mxCell id="z9A2ra9l87U0p7Md_i3L-19" value="tester = ?var" style="text;strokeColor=none;fillColor=none;align=left;verticalAlign=top;spacingLeft=4;spacingRight=4;overflow=hidden;rotatable=0;points=[[0,0.5],[1,0.5]];portConstraint=eastwest;whiteSpace=wrap;html=1;" parent="z9A2ra9l87U0p7Md_i3L-18" vertex="1">
          <mxGeometry y="26" width="110" height="26" as="geometry" />
        </mxCell>
        <mxCell id="z9A2ra9l87U0p7Md_i3L-20" value="property = &quot;string&quot;" style="text;strokeColor=none;fillColor=none;align=left;verticalAlign=top;spacingLeft=4;spacingRight=4;overflow=hidden;rotatable=0;points=[[0,0.5],[1,0.5]];portConstraint=eastwest;whiteSpace=wrap;html=1;" parent="z9A2ra9l87U0p7Md_i3L-18" vertex="1">
          <mxGeometry y="52" width="110" height="26" as="geometry" />
        </mxCell>
        <mxCell id="z9A2ra9l87U0p7Md_i3L-21" value="value = &quot;yes&quot;" style="text;strokeColor=none;fillColor=none;align=left;verticalAlign=top;spacingLeft=4;spacingRight=4;overflow=hidden;rotatable=0;points=[[0,0.5],[1,0.5]];portConstraint=eastwest;whiteSpace=wrap;html=1;" parent="z9A2ra9l87U0p7Md_i3L-18" vertex="1">
          <mxGeometry y="78" width="110" height="26" as="geometry" />
        </mxCell>
        <mxCell id="z9A2ra9l87U0p7Md_i3L-22" value="Obj1" style="swimlane;fontStyle=0;childLayout=stackLayout;horizontal=1;startSize=26;fillColor=none;horizontalStack=0;resizeParent=1;resizeParentMax=0;resizeLast=0;collapsible=1;marginBottom=0;whiteSpace=wrap;html=1;" parent="1" vertex="1">
          <mxGeometry x="490" y="3650" width="90" height="78" as="geometry" />
        </mxCell>
        <mxCell id="z9A2ra9l87U0p7Md_i3L-23" value="num = 0" style="text;strokeColor=none;fillColor=none;align=left;verticalAlign=top;spacingLeft=4;spacingRight=4;overflow=hidden;rotatable=0;points=[[0,0.5],[1,0.5]];portConstraint=eastwest;whiteSpace=wrap;html=1;fontStyle=1" parent="z9A2ra9l87U0p7Md_i3L-22" vertex="1">
          <mxGeometry y="26" width="90" height="26" as="geometry" />
        </mxCell>
        <mxCell id="z9A2ra9l87U0p7Md_i3L-24" value="string = &quot;yes&quot;" style="text;strokeColor=none;fillColor=none;align=left;verticalAlign=top;spacingLeft=4;spacingRight=4;overflow=hidden;rotatable=0;points=[[0,0.5],[1,0.5]];portConstraint=eastwest;whiteSpace=wrap;html=1;" parent="z9A2ra9l87U0p7Md_i3L-22" vertex="1">
          <mxGeometry y="52" width="90" height="26" as="geometry" />
        </mxCell>
        <mxCell id="z9A2ra9l87U0p7Md_i3L-25" value="Obj2" style="swimlane;fontStyle=0;childLayout=stackLayout;horizontal=1;startSize=26;fillColor=none;horizontalStack=0;resizeParent=1;resizeParentMax=0;resizeLast=0;collapsible=1;marginBottom=0;whiteSpace=wrap;html=1;" parent="1" vertex="1">
          <mxGeometry x="490" y="3740" width="90" height="78" as="geometry" />
        </mxCell>
        <mxCell id="z9A2ra9l87U0p7Md_i3L-26" value="num = 7" style="text;strokeColor=none;fillColor=none;align=left;verticalAlign=top;spacingLeft=4;spacingRight=4;overflow=hidden;rotatable=0;points=[[0,0.5],[1,0.5]];portConstraint=eastwest;whiteSpace=wrap;html=1;fontStyle=1" parent="z9A2ra9l87U0p7Md_i3L-25" vertex="1">
          <mxGeometry y="26" width="90" height="26" as="geometry" />
        </mxCell>
        <mxCell id="z9A2ra9l87U0p7Md_i3L-27" value="string = &quot;no&quot;" style="text;strokeColor=none;fillColor=none;align=left;verticalAlign=top;spacingLeft=4;spacingRight=4;overflow=hidden;rotatable=0;points=[[0,0.5],[1,0.5]];portConstraint=eastwest;whiteSpace=wrap;html=1;" parent="z9A2ra9l87U0p7Md_i3L-25" vertex="1">
          <mxGeometry y="52" width="90" height="26" as="geometry" />
        </mxCell>
        <mxCell id="z9A2ra9l87U0p7Md_i3L-28" value="Obj3" style="swimlane;fontStyle=0;childLayout=stackLayout;horizontal=1;startSize=26;fillColor=none;horizontalStack=0;resizeParent=1;resizeParentMax=0;resizeLast=0;collapsible=1;marginBottom=0;whiteSpace=wrap;html=1;" parent="1" vertex="1">
          <mxGeometry x="490" y="3830" width="90" height="78" as="geometry" />
        </mxCell>
        <mxCell id="z9A2ra9l87U0p7Md_i3L-29" value="num = 7" style="text;strokeColor=none;fillColor=none;align=left;verticalAlign=top;spacingLeft=4;spacingRight=4;overflow=hidden;rotatable=0;points=[[0,0.5],[1,0.5]];portConstraint=eastwest;whiteSpace=wrap;html=1;fontStyle=1" parent="z9A2ra9l87U0p7Md_i3L-28" vertex="1">
          <mxGeometry y="26" width="90" height="26" as="geometry" />
        </mxCell>
        <mxCell id="z9A2ra9l87U0p7Md_i3L-30" value="string = &quot;yes&quot;" style="text;strokeColor=none;fillColor=none;align=left;verticalAlign=top;spacingLeft=4;spacingRight=4;overflow=hidden;rotatable=0;points=[[0,0.5],[1,0.5]];portConstraint=eastwest;whiteSpace=wrap;html=1;" parent="z9A2ra9l87U0p7Md_i3L-28" vertex="1">
          <mxGeometry y="52" width="90" height="26" as="geometry" />
        </mxCell>
        <mxCell id="z9A2ra9l87U0p7Md_i3L-31" style="edgeStyle=orthogonalEdgeStyle;rounded=0;orthogonalLoop=1;jettySize=auto;html=1;dashed=1;endArrow=open;endFill=0;" parent="1" source="z9A2ra9l87U0p7Md_i3L-37" target="z9A2ra9l87U0p7Md_i3L-7" edge="1">
          <mxGeometry relative="1" as="geometry">
            <Array as="points">
              <mxPoint x="440" y="4030" />
              <mxPoint x="440" y="3689" />
            </Array>
          </mxGeometry>
        </mxCell>
        <mxCell id="z9A2ra9l87U0p7Md_i3L-32" value="bindings" style="edgeLabel;html=1;align=center;verticalAlign=middle;resizable=0;points=[];" parent="z9A2ra9l87U0p7Md_i3L-31" vertex="1" connectable="0">
          <mxGeometry x="-0.8177" relative="1" as="geometry">
            <mxPoint x="6" as="offset" />
          </mxGeometry>
        </mxCell>
        <mxCell id="z9A2ra9l87U0p7Md_i3L-33" style="edgeStyle=orthogonalEdgeStyle;rounded=0;orthogonalLoop=1;jettySize=auto;html=1;dashed=1;endArrow=open;endFill=0;" parent="1" source="z9A2ra9l87U0p7Md_i3L-37" target="z9A2ra9l87U0p7Md_i3L-22" edge="1">
          <mxGeometry relative="1" as="geometry">
            <Array as="points">
              <mxPoint x="470" y="4083" />
              <mxPoint x="470" y="3670" />
            </Array>
          </mxGeometry>
        </mxCell>
        <mxCell id="z9A2ra9l87U0p7Md_i3L-34" style="edgeStyle=orthogonalEdgeStyle;rounded=0;orthogonalLoop=1;jettySize=auto;html=1;dashed=1;endArrow=open;endFill=0;" parent="1" source="z9A2ra9l87U0p7Md_i3L-37" target="z9A2ra9l87U0p7Md_i3L-25" edge="1">
          <mxGeometry relative="1" as="geometry">
            <Array as="points">
              <mxPoint x="470" y="4083" />
              <mxPoint x="470" y="3760" />
            </Array>
          </mxGeometry>
        </mxCell>
        <mxCell id="z9A2ra9l87U0p7Md_i3L-35" style="edgeStyle=orthogonalEdgeStyle;rounded=0;orthogonalLoop=1;jettySize=auto;html=1;dashed=1;endArrow=open;endFill=0;" parent="1" source="z9A2ra9l87U0p7Md_i3L-37" target="z9A2ra9l87U0p7Md_i3L-28" edge="1">
          <mxGeometry relative="1" as="geometry">
            <Array as="points">
              <mxPoint x="470" y="4083" />
              <mxPoint x="470" y="3850" />
            </Array>
          </mxGeometry>
        </mxCell>
        <mxCell id="z9A2ra9l87U0p7Md_i3L-36" value="get_candidates()" style="edgeLabel;html=1;align=center;verticalAlign=middle;resizable=0;points=[];fontStyle=1" parent="z9A2ra9l87U0p7Md_i3L-35" vertex="1" connectable="0">
          <mxGeometry x="-0.5306" y="-2" relative="1" as="geometry">
            <mxPoint x="-29" y="-2" as="offset" />
          </mxGeometry>
        </mxCell>
        <mxCell id="z9A2ra9l87U0p7Md_i3L-37" value="&lt;div style=&quot;text-align: center;&quot;&gt;&lt;span style=&quot;background-color: initial;&quot;&gt;&lt;i&gt;Execution&lt;/i&gt;&lt;/span&gt;&lt;/div&gt;&lt;div style=&quot;text-align: center;&quot;&gt;&lt;b style=&quot;background-color: initial;&quot;&gt;&lt;br&gt;&lt;/b&gt;&lt;/div&gt;&lt;div style=&quot;&quot;&gt;&lt;b style=&quot;background-color: initial;&quot;&gt;is_satisfied(bindings):&lt;/b&gt;&lt;/div&gt;1. (?var in bindings) == false&lt;br&gt;2. candidates = [Object1, Object2, Object3]&lt;br&gt;3. filter candidates&lt;br&gt;4. valid = [Obj2, Obj3]&lt;br&gt;5. bindings[?var] = [Obj2, Obj3]&lt;br&gt;6. &lt;b&gt;return true&lt;/b&gt;" style="text;html=1;align=left;verticalAlign=middle;whiteSpace=wrap;rounded=0;fillColor=none;dashed=1;strokeWidth=1;strokeColor=default;" parent="1" vertex="1">
          <mxGeometry x="80" y="4006" width="240" height="134" as="geometry" />
        </mxCell>
        <mxCell id="z9A2ra9l87U0p7Md_i3L-38" style="edgeStyle=orthogonalEdgeStyle;rounded=0;orthogonalLoop=1;jettySize=auto;html=1;dashed=1;endArrow=open;endFill=0;" parent="1" source="z9A2ra9l87U0p7Md_i3L-40" target="z9A2ra9l87U0p7Md_i3L-6" edge="1">
          <mxGeometry relative="1" as="geometry">
            <Array as="points">
              <mxPoint x="130" y="3690" />
            </Array>
          </mxGeometry>
        </mxCell>
        <mxCell id="z9A2ra9l87U0p7Md_i3L-39" value="bindings" style="edgeLabel;html=1;align=center;verticalAlign=middle;resizable=0;points=[];" parent="z9A2ra9l87U0p7Md_i3L-38" vertex="1" connectable="0">
          <mxGeometry x="-0.2907" y="-1" relative="1" as="geometry">
            <mxPoint x="-1" y="9" as="offset" />
          </mxGeometry>
        </mxCell>
        <mxCell id="z9A2ra9l87U0p7Md_i3L-40" value="&lt;div style=&quot;text-align: center;&quot;&gt;&lt;span style=&quot;background-color: initial;&quot;&gt;&lt;i&gt;Execution&lt;/i&gt;&lt;/span&gt;&lt;/div&gt;&lt;div style=&quot;text-align: center;&quot;&gt;&lt;b style=&quot;background-color: initial;&quot;&gt;&lt;br&gt;&lt;/b&gt;&lt;/div&gt;&lt;div style=&quot;&quot;&gt;&lt;span style=&quot;background-color: initial;&quot;&gt;is_satisfied(bindings):&lt;/span&gt;&lt;/div&gt;&lt;div style=&quot;&quot;&gt;1. return &lt;b&gt;NumericMatch.is_satisfied(bindings)&lt;/b&gt;&lt;/div&gt;&lt;div style=&quot;&quot;&gt; and&amp;nbsp;&lt;/div&gt;&lt;div style=&quot;&quot;&gt;StringMatch.is_satisfied(bindings)&lt;/div&gt;" style="text;html=1;align=left;verticalAlign=middle;whiteSpace=wrap;rounded=0;fillColor=none;dashed=1;strokeWidth=1;strokeColor=default;" parent="1" vertex="1">
          <mxGeometry x="10" y="3712.5" width="220" height="107.5" as="geometry" />
        </mxCell>
        <mxCell id="z9A2ra9l87U0p7Md_i3L-41" style="edgeStyle=orthogonalEdgeStyle;rounded=0;orthogonalLoop=1;jettySize=auto;html=1;startArrow=open;startFill=0;dashed=1;endArrow=none;endFill=0;" parent="1" edge="1">
          <mxGeometry relative="1" as="geometry">
            <mxPoint x="60" y="3660" as="targetPoint" />
            <mxPoint x="180" y="3660" as="sourcePoint" />
            <Array as="points">
              <mxPoint x="50" y="3660" />
            </Array>
          </mxGeometry>
        </mxCell>
        <mxCell id="z9A2ra9l87U0p7Md_i3L-42" value="condition_satisfied()" style="edgeLabel;html=1;align=center;verticalAlign=middle;resizable=0;points=[];fontStyle=0" parent="z9A2ra9l87U0p7Md_i3L-41" vertex="1" connectable="0">
          <mxGeometry x="0.0706" y="-3" relative="1" as="geometry">
            <mxPoint x="-5" y="3" as="offset" />
          </mxGeometry>
        </mxCell>
      </root>
    </mxGraphModel>
  </diagram>
  <diagram id="ioXC49_fa8MWWDwhQFAu" name="Unification_Step3">
    <mxGraphModel dx="1222" dy="-4182" grid="1" gridSize="10" guides="1" tooltips="1" connect="1" arrows="1" fold="1" page="1" pageScale="1" pageWidth="590" pageHeight="490" math="0" shadow="0">
      <root>
        <mxCell id="0" />
        <mxCell id="1" parent="0" />
        <mxCell id="pHhWCxgh4spuMTg9J9OU-1" style="edgeStyle=orthogonalEdgeStyle;rounded=0;orthogonalLoop=1;jettySize=auto;html=1;endArrow=none;endFill=0;startArrow=diamond;startFill=0;startSize=20;" parent="1" source="pHhWCxgh4spuMTg9J9OU-15" target="pHhWCxgh4spuMTg9J9OU-21" edge="1">
          <mxGeometry relative="1" as="geometry">
            <Array as="points">
              <mxPoint x="270" y="5115" />
              <mxPoint x="330" y="5115" />
            </Array>
          </mxGeometry>
        </mxCell>
        <mxCell id="pHhWCxgh4spuMTg9J9OU-2" style="edgeStyle=orthogonalEdgeStyle;rounded=0;orthogonalLoop=1;jettySize=auto;html=1;startArrow=diamond;startFill=1;endArrow=none;endFill=0;startSize=20;" parent="1" source="pHhWCxgh4spuMTg9J9OU-9" target="pHhWCxgh4spuMTg9J9OU-15" edge="1">
          <mxGeometry relative="1" as="geometry" />
        </mxCell>
        <mxCell id="pHhWCxgh4spuMTg9J9OU-3" value="Condition" style="edgeLabel;html=1;align=center;verticalAlign=middle;resizable=0;points=[];fontStyle=0" parent="pHhWCxgh4spuMTg9J9OU-2" vertex="1" connectable="0">
          <mxGeometry x="0.1926" y="3" relative="1" as="geometry">
            <mxPoint x="3" y="3" as="offset" />
          </mxGeometry>
        </mxCell>
        <mxCell id="pHhWCxgh4spuMTg9J9OU-4" style="edgeStyle=orthogonalEdgeStyle;rounded=0;orthogonalLoop=1;jettySize=auto;html=1;dashed=1;endArrow=open;endFill=0;" parent="1" source="pHhWCxgh4spuMTg9J9OU-9" target="pHhWCxgh4spuMTg9J9OU-15" edge="1">
          <mxGeometry relative="1" as="geometry">
            <Array as="points">
              <mxPoint x="310" y="4995" />
              <mxPoint x="370" y="4995" />
              <mxPoint x="370" y="5030" />
            </Array>
          </mxGeometry>
        </mxCell>
        <mxCell id="pHhWCxgh4spuMTg9J9OU-5" value="is_satisfied(bindings)" style="edgeLabel;html=1;align=center;verticalAlign=middle;resizable=0;points=[];fontStyle=0" parent="pHhWCxgh4spuMTg9J9OU-4" vertex="1" connectable="0">
          <mxGeometry x="-0.0495" y="2" relative="1" as="geometry">
            <mxPoint x="1" y="15" as="offset" />
          </mxGeometry>
        </mxCell>
        <mxCell id="pHhWCxgh4spuMTg9J9OU-6" style="edgeStyle=orthogonalEdgeStyle;rounded=0;orthogonalLoop=1;jettySize=auto;html=1;dashed=1;endArrow=open;endFill=0;" parent="1" source="pHhWCxgh4spuMTg9J9OU-9" target="pHhWCxgh4spuMTg9J9OU-28" edge="1">
          <mxGeometry relative="1" as="geometry">
            <Array as="points">
              <mxPoint x="470" y="4925" />
              <mxPoint x="470" y="5025" />
            </Array>
          </mxGeometry>
        </mxCell>
        <mxCell id="pHhWCxgh4spuMTg9J9OU-7" style="edgeStyle=orthogonalEdgeStyle;rounded=0;orthogonalLoop=1;jettySize=auto;html=1;dashed=1;endArrow=open;endFill=0;" parent="1" source="pHhWCxgh4spuMTg9J9OU-9" target="pHhWCxgh4spuMTg9J9OU-31" edge="1">
          <mxGeometry relative="1" as="geometry">
            <Array as="points">
              <mxPoint x="470" y="4925" />
              <mxPoint x="470" y="5115" />
            </Array>
          </mxGeometry>
        </mxCell>
        <mxCell id="pHhWCxgh4spuMTg9J9OU-8" value="bindings" style="edgeLabel;html=1;align=center;verticalAlign=middle;resizable=0;points=[];" parent="pHhWCxgh4spuMTg9J9OU-7" vertex="1" connectable="0">
          <mxGeometry x="-0.8052" y="-1" relative="1" as="geometry">
            <mxPoint x="17" as="offset" />
          </mxGeometry>
        </mxCell>
        <mxCell id="pHhWCxgh4spuMTg9J9OU-9" value="Rule" style="swimlane;fontStyle=0;childLayout=stackLayout;horizontal=1;startSize=26;fillColor=none;horizontalStack=0;resizeParent=1;resizeParentMax=0;resizeLast=0;collapsible=1;marginBottom=0;whiteSpace=wrap;html=1;" parent="1" vertex="1">
          <mxGeometry x="180" y="4915" width="180" height="52" as="geometry" />
        </mxCell>
        <mxCell id="pHhWCxgh4spuMTg9J9OU-10" value="bindings = {?var: [Obj2, Obj3]}" style="text;strokeColor=none;fillColor=none;align=left;verticalAlign=top;spacingLeft=4;spacingRight=4;overflow=hidden;rotatable=0;points=[[0,0.5],[1,0.5]];portConstraint=eastwest;whiteSpace=wrap;html=1;" parent="pHhWCxgh4spuMTg9J9OU-9" vertex="1">
          <mxGeometry y="26" width="180" height="26" as="geometry" />
        </mxCell>
        <mxCell id="pHhWCxgh4spuMTg9J9OU-11" style="edgeStyle=orthogonalEdgeStyle;rounded=0;orthogonalLoop=1;jettySize=auto;html=1;endArrow=none;endFill=0;startArrow=diamond;startFill=0;startSize=20;" parent="1" source="pHhWCxgh4spuMTg9J9OU-15" target="pHhWCxgh4spuMTg9J9OU-16" edge="1">
          <mxGeometry relative="1" as="geometry">
            <Array as="points">
              <mxPoint x="270" y="5115" />
              <mxPoint x="210" y="5115" />
            </Array>
          </mxGeometry>
        </mxCell>
        <mxCell id="pHhWCxgh4spuMTg9J9OU-12" value="Subconditions" style="edgeLabel;html=1;align=center;verticalAlign=middle;resizable=0;points=[];fontStyle=0" parent="pHhWCxgh4spuMTg9J9OU-11" vertex="1" connectable="0">
          <mxGeometry x="-0.2062" y="1" relative="1" as="geometry">
            <mxPoint x="-1" y="8" as="offset" />
          </mxGeometry>
        </mxCell>
        <mxCell id="pHhWCxgh4spuMTg9J9OU-13" style="edgeStyle=orthogonalEdgeStyle;rounded=0;orthogonalLoop=1;jettySize=auto;html=1;dashed=1;endArrow=open;endFill=0;" parent="1" source="pHhWCxgh4spuMTg9J9OU-15" target="pHhWCxgh4spuMTg9J9OU-21" edge="1">
          <mxGeometry relative="1" as="geometry">
            <Array as="points">
              <mxPoint x="300" y="5095" />
              <mxPoint x="360" y="5095" />
            </Array>
          </mxGeometry>
        </mxCell>
        <mxCell id="pHhWCxgh4spuMTg9J9OU-14" value="is_satisfied(bindings)" style="edgeLabel;html=1;align=center;verticalAlign=middle;resizable=0;points=[];fontStyle=1" parent="pHhWCxgh4spuMTg9J9OU-13" vertex="1" connectable="0">
          <mxGeometry x="0.6693" y="-3" relative="1" as="geometry">
            <mxPoint x="13" y="-10" as="offset" />
          </mxGeometry>
        </mxCell>
        <mxCell id="pHhWCxgh4spuMTg9J9OU-15" value="ANDMatch" style="html=1;whiteSpace=wrap;fillColor=#fad9d5;strokeColor=#ae4132;" parent="1" vertex="1">
          <mxGeometry x="230" y="5015" width="80" height="30" as="geometry" />
        </mxCell>
        <mxCell id="pHhWCxgh4spuMTg9J9OU-16" value="NumericMatch" style="swimlane;fontStyle=0;childLayout=stackLayout;horizontal=1;startSize=26;fillColor=none;horizontalStack=0;resizeParent=1;resizeParentMax=0;resizeLast=0;collapsible=1;marginBottom=0;whiteSpace=wrap;html=1;" parent="1" vertex="1">
          <mxGeometry x="140" y="5141" width="110" height="130" as="geometry" />
        </mxCell>
        <mxCell id="pHhWCxgh4spuMTg9J9OU-17" value="tester = ?var" style="text;strokeColor=none;fillColor=none;align=left;verticalAlign=top;spacingLeft=4;spacingRight=4;overflow=hidden;rotatable=0;points=[[0,0.5],[1,0.5]];portConstraint=eastwest;whiteSpace=wrap;html=1;" parent="pHhWCxgh4spuMTg9J9OU-16" vertex="1">
          <mxGeometry y="26" width="110" height="26" as="geometry" />
        </mxCell>
        <mxCell id="pHhWCxgh4spuMTg9J9OU-18" value="property = &quot;num&quot;" style="text;strokeColor=none;fillColor=none;align=left;verticalAlign=top;spacingLeft=4;spacingRight=4;overflow=hidden;rotatable=0;points=[[0,0.5],[1,0.5]];portConstraint=eastwest;whiteSpace=wrap;html=1;" parent="pHhWCxgh4spuMTg9J9OU-16" vertex="1">
          <mxGeometry y="52" width="110" height="26" as="geometry" />
        </mxCell>
        <mxCell id="pHhWCxgh4spuMTg9J9OU-19" value="min = 5" style="text;strokeColor=none;fillColor=none;align=left;verticalAlign=top;spacingLeft=4;spacingRight=4;overflow=hidden;rotatable=0;points=[[0,0.5],[1,0.5]];portConstraint=eastwest;whiteSpace=wrap;html=1;" parent="pHhWCxgh4spuMTg9J9OU-16" vertex="1">
          <mxGeometry y="78" width="110" height="26" as="geometry" />
        </mxCell>
        <mxCell id="pHhWCxgh4spuMTg9J9OU-20" value="max = 10" style="text;strokeColor=none;fillColor=none;align=left;verticalAlign=top;spacingLeft=4;spacingRight=4;overflow=hidden;rotatable=0;points=[[0,0.5],[1,0.5]];portConstraint=eastwest;whiteSpace=wrap;html=1;" parent="pHhWCxgh4spuMTg9J9OU-16" vertex="1">
          <mxGeometry y="104" width="110" height="26" as="geometry" />
        </mxCell>
        <mxCell id="pHhWCxgh4spuMTg9J9OU-21" value="StringMatch" style="swimlane;fontStyle=0;childLayout=stackLayout;horizontal=1;startSize=26;fillColor=#fad9d5;horizontalStack=0;resizeParent=1;resizeParentMax=0;resizeLast=0;collapsible=1;marginBottom=0;whiteSpace=wrap;html=1;strokeColor=#ae4132;" parent="1" vertex="1">
          <mxGeometry x="280" y="5141" width="110" height="104" as="geometry" />
        </mxCell>
        <mxCell id="pHhWCxgh4spuMTg9J9OU-22" value="tester = ?var" style="text;strokeColor=none;fillColor=#fad9d5;align=left;verticalAlign=top;spacingLeft=4;spacingRight=4;overflow=hidden;rotatable=0;points=[[0,0.5],[1,0.5]];portConstraint=eastwest;whiteSpace=wrap;html=1;" parent="pHhWCxgh4spuMTg9J9OU-21" vertex="1">
          <mxGeometry y="26" width="110" height="26" as="geometry" />
        </mxCell>
        <mxCell id="pHhWCxgh4spuMTg9J9OU-23" value="property = &quot;string&quot;" style="text;strokeColor=none;fillColor=#fad9d5;align=left;verticalAlign=top;spacingLeft=4;spacingRight=4;overflow=hidden;rotatable=0;points=[[0,0.5],[1,0.5]];portConstraint=eastwest;whiteSpace=wrap;html=1;" parent="pHhWCxgh4spuMTg9J9OU-21" vertex="1">
          <mxGeometry y="52" width="110" height="26" as="geometry" />
        </mxCell>
        <mxCell id="pHhWCxgh4spuMTg9J9OU-24" value="value = &quot;yes&quot;" style="text;strokeColor=none;fillColor=#fad9d5;align=left;verticalAlign=top;spacingLeft=4;spacingRight=4;overflow=hidden;rotatable=0;points=[[0,0.5],[1,0.5]];portConstraint=eastwest;whiteSpace=wrap;html=1;" parent="pHhWCxgh4spuMTg9J9OU-21" vertex="1">
          <mxGeometry y="78" width="110" height="26" as="geometry" />
        </mxCell>
        <mxCell id="pHhWCxgh4spuMTg9J9OU-25" value="Obj1" style="swimlane;fontStyle=0;childLayout=stackLayout;horizontal=1;startSize=26;fillColor=none;horizontalStack=0;resizeParent=1;resizeParentMax=0;resizeLast=0;collapsible=1;marginBottom=0;whiteSpace=wrap;html=1;" parent="1" vertex="1">
          <mxGeometry x="490" y="4915" width="90" height="78" as="geometry" />
        </mxCell>
        <mxCell id="pHhWCxgh4spuMTg9J9OU-26" value="num = 0" style="text;strokeColor=none;fillColor=none;align=left;verticalAlign=top;spacingLeft=4;spacingRight=4;overflow=hidden;rotatable=0;points=[[0,0.5],[1,0.5]];portConstraint=eastwest;whiteSpace=wrap;html=1;" parent="pHhWCxgh4spuMTg9J9OU-25" vertex="1">
          <mxGeometry y="26" width="90" height="26" as="geometry" />
        </mxCell>
        <mxCell id="pHhWCxgh4spuMTg9J9OU-27" value="string = &quot;yes&quot;" style="text;strokeColor=none;fillColor=none;align=left;verticalAlign=top;spacingLeft=4;spacingRight=4;overflow=hidden;rotatable=0;points=[[0,0.5],[1,0.5]];portConstraint=eastwest;whiteSpace=wrap;html=1;fontStyle=0" parent="pHhWCxgh4spuMTg9J9OU-25" vertex="1">
          <mxGeometry y="52" width="90" height="26" as="geometry" />
        </mxCell>
        <mxCell id="pHhWCxgh4spuMTg9J9OU-28" value="Obj2" style="swimlane;fontStyle=0;childLayout=stackLayout;horizontal=1;startSize=26;fillColor=none;horizontalStack=0;resizeParent=1;resizeParentMax=0;resizeLast=0;collapsible=1;marginBottom=0;whiteSpace=wrap;html=1;" parent="1" vertex="1">
          <mxGeometry x="490" y="5005" width="90" height="78" as="geometry" />
        </mxCell>
        <mxCell id="pHhWCxgh4spuMTg9J9OU-29" value="num = 7" style="text;strokeColor=none;fillColor=none;align=left;verticalAlign=top;spacingLeft=4;spacingRight=4;overflow=hidden;rotatable=0;points=[[0,0.5],[1,0.5]];portConstraint=eastwest;whiteSpace=wrap;html=1;" parent="pHhWCxgh4spuMTg9J9OU-28" vertex="1">
          <mxGeometry y="26" width="90" height="26" as="geometry" />
        </mxCell>
        <mxCell id="pHhWCxgh4spuMTg9J9OU-30" value="string = &quot;no&quot;" style="text;strokeColor=none;fillColor=none;align=left;verticalAlign=top;spacingLeft=4;spacingRight=4;overflow=hidden;rotatable=0;points=[[0,0.5],[1,0.5]];portConstraint=eastwest;whiteSpace=wrap;html=1;fontStyle=1" parent="pHhWCxgh4spuMTg9J9OU-28" vertex="1">
          <mxGeometry y="52" width="90" height="26" as="geometry" />
        </mxCell>
        <mxCell id="pHhWCxgh4spuMTg9J9OU-31" value="Obj3" style="swimlane;fontStyle=0;childLayout=stackLayout;horizontal=1;startSize=26;fillColor=none;horizontalStack=0;resizeParent=1;resizeParentMax=0;resizeLast=0;collapsible=1;marginBottom=0;whiteSpace=wrap;html=1;" parent="1" vertex="1">
          <mxGeometry x="490" y="5095" width="90" height="78" as="geometry" />
        </mxCell>
        <mxCell id="pHhWCxgh4spuMTg9J9OU-32" value="num = 7" style="text;strokeColor=none;fillColor=none;align=left;verticalAlign=top;spacingLeft=4;spacingRight=4;overflow=hidden;rotatable=0;points=[[0,0.5],[1,0.5]];portConstraint=eastwest;whiteSpace=wrap;html=1;" parent="pHhWCxgh4spuMTg9J9OU-31" vertex="1">
          <mxGeometry y="26" width="90" height="26" as="geometry" />
        </mxCell>
        <mxCell id="pHhWCxgh4spuMTg9J9OU-33" value="string = &quot;yes&quot;" style="text;strokeColor=none;fillColor=none;align=left;verticalAlign=top;spacingLeft=4;spacingRight=4;overflow=hidden;rotatable=0;points=[[0,0.5],[1,0.5]];portConstraint=eastwest;whiteSpace=wrap;html=1;fontStyle=1" parent="pHhWCxgh4spuMTg9J9OU-31" vertex="1">
          <mxGeometry y="52" width="90" height="26" as="geometry" />
        </mxCell>
        <mxCell id="pHhWCxgh4spuMTg9J9OU-34" style="edgeStyle=orthogonalEdgeStyle;rounded=0;orthogonalLoop=1;jettySize=auto;html=1;dashed=1;endArrow=open;endFill=0;" parent="1" source="pHhWCxgh4spuMTg9J9OU-36" target="pHhWCxgh4spuMTg9J9OU-10" edge="1">
          <mxGeometry relative="1" as="geometry">
            <Array as="points">
              <mxPoint x="440" y="4955" />
            </Array>
          </mxGeometry>
        </mxCell>
        <mxCell id="pHhWCxgh4spuMTg9J9OU-35" value="bindings" style="edgeLabel;html=1;align=center;verticalAlign=middle;resizable=0;points=[];" parent="pHhWCxgh4spuMTg9J9OU-34" vertex="1" connectable="0">
          <mxGeometry x="-0.7873" relative="1" as="geometry">
            <mxPoint as="offset" />
          </mxGeometry>
        </mxCell>
        <mxCell id="pHhWCxgh4spuMTg9J9OU-36" value="&lt;div style=&quot;text-align: center;&quot;&gt;&lt;span style=&quot;background-color: initial;&quot;&gt;&lt;i&gt;Execution&lt;/i&gt;&lt;/span&gt;&lt;/div&gt;&lt;div style=&quot;text-align: center;&quot;&gt;&lt;b style=&quot;background-color: initial;&quot;&gt;&lt;br&gt;&lt;/b&gt;&lt;/div&gt;&lt;div style=&quot;&quot;&gt;&lt;b style=&quot;background-color: initial;&quot;&gt;is_satisfied(bindings):&lt;/b&gt;&lt;/div&gt;1. (?var in bindings) == true&lt;br&gt;2. candidates = [Object2, Object3]&lt;br&gt;3. filter candidates&lt;br&gt;4. valid = [Obj3]&lt;br&gt;5. bindings[?var] = [Obj3]&lt;br&gt;6. &lt;b&gt;return true&lt;/b&gt;" style="text;html=1;align=left;verticalAlign=middle;whiteSpace=wrap;rounded=0;fillColor=none;dashed=1;strokeWidth=1;strokeColor=default;" parent="1" vertex="1">
          <mxGeometry x="270" y="5245" width="190" height="130" as="geometry" />
        </mxCell>
        <mxCell id="pHhWCxgh4spuMTg9J9OU-37" style="edgeStyle=orthogonalEdgeStyle;rounded=0;orthogonalLoop=1;jettySize=auto;html=1;dashed=1;endArrow=open;endFill=0;" parent="1" source="pHhWCxgh4spuMTg9J9OU-39" target="pHhWCxgh4spuMTg9J9OU-9" edge="1">
          <mxGeometry relative="1" as="geometry">
            <Array as="points">
              <mxPoint x="130" y="4955" />
            </Array>
          </mxGeometry>
        </mxCell>
        <mxCell id="pHhWCxgh4spuMTg9J9OU-38" value="bindings" style="edgeLabel;html=1;align=center;verticalAlign=middle;resizable=0;points=[];" parent="pHhWCxgh4spuMTg9J9OU-37" vertex="1" connectable="0">
          <mxGeometry x="-0.2907" y="-1" relative="1" as="geometry">
            <mxPoint x="-1" y="9" as="offset" />
          </mxGeometry>
        </mxCell>
        <mxCell id="pHhWCxgh4spuMTg9J9OU-39" value="&lt;div style=&quot;text-align: center;&quot;&gt;&lt;span style=&quot;background-color: initial;&quot;&gt;&lt;i&gt;Execution&lt;/i&gt;&lt;/span&gt;&lt;/div&gt;&lt;div style=&quot;text-align: center;&quot;&gt;&lt;b style=&quot;background-color: initial;&quot;&gt;&lt;br&gt;&lt;/b&gt;&lt;/div&gt;&lt;div style=&quot;&quot;&gt;&lt;b style=&quot;background-color: initial;&quot;&gt;is_satisfied(bindings):&lt;/b&gt;&lt;/div&gt;&lt;div style=&quot;&quot;&gt;1. return&amp;nbsp;&lt;span style=&quot;background-color: initial;&quot;&gt;true&amp;nbsp;&lt;/span&gt;&lt;span style=&quot;background-color: initial;&quot;&gt;and&amp;nbsp;&lt;/span&gt;&lt;/div&gt;&lt;div style=&quot;&quot;&gt;&lt;b&gt;StringMatch.is_satisfied(bindings)&lt;/b&gt;&lt;/div&gt;" style="text;html=1;align=left;verticalAlign=middle;whiteSpace=wrap;rounded=0;fillColor=none;dashed=1;strokeWidth=1;strokeColor=default;" parent="1" vertex="1">
          <mxGeometry x="10" y="4977.5" width="220" height="107.5" as="geometry" />
        </mxCell>
        <mxCell id="pHhWCxgh4spuMTg9J9OU-40" style="edgeStyle=orthogonalEdgeStyle;rounded=0;orthogonalLoop=1;jettySize=auto;html=1;startArrow=open;startFill=0;dashed=1;endArrow=none;endFill=0;" parent="1" edge="1">
          <mxGeometry relative="1" as="geometry">
            <mxPoint x="60" y="4925" as="targetPoint" />
            <mxPoint x="180" y="4925" as="sourcePoint" />
            <Array as="points">
              <mxPoint x="50" y="4925" />
            </Array>
          </mxGeometry>
        </mxCell>
        <mxCell id="pHhWCxgh4spuMTg9J9OU-41" value="condition_satisfied()" style="edgeLabel;html=1;align=center;verticalAlign=middle;resizable=0;points=[];fontStyle=0" parent="pHhWCxgh4spuMTg9J9OU-40" vertex="1" connectable="0">
          <mxGeometry x="0.0706" y="-3" relative="1" as="geometry">
            <mxPoint x="-5" y="3" as="offset" />
          </mxGeometry>
        </mxCell>
      </root>
    </mxGraphModel>
  </diagram>
  <diagram id="rzSIcG1Zo_sGzHHD8Q8h" name="Unification_Step4">
    <mxGraphModel dx="1222" dy="-3462" grid="1" gridSize="10" guides="1" tooltips="1" connect="1" arrows="1" fold="1" page="1" pageScale="1" pageWidth="560" pageHeight="380" math="0" shadow="0">
      <root>
        <mxCell id="0" />
        <mxCell id="1" parent="0" />
        <mxCell id="Fzyyui4D23eB_Dvt0k8o-1" style="edgeStyle=orthogonalEdgeStyle;rounded=0;orthogonalLoop=1;jettySize=auto;html=1;endArrow=none;endFill=0;startArrow=diamond;startFill=0;startSize=20;" parent="1" source="Fzyyui4D23eB_Dvt0k8o-12" target="Fzyyui4D23eB_Dvt0k8o-18" edge="1">
          <mxGeometry relative="1" as="geometry">
            <Array as="points">
              <mxPoint x="230" y="4392" />
              <mxPoint x="290" y="4392" />
            </Array>
          </mxGeometry>
        </mxCell>
        <mxCell id="Fzyyui4D23eB_Dvt0k8o-2" style="edgeStyle=orthogonalEdgeStyle;rounded=0;orthogonalLoop=1;jettySize=auto;html=1;startArrow=diamond;startFill=1;endArrow=none;endFill=0;startSize=20;" parent="1" source="Fzyyui4D23eB_Dvt0k8o-8" target="Fzyyui4D23eB_Dvt0k8o-12" edge="1">
          <mxGeometry relative="1" as="geometry" />
        </mxCell>
        <mxCell id="Fzyyui4D23eB_Dvt0k8o-3" value="Condition" style="edgeLabel;html=1;align=center;verticalAlign=middle;resizable=0;points=[];fontStyle=0" parent="Fzyyui4D23eB_Dvt0k8o-2" vertex="1" connectable="0">
          <mxGeometry x="0.1926" y="3" relative="1" as="geometry">
            <mxPoint x="3" y="3" as="offset" />
          </mxGeometry>
        </mxCell>
        <mxCell id="Fzyyui4D23eB_Dvt0k8o-4" style="edgeStyle=orthogonalEdgeStyle;rounded=0;orthogonalLoop=1;jettySize=auto;html=1;dashed=1;endArrow=open;endFill=0;" parent="1" source="Fzyyui4D23eB_Dvt0k8o-8" target="Fzyyui4D23eB_Dvt0k8o-12" edge="1">
          <mxGeometry relative="1" as="geometry">
            <Array as="points">
              <mxPoint x="270" y="4272" />
              <mxPoint x="330" y="4272" />
              <mxPoint x="330" y="4307" />
            </Array>
          </mxGeometry>
        </mxCell>
        <mxCell id="Fzyyui4D23eB_Dvt0k8o-5" value="is_satisfied(bindings)" style="edgeLabel;html=1;align=center;verticalAlign=middle;resizable=0;points=[];fontStyle=0" parent="Fzyyui4D23eB_Dvt0k8o-4" vertex="1" connectable="0">
          <mxGeometry x="-0.0495" y="2" relative="1" as="geometry">
            <mxPoint x="1" y="15" as="offset" />
          </mxGeometry>
        </mxCell>
        <mxCell id="Fzyyui4D23eB_Dvt0k8o-6" style="edgeStyle=orthogonalEdgeStyle;rounded=0;orthogonalLoop=1;jettySize=auto;html=1;dashed=1;endArrow=open;endFill=0;" parent="1" source="Fzyyui4D23eB_Dvt0k8o-8" target="Fzyyui4D23eB_Dvt0k8o-28" edge="1">
          <mxGeometry relative="1" as="geometry">
            <Array as="points">
              <mxPoint x="430" y="4202" />
              <mxPoint x="430" y="4392" />
            </Array>
          </mxGeometry>
        </mxCell>
        <mxCell id="Fzyyui4D23eB_Dvt0k8o-7" value="bindings" style="edgeLabel;html=1;align=center;verticalAlign=middle;resizable=0;points=[];" parent="Fzyyui4D23eB_Dvt0k8o-6" vertex="1" connectable="0">
          <mxGeometry x="-0.8052" y="-1" relative="1" as="geometry">
            <mxPoint x="17" as="offset" />
          </mxGeometry>
        </mxCell>
        <mxCell id="Fzyyui4D23eB_Dvt0k8o-8" value="Rule" style="swimlane;fontStyle=0;childLayout=stackLayout;horizontal=1;startSize=26;fillColor=none;horizontalStack=0;resizeParent=1;resizeParentMax=0;resizeLast=0;collapsible=1;marginBottom=0;whiteSpace=wrap;html=1;" parent="1" vertex="1">
          <mxGeometry x="140" y="4192" width="180" height="52" as="geometry" />
        </mxCell>
        <mxCell id="Fzyyui4D23eB_Dvt0k8o-9" value="bindings = {?var: [Obj3]}" style="text;strokeColor=none;fillColor=none;align=left;verticalAlign=top;spacingLeft=4;spacingRight=4;overflow=hidden;rotatable=0;points=[[0,0.5],[1,0.5]];portConstraint=eastwest;whiteSpace=wrap;html=1;" parent="Fzyyui4D23eB_Dvt0k8o-8" vertex="1">
          <mxGeometry y="26" width="180" height="26" as="geometry" />
        </mxCell>
        <mxCell id="Fzyyui4D23eB_Dvt0k8o-10" style="edgeStyle=orthogonalEdgeStyle;rounded=0;orthogonalLoop=1;jettySize=auto;html=1;endArrow=none;endFill=0;startArrow=diamond;startFill=0;startSize=20;" parent="1" source="Fzyyui4D23eB_Dvt0k8o-12" target="Fzyyui4D23eB_Dvt0k8o-13" edge="1">
          <mxGeometry relative="1" as="geometry">
            <Array as="points">
              <mxPoint x="230" y="4392" />
              <mxPoint x="170" y="4392" />
            </Array>
          </mxGeometry>
        </mxCell>
        <mxCell id="Fzyyui4D23eB_Dvt0k8o-11" value="Subconditions" style="edgeLabel;html=1;align=center;verticalAlign=middle;resizable=0;points=[];fontStyle=0" parent="Fzyyui4D23eB_Dvt0k8o-10" vertex="1" connectable="0">
          <mxGeometry x="-0.2062" y="1" relative="1" as="geometry">
            <mxPoint x="-1" y="8" as="offset" />
          </mxGeometry>
        </mxCell>
        <mxCell id="Fzyyui4D23eB_Dvt0k8o-12" value="ANDMatch" style="html=1;whiteSpace=wrap;fillColor=#fad9d5;strokeColor=#ae4132;" parent="1" vertex="1">
          <mxGeometry x="190" y="4292" width="80" height="30" as="geometry" />
        </mxCell>
        <mxCell id="Fzyyui4D23eB_Dvt0k8o-13" value="NumericMatch" style="swimlane;fontStyle=0;childLayout=stackLayout;horizontal=1;startSize=26;fillColor=none;horizontalStack=0;resizeParent=1;resizeParentMax=0;resizeLast=0;collapsible=1;marginBottom=0;whiteSpace=wrap;html=1;" parent="1" vertex="1">
          <mxGeometry x="100" y="4418" width="110" height="130" as="geometry" />
        </mxCell>
        <mxCell id="Fzyyui4D23eB_Dvt0k8o-14" value="tester = ?var" style="text;strokeColor=none;fillColor=none;align=left;verticalAlign=top;spacingLeft=4;spacingRight=4;overflow=hidden;rotatable=0;points=[[0,0.5],[1,0.5]];portConstraint=eastwest;whiteSpace=wrap;html=1;" parent="Fzyyui4D23eB_Dvt0k8o-13" vertex="1">
          <mxGeometry y="26" width="110" height="26" as="geometry" />
        </mxCell>
        <mxCell id="Fzyyui4D23eB_Dvt0k8o-15" value="property = &quot;num&quot;" style="text;strokeColor=none;fillColor=none;align=left;verticalAlign=top;spacingLeft=4;spacingRight=4;overflow=hidden;rotatable=0;points=[[0,0.5],[1,0.5]];portConstraint=eastwest;whiteSpace=wrap;html=1;" parent="Fzyyui4D23eB_Dvt0k8o-13" vertex="1">
          <mxGeometry y="52" width="110" height="26" as="geometry" />
        </mxCell>
        <mxCell id="Fzyyui4D23eB_Dvt0k8o-16" value="min = 5" style="text;strokeColor=none;fillColor=none;align=left;verticalAlign=top;spacingLeft=4;spacingRight=4;overflow=hidden;rotatable=0;points=[[0,0.5],[1,0.5]];portConstraint=eastwest;whiteSpace=wrap;html=1;" parent="Fzyyui4D23eB_Dvt0k8o-13" vertex="1">
          <mxGeometry y="78" width="110" height="26" as="geometry" />
        </mxCell>
        <mxCell id="Fzyyui4D23eB_Dvt0k8o-17" value="max = 10" style="text;strokeColor=none;fillColor=none;align=left;verticalAlign=top;spacingLeft=4;spacingRight=4;overflow=hidden;rotatable=0;points=[[0,0.5],[1,0.5]];portConstraint=eastwest;whiteSpace=wrap;html=1;" parent="Fzyyui4D23eB_Dvt0k8o-13" vertex="1">
          <mxGeometry y="104" width="110" height="26" as="geometry" />
        </mxCell>
        <mxCell id="Fzyyui4D23eB_Dvt0k8o-18" value="StringMatch" style="swimlane;fontStyle=0;childLayout=stackLayout;horizontal=1;startSize=26;fillColor=none;horizontalStack=0;resizeParent=1;resizeParentMax=0;resizeLast=0;collapsible=1;marginBottom=0;whiteSpace=wrap;html=1;" parent="1" vertex="1">
          <mxGeometry x="240" y="4418" width="110" height="104" as="geometry" />
        </mxCell>
        <mxCell id="Fzyyui4D23eB_Dvt0k8o-19" value="tester = ?var" style="text;strokeColor=none;fillColor=none;align=left;verticalAlign=top;spacingLeft=4;spacingRight=4;overflow=hidden;rotatable=0;points=[[0,0.5],[1,0.5]];portConstraint=eastwest;whiteSpace=wrap;html=1;" parent="Fzyyui4D23eB_Dvt0k8o-18" vertex="1">
          <mxGeometry y="26" width="110" height="26" as="geometry" />
        </mxCell>
        <mxCell id="Fzyyui4D23eB_Dvt0k8o-20" value="property = &quot;string&quot;" style="text;strokeColor=none;fillColor=none;align=left;verticalAlign=top;spacingLeft=4;spacingRight=4;overflow=hidden;rotatable=0;points=[[0,0.5],[1,0.5]];portConstraint=eastwest;whiteSpace=wrap;html=1;" parent="Fzyyui4D23eB_Dvt0k8o-18" vertex="1">
          <mxGeometry y="52" width="110" height="26" as="geometry" />
        </mxCell>
        <mxCell id="Fzyyui4D23eB_Dvt0k8o-21" value="value = &quot;yes&quot;" style="text;strokeColor=none;fillColor=none;align=left;verticalAlign=top;spacingLeft=4;spacingRight=4;overflow=hidden;rotatable=0;points=[[0,0.5],[1,0.5]];portConstraint=eastwest;whiteSpace=wrap;html=1;" parent="Fzyyui4D23eB_Dvt0k8o-18" vertex="1">
          <mxGeometry y="78" width="110" height="26" as="geometry" />
        </mxCell>
        <mxCell id="Fzyyui4D23eB_Dvt0k8o-22" value="Obj1" style="swimlane;fontStyle=0;childLayout=stackLayout;horizontal=1;startSize=26;fillColor=none;horizontalStack=0;resizeParent=1;resizeParentMax=0;resizeLast=0;collapsible=1;marginBottom=0;whiteSpace=wrap;html=1;" parent="1" vertex="1">
          <mxGeometry x="450" y="4192" width="90" height="78" as="geometry" />
        </mxCell>
        <mxCell id="Fzyyui4D23eB_Dvt0k8o-23" value="num = 0" style="text;strokeColor=none;fillColor=none;align=left;verticalAlign=top;spacingLeft=4;spacingRight=4;overflow=hidden;rotatable=0;points=[[0,0.5],[1,0.5]];portConstraint=eastwest;whiteSpace=wrap;html=1;" parent="Fzyyui4D23eB_Dvt0k8o-22" vertex="1">
          <mxGeometry y="26" width="90" height="26" as="geometry" />
        </mxCell>
        <mxCell id="Fzyyui4D23eB_Dvt0k8o-24" value="string = &quot;yes&quot;" style="text;strokeColor=none;fillColor=none;align=left;verticalAlign=top;spacingLeft=4;spacingRight=4;overflow=hidden;rotatable=0;points=[[0,0.5],[1,0.5]];portConstraint=eastwest;whiteSpace=wrap;html=1;" parent="Fzyyui4D23eB_Dvt0k8o-22" vertex="1">
          <mxGeometry y="52" width="90" height="26" as="geometry" />
        </mxCell>
        <mxCell id="Fzyyui4D23eB_Dvt0k8o-25" value="Obj2" style="swimlane;fontStyle=0;childLayout=stackLayout;horizontal=1;startSize=26;fillColor=none;horizontalStack=0;resizeParent=1;resizeParentMax=0;resizeLast=0;collapsible=1;marginBottom=0;whiteSpace=wrap;html=1;" parent="1" vertex="1">
          <mxGeometry x="450" y="4282" width="90" height="78" as="geometry" />
        </mxCell>
        <mxCell id="Fzyyui4D23eB_Dvt0k8o-26" value="num = 7" style="text;strokeColor=none;fillColor=none;align=left;verticalAlign=top;spacingLeft=4;spacingRight=4;overflow=hidden;rotatable=0;points=[[0,0.5],[1,0.5]];portConstraint=eastwest;whiteSpace=wrap;html=1;" parent="Fzyyui4D23eB_Dvt0k8o-25" vertex="1">
          <mxGeometry y="26" width="90" height="26" as="geometry" />
        </mxCell>
        <mxCell id="Fzyyui4D23eB_Dvt0k8o-27" value="string = &quot;no&quot;" style="text;strokeColor=none;fillColor=none;align=left;verticalAlign=top;spacingLeft=4;spacingRight=4;overflow=hidden;rotatable=0;points=[[0,0.5],[1,0.5]];portConstraint=eastwest;whiteSpace=wrap;html=1;" parent="Fzyyui4D23eB_Dvt0k8o-25" vertex="1">
          <mxGeometry y="52" width="90" height="26" as="geometry" />
        </mxCell>
        <mxCell id="Fzyyui4D23eB_Dvt0k8o-28" value="Obj3" style="swimlane;fontStyle=0;childLayout=stackLayout;horizontal=1;startSize=26;fillColor=none;horizontalStack=0;resizeParent=1;resizeParentMax=0;resizeLast=0;collapsible=1;marginBottom=0;whiteSpace=wrap;html=1;" parent="1" vertex="1">
          <mxGeometry x="450" y="4372" width="90" height="78" as="geometry" />
        </mxCell>
        <mxCell id="Fzyyui4D23eB_Dvt0k8o-29" value="num = 7" style="text;strokeColor=none;fillColor=none;align=left;verticalAlign=top;spacingLeft=4;spacingRight=4;overflow=hidden;rotatable=0;points=[[0,0.5],[1,0.5]];portConstraint=eastwest;whiteSpace=wrap;html=1;" parent="Fzyyui4D23eB_Dvt0k8o-28" vertex="1">
          <mxGeometry y="26" width="90" height="26" as="geometry" />
        </mxCell>
        <mxCell id="Fzyyui4D23eB_Dvt0k8o-30" value="string = &quot;yes&quot;" style="text;strokeColor=none;fillColor=none;align=left;verticalAlign=top;spacingLeft=4;spacingRight=4;overflow=hidden;rotatable=0;points=[[0,0.5],[1,0.5]];portConstraint=eastwest;whiteSpace=wrap;html=1;" parent="Fzyyui4D23eB_Dvt0k8o-28" vertex="1">
          <mxGeometry y="52" width="90" height="26" as="geometry" />
        </mxCell>
        <mxCell id="Fzyyui4D23eB_Dvt0k8o-31" style="edgeStyle=orthogonalEdgeStyle;rounded=0;orthogonalLoop=1;jettySize=auto;html=1;dashed=1;endArrow=open;endFill=0;" parent="1" source="Fzyyui4D23eB_Dvt0k8o-33" target="Fzyyui4D23eB_Dvt0k8o-8" edge="1">
          <mxGeometry relative="1" as="geometry">
            <Array as="points">
              <mxPoint x="90" y="4232" />
            </Array>
          </mxGeometry>
        </mxCell>
        <mxCell id="Fzyyui4D23eB_Dvt0k8o-32" value="bindings" style="edgeLabel;html=1;align=center;verticalAlign=middle;resizable=0;points=[];" parent="Fzyyui4D23eB_Dvt0k8o-31" vertex="1" connectable="0">
          <mxGeometry x="-0.2907" y="-1" relative="1" as="geometry">
            <mxPoint x="-1" y="9" as="offset" />
          </mxGeometry>
        </mxCell>
        <mxCell id="Fzyyui4D23eB_Dvt0k8o-33" value="&lt;div style=&quot;text-align: center;&quot;&gt;&lt;span style=&quot;background-color: initial;&quot;&gt;&lt;i&gt;Execution&lt;/i&gt;&lt;/span&gt;&lt;/div&gt;&lt;div style=&quot;text-align: center;&quot;&gt;&lt;b style=&quot;background-color: initial;&quot;&gt;&lt;br&gt;&lt;/b&gt;&lt;/div&gt;&lt;div style=&quot;&quot;&gt;&lt;b style=&quot;background-color: initial;&quot;&gt;is_satisfied(bindings):&lt;/b&gt;&lt;/div&gt;&lt;div style=&quot;&quot;&gt;1. &lt;b&gt;return&amp;nbsp;&lt;span style=&quot;background-color: initial;&quot;&gt;true&amp;nbsp;&lt;/span&gt;&lt;span style=&quot;background-color: initial;&quot;&gt;and true&lt;/span&gt;&lt;/b&gt;&lt;/div&gt;" style="text;html=1;align=left;verticalAlign=middle;whiteSpace=wrap;rounded=0;fillColor=none;dashed=1;strokeWidth=1;strokeColor=default;" parent="1" vertex="1">
          <mxGeometry x="50" y="4254.5" width="140" height="77.5" as="geometry" />
        </mxCell>
        <mxCell id="Fzyyui4D23eB_Dvt0k8o-34" style="edgeStyle=orthogonalEdgeStyle;rounded=0;orthogonalLoop=1;jettySize=auto;html=1;startArrow=open;startFill=0;dashed=1;endArrow=none;endFill=0;" parent="1" edge="1">
          <mxGeometry relative="1" as="geometry">
            <mxPoint x="20.02000000000001" y="4202" as="targetPoint" />
            <mxPoint x="140.01999999999998" y="4202" as="sourcePoint" />
            <Array as="points">
              <mxPoint x="10.02000000000001" y="4202" />
            </Array>
          </mxGeometry>
        </mxCell>
        <mxCell id="Fzyyui4D23eB_Dvt0k8o-35" value="condition_satisfied()" style="edgeLabel;html=1;align=center;verticalAlign=middle;resizable=0;points=[];fontStyle=0" parent="Fzyyui4D23eB_Dvt0k8o-34" vertex="1" connectable="0">
          <mxGeometry x="0.0706" y="-3" relative="1" as="geometry">
            <mxPoint x="-5" y="3" as="offset" />
          </mxGeometry>
        </mxCell>
      </root>
    </mxGraphModel>
  </diagram>
  <diagram id="XaaYUqyYm0sj8TwCvH_H" name="Unification_Step5">
    <mxGraphModel dx="1222" dy="-5912" grid="1" gridSize="10" guides="1" tooltips="1" connect="1" arrows="1" fold="1" page="1" pageScale="1" pageWidth="459" pageHeight="390" math="0" shadow="0">
      <root>
        <mxCell id="0" />
        <mxCell id="1" parent="0" />
        <mxCell id="MoYpWkzScuOnPW_nxMC_-1" style="edgeStyle=orthogonalEdgeStyle;rounded=0;orthogonalLoop=1;jettySize=auto;html=1;endArrow=none;endFill=0;startArrow=diamond;startFill=0;startSize=20;" parent="1" source="MoYpWkzScuOnPW_nxMC_-10" target="MoYpWkzScuOnPW_nxMC_-16" edge="1">
          <mxGeometry relative="1" as="geometry">
            <Array as="points">
              <mxPoint x="140" y="6860" />
              <mxPoint x="200" y="6860" />
            </Array>
          </mxGeometry>
        </mxCell>
        <mxCell id="MoYpWkzScuOnPW_nxMC_-2" style="edgeStyle=orthogonalEdgeStyle;rounded=0;orthogonalLoop=1;jettySize=auto;html=1;startArrow=diamond;startFill=1;endArrow=none;endFill=0;startSize=20;" parent="1" source="MoYpWkzScuOnPW_nxMC_-6" target="MoYpWkzScuOnPW_nxMC_-10" edge="1">
          <mxGeometry relative="1" as="geometry" />
        </mxCell>
        <mxCell id="MoYpWkzScuOnPW_nxMC_-3" value="Condition" style="edgeLabel;html=1;align=center;verticalAlign=middle;resizable=0;points=[];fontStyle=0" parent="MoYpWkzScuOnPW_nxMC_-2" vertex="1" connectable="0">
          <mxGeometry x="0.1926" y="3" relative="1" as="geometry">
            <mxPoint x="3" y="3" as="offset" />
          </mxGeometry>
        </mxCell>
        <mxCell id="MoYpWkzScuOnPW_nxMC_-4" style="edgeStyle=orthogonalEdgeStyle;rounded=0;orthogonalLoop=1;jettySize=auto;html=1;endArrow=classic;endFill=1;" parent="1" source="MoYpWkzScuOnPW_nxMC_-6" target="MoYpWkzScuOnPW_nxMC_-26" edge="1">
          <mxGeometry relative="1" as="geometry">
            <Array as="points">
              <mxPoint x="340" y="6670" />
              <mxPoint x="340" y="6860" />
            </Array>
          </mxGeometry>
        </mxCell>
        <mxCell id="MoYpWkzScuOnPW_nxMC_-5" value="bindings" style="edgeLabel;html=1;align=center;verticalAlign=middle;resizable=0;points=[];" parent="MoYpWkzScuOnPW_nxMC_-4" vertex="1" connectable="0">
          <mxGeometry x="-0.8052" y="-1" relative="1" as="geometry">
            <mxPoint x="17" as="offset" />
          </mxGeometry>
        </mxCell>
        <mxCell id="MoYpWkzScuOnPW_nxMC_-6" value="Rule" style="swimlane;fontStyle=0;childLayout=stackLayout;horizontal=1;startSize=26;fillColor=none;horizontalStack=0;resizeParent=1;resizeParentMax=0;resizeLast=0;collapsible=1;marginBottom=0;whiteSpace=wrap;html=1;" parent="1" vertex="1">
          <mxGeometry x="50" y="6660" width="180" height="52" as="geometry" />
        </mxCell>
        <mxCell id="MoYpWkzScuOnPW_nxMC_-7" value="bindings = {?var: [Obj3]}" style="text;strokeColor=none;fillColor=none;align=left;verticalAlign=top;spacingLeft=4;spacingRight=4;overflow=hidden;rotatable=0;points=[[0,0.5],[1,0.5]];portConstraint=eastwest;whiteSpace=wrap;html=1;" parent="MoYpWkzScuOnPW_nxMC_-6" vertex="1">
          <mxGeometry y="26" width="180" height="26" as="geometry" />
        </mxCell>
        <mxCell id="MoYpWkzScuOnPW_nxMC_-8" style="edgeStyle=orthogonalEdgeStyle;rounded=0;orthogonalLoop=1;jettySize=auto;html=1;endArrow=none;endFill=0;startArrow=diamond;startFill=0;startSize=20;" parent="1" source="MoYpWkzScuOnPW_nxMC_-10" target="MoYpWkzScuOnPW_nxMC_-11" edge="1">
          <mxGeometry relative="1" as="geometry">
            <Array as="points">
              <mxPoint x="140" y="6860" />
              <mxPoint x="80" y="6860" />
            </Array>
          </mxGeometry>
        </mxCell>
        <mxCell id="MoYpWkzScuOnPW_nxMC_-9" value="Subconditions" style="edgeLabel;html=1;align=center;verticalAlign=middle;resizable=0;points=[];fontStyle=0" parent="MoYpWkzScuOnPW_nxMC_-8" vertex="1" connectable="0">
          <mxGeometry x="-0.2062" y="1" relative="1" as="geometry">
            <mxPoint x="-1" y="8" as="offset" />
          </mxGeometry>
        </mxCell>
        <mxCell id="MoYpWkzScuOnPW_nxMC_-10" value="ANDMatch" style="html=1;whiteSpace=wrap;" parent="1" vertex="1">
          <mxGeometry x="100" y="6760" width="80" height="30" as="geometry" />
        </mxCell>
        <mxCell id="MoYpWkzScuOnPW_nxMC_-11" value="NumericMatch" style="swimlane;fontStyle=0;childLayout=stackLayout;horizontal=1;startSize=26;fillColor=none;horizontalStack=0;resizeParent=1;resizeParentMax=0;resizeLast=0;collapsible=1;marginBottom=0;whiteSpace=wrap;html=1;" parent="1" vertex="1">
          <mxGeometry x="10" y="6886" width="110" height="130" as="geometry" />
        </mxCell>
        <mxCell id="MoYpWkzScuOnPW_nxMC_-12" value="tester = ?var" style="text;strokeColor=none;fillColor=none;align=left;verticalAlign=top;spacingLeft=4;spacingRight=4;overflow=hidden;rotatable=0;points=[[0,0.5],[1,0.5]];portConstraint=eastwest;whiteSpace=wrap;html=1;" parent="MoYpWkzScuOnPW_nxMC_-11" vertex="1">
          <mxGeometry y="26" width="110" height="26" as="geometry" />
        </mxCell>
        <mxCell id="MoYpWkzScuOnPW_nxMC_-13" value="property = &quot;num&quot;" style="text;strokeColor=none;fillColor=none;align=left;verticalAlign=top;spacingLeft=4;spacingRight=4;overflow=hidden;rotatable=0;points=[[0,0.5],[1,0.5]];portConstraint=eastwest;whiteSpace=wrap;html=1;" parent="MoYpWkzScuOnPW_nxMC_-11" vertex="1">
          <mxGeometry y="52" width="110" height="26" as="geometry" />
        </mxCell>
        <mxCell id="MoYpWkzScuOnPW_nxMC_-14" value="min = 5" style="text;strokeColor=none;fillColor=none;align=left;verticalAlign=top;spacingLeft=4;spacingRight=4;overflow=hidden;rotatable=0;points=[[0,0.5],[1,0.5]];portConstraint=eastwest;whiteSpace=wrap;html=1;" parent="MoYpWkzScuOnPW_nxMC_-11" vertex="1">
          <mxGeometry y="78" width="110" height="26" as="geometry" />
        </mxCell>
        <mxCell id="MoYpWkzScuOnPW_nxMC_-15" value="max = 10" style="text;strokeColor=none;fillColor=none;align=left;verticalAlign=top;spacingLeft=4;spacingRight=4;overflow=hidden;rotatable=0;points=[[0,0.5],[1,0.5]];portConstraint=eastwest;whiteSpace=wrap;html=1;" parent="MoYpWkzScuOnPW_nxMC_-11" vertex="1">
          <mxGeometry y="104" width="110" height="26" as="geometry" />
        </mxCell>
        <mxCell id="MoYpWkzScuOnPW_nxMC_-16" value="StringMatch" style="swimlane;fontStyle=0;childLayout=stackLayout;horizontal=1;startSize=26;fillColor=none;horizontalStack=0;resizeParent=1;resizeParentMax=0;resizeLast=0;collapsible=1;marginBottom=0;whiteSpace=wrap;html=1;" parent="1" vertex="1">
          <mxGeometry x="150" y="6886" width="110" height="104" as="geometry" />
        </mxCell>
        <mxCell id="MoYpWkzScuOnPW_nxMC_-17" value="tester = ?var" style="text;strokeColor=none;fillColor=none;align=left;verticalAlign=top;spacingLeft=4;spacingRight=4;overflow=hidden;rotatable=0;points=[[0,0.5],[1,0.5]];portConstraint=eastwest;whiteSpace=wrap;html=1;" parent="MoYpWkzScuOnPW_nxMC_-16" vertex="1">
          <mxGeometry y="26" width="110" height="26" as="geometry" />
        </mxCell>
        <mxCell id="MoYpWkzScuOnPW_nxMC_-18" value="property = &quot;string&quot;" style="text;strokeColor=none;fillColor=none;align=left;verticalAlign=top;spacingLeft=4;spacingRight=4;overflow=hidden;rotatable=0;points=[[0,0.5],[1,0.5]];portConstraint=eastwest;whiteSpace=wrap;html=1;" parent="MoYpWkzScuOnPW_nxMC_-16" vertex="1">
          <mxGeometry y="52" width="110" height="26" as="geometry" />
        </mxCell>
        <mxCell id="MoYpWkzScuOnPW_nxMC_-19" value="value = &quot;yes&quot;" style="text;strokeColor=none;fillColor=none;align=left;verticalAlign=top;spacingLeft=4;spacingRight=4;overflow=hidden;rotatable=0;points=[[0,0.5],[1,0.5]];portConstraint=eastwest;whiteSpace=wrap;html=1;" parent="MoYpWkzScuOnPW_nxMC_-16" vertex="1">
          <mxGeometry y="78" width="110" height="26" as="geometry" />
        </mxCell>
        <mxCell id="MoYpWkzScuOnPW_nxMC_-20" value="Obj1" style="swimlane;fontStyle=0;childLayout=stackLayout;horizontal=1;startSize=26;fillColor=none;horizontalStack=0;resizeParent=1;resizeParentMax=0;resizeLast=0;collapsible=1;marginBottom=0;whiteSpace=wrap;html=1;" parent="1" vertex="1">
          <mxGeometry x="360" y="6660" width="90" height="78" as="geometry" />
        </mxCell>
        <mxCell id="MoYpWkzScuOnPW_nxMC_-21" value="num = 0" style="text;strokeColor=none;fillColor=none;align=left;verticalAlign=top;spacingLeft=4;spacingRight=4;overflow=hidden;rotatable=0;points=[[0,0.5],[1,0.5]];portConstraint=eastwest;whiteSpace=wrap;html=1;" parent="MoYpWkzScuOnPW_nxMC_-20" vertex="1">
          <mxGeometry y="26" width="90" height="26" as="geometry" />
        </mxCell>
        <mxCell id="MoYpWkzScuOnPW_nxMC_-22" value="string = &quot;yes&quot;" style="text;strokeColor=none;fillColor=none;align=left;verticalAlign=top;spacingLeft=4;spacingRight=4;overflow=hidden;rotatable=0;points=[[0,0.5],[1,0.5]];portConstraint=eastwest;whiteSpace=wrap;html=1;" parent="MoYpWkzScuOnPW_nxMC_-20" vertex="1">
          <mxGeometry y="52" width="90" height="26" as="geometry" />
        </mxCell>
        <mxCell id="MoYpWkzScuOnPW_nxMC_-23" value="Obj2" style="swimlane;fontStyle=0;childLayout=stackLayout;horizontal=1;startSize=26;fillColor=none;horizontalStack=0;resizeParent=1;resizeParentMax=0;resizeLast=0;collapsible=1;marginBottom=0;whiteSpace=wrap;html=1;" parent="1" vertex="1">
          <mxGeometry x="360" y="6750" width="90" height="78" as="geometry" />
        </mxCell>
        <mxCell id="MoYpWkzScuOnPW_nxMC_-24" value="num = 7" style="text;strokeColor=none;fillColor=none;align=left;verticalAlign=top;spacingLeft=4;spacingRight=4;overflow=hidden;rotatable=0;points=[[0,0.5],[1,0.5]];portConstraint=eastwest;whiteSpace=wrap;html=1;" parent="MoYpWkzScuOnPW_nxMC_-23" vertex="1">
          <mxGeometry y="26" width="90" height="26" as="geometry" />
        </mxCell>
        <mxCell id="MoYpWkzScuOnPW_nxMC_-25" value="string = &quot;no&quot;" style="text;strokeColor=none;fillColor=none;align=left;verticalAlign=top;spacingLeft=4;spacingRight=4;overflow=hidden;rotatable=0;points=[[0,0.5],[1,0.5]];portConstraint=eastwest;whiteSpace=wrap;html=1;" parent="MoYpWkzScuOnPW_nxMC_-23" vertex="1">
          <mxGeometry y="52" width="90" height="26" as="geometry" />
        </mxCell>
        <mxCell id="MoYpWkzScuOnPW_nxMC_-26" value="Obj3" style="swimlane;fontStyle=0;childLayout=stackLayout;horizontal=1;startSize=26;fillColor=none;horizontalStack=0;resizeParent=1;resizeParentMax=0;resizeLast=0;collapsible=1;marginBottom=0;whiteSpace=wrap;html=1;" parent="1" vertex="1">
          <mxGeometry x="360" y="6840" width="90" height="78" as="geometry" />
        </mxCell>
        <mxCell id="MoYpWkzScuOnPW_nxMC_-27" value="num = 7" style="text;strokeColor=none;fillColor=none;align=left;verticalAlign=top;spacingLeft=4;spacingRight=4;overflow=hidden;rotatable=0;points=[[0,0.5],[1,0.5]];portConstraint=eastwest;whiteSpace=wrap;html=1;" parent="MoYpWkzScuOnPW_nxMC_-26" vertex="1">
          <mxGeometry y="26" width="90" height="26" as="geometry" />
        </mxCell>
        <mxCell id="MoYpWkzScuOnPW_nxMC_-28" value="string = &quot;yes&quot;" style="text;strokeColor=none;fillColor=none;align=left;verticalAlign=top;spacingLeft=4;spacingRight=4;overflow=hidden;rotatable=0;points=[[0,0.5],[1,0.5]];portConstraint=eastwest;whiteSpace=wrap;html=1;" parent="MoYpWkzScuOnPW_nxMC_-26" vertex="1">
          <mxGeometry y="52" width="90" height="26" as="geometry" />
        </mxCell>
      </root>
    </mxGraphModel>
  </diagram>
</mxfile>
